%TF.GenerationSoftware,KiCad,Pcbnew,9.0.1*%
%TF.CreationDate,2025-04-21T15:30:43-04:00*%
%TF.ProjectId,AliWSV3,416c6957-5356-4332-9e6b-696361645f70,rev?*%
%TF.SameCoordinates,Original*%
%TF.FileFunction,Copper,L2,Bot*%
%TF.FilePolarity,Positive*%
%FSLAX46Y46*%
G04 Gerber Fmt 4.6, Leading zero omitted, Abs format (unit mm)*
G04 Created by KiCad (PCBNEW 9.0.1) date 2025-04-21 15:30:43*
%MOMM*%
%LPD*%
G01*
G04 APERTURE LIST*
%TA.AperFunction,ComponentPad*%
%ADD10R,1.700000X1.700000*%
%TD*%
%TA.AperFunction,ComponentPad*%
%ADD11C,1.700000*%
%TD*%
%TA.AperFunction,ViaPad*%
%ADD12C,0.600000*%
%TD*%
%TA.AperFunction,Conductor*%
%ADD13C,0.250000*%
%TD*%
G04 APERTURE END LIST*
D10*
%TO.P,CON1,1,TDO*%
%TO.N,TDO*%
X156460000Y-117500000D03*
D11*
%TO.P,CON1,2,GND*%
%TO.N,GND*%
X159000000Y-117500000D03*
%TO.P,CON1,3,TCK*%
%TO.N,TCK*%
X156460000Y-120040000D03*
%TO.P,CON1,4,Vcc*%
%TO.N,VCC*%
X159000000Y-120040000D03*
%TO.P,CON1,5,TDI*%
%TO.N,TDI*%
X156460000Y-122580000D03*
%TO.P,CON1,6,TMS*%
%TO.N,TMS*%
X159000000Y-122580000D03*
%TD*%
D12*
%TO.N,GND*%
X149098000Y-115824000D03*
X123190000Y-115824000D03*
X151511000Y-128340000D03*
X144366500Y-130810000D03*
X138367883Y-120258999D03*
X140843000Y-120805000D03*
X158130000Y-128400000D03*
X138176000Y-135001000D03*
X153700000Y-117000000D03*
X138430000Y-115678000D03*
X151003000Y-142113000D03*
X132906198Y-115632802D03*
X117900000Y-119320000D03*
X100000000Y-144000000D03*
X135128000Y-120269000D03*
X136017000Y-128336000D03*
X102743000Y-129420000D03*
%TO.N,D0*%
X131445000Y-124123000D03*
X147216854Y-125363935D03*
%TO.N,A3*%
X134366000Y-141732000D03*
X137795000Y-142748000D03*
%TO.N,D15*%
X123675000Y-117157500D03*
X116515000Y-144836000D03*
X140589000Y-127435000D03*
X150876000Y-127254000D03*
%TO.N,CLK*%
X152400000Y-127690000D03*
X153416000Y-141224000D03*
%TO.N,D5*%
X125730000Y-125222000D03*
X145390715Y-126946243D03*
X110200000Y-121850000D03*
%TO.N,D9*%
X142748000Y-145034000D03*
X129978448Y-117083999D03*
%TO.N,A5*%
X132116899Y-141763784D03*
X114046000Y-144021000D03*
%TO.N,A9*%
X105156000Y-144526000D03*
X125984000Y-136144000D03*
X110363000Y-132588000D03*
%TO.N,A4*%
X132969000Y-141732000D03*
X115313558Y-144518442D03*
%TO.N,D12*%
X126550000Y-116597000D03*
X146558000Y-144907000D03*
%TO.N,D13*%
X125550000Y-117274000D03*
X147701000Y-144907000D03*
%TO.N,A8*%
X130425000Y-137287000D03*
X110363000Y-138303000D03*
%TO.N,D8*%
X141478000Y-145034000D03*
X131064000Y-117094000D03*
%TO.N,D6*%
X124841000Y-125730000D03*
X110350000Y-123220000D03*
X144780000Y-127508000D03*
%TO.N,D11*%
X145288000Y-144907000D03*
X128261991Y-117083999D03*
%TO.N,A10*%
X102870000Y-144653000D03*
X111252000Y-133604000D03*
X124050000Y-135255000D03*
%TO.N,D7*%
X123688000Y-126235000D03*
X110363000Y-124400000D03*
X144135000Y-127998451D03*
%TO.N,D4*%
X127000000Y-124841000D03*
X145878377Y-126204374D03*
X110310000Y-120550000D03*
%TO.N,D10*%
X144015000Y-145034000D03*
X129061993Y-117084000D03*
%TO.N,D2*%
X128514000Y-123190000D03*
X146812000Y-122986800D03*
%TO.N,D1*%
X146946161Y-124118736D03*
X129413000Y-123825000D03*
%TO.N,A12*%
X110236000Y-144399000D03*
X125349000Y-141859000D03*
%TO.N,D3*%
X128016000Y-124768000D03*
X146431000Y-125603000D03*
X110290000Y-119410000D03*
%TO.N,A13*%
X112017963Y-141222847D03*
X124015500Y-141414500D03*
%TO.N,A14*%
X109093000Y-144399000D03*
X122946001Y-140922719D03*
%TO.N,A7*%
X111506000Y-144399000D03*
X130657491Y-141341000D03*
%TO.N,D14*%
X124405001Y-122762687D03*
X117765000Y-144816000D03*
X143465000Y-122347000D03*
X143514867Y-128529133D03*
%TO.N,WE*%
X153312058Y-144375942D03*
X128016000Y-144780000D03*
X125476000Y-140970000D03*
X109661000Y-135890000D03*
%TO.N,A11*%
X110236000Y-130810000D03*
X124633558Y-135880000D03*
%TO.N,A6*%
X112776000Y-144399000D03*
X131293987Y-141825641D03*
%TO.N,A15*%
X120776748Y-140335252D03*
X101600000Y-144653000D03*
%TO.N,A1*%
X135509000Y-140335000D03*
X137668000Y-141097000D03*
%TO.N,A2*%
X137753059Y-141906056D03*
X134874000Y-140970000D03*
%TO.N,BYTE*%
X136398000Y-121167000D03*
X123327000Y-121031000D03*
%TO.N,CE_M1*%
X110363000Y-125730000D03*
X134874000Y-130236000D03*
%TO.N,OE_M1_U2*%
X110236000Y-129540000D03*
X132175000Y-121896000D03*
%TO.N,A20_U2*%
X135931941Y-132540944D03*
X127331668Y-136357402D03*
%TO.N,A18_U2*%
X135891713Y-134139392D03*
X129679305Y-136997271D03*
%TO.N,A15_U2*%
X137414000Y-137287000D03*
X120523000Y-137922000D03*
%TO.N,A16_U2*%
X133675000Y-120406000D03*
X122050000Y-117224000D03*
%TO.N,A17_U2*%
X130048000Y-140716000D03*
X139701153Y-136653153D03*
%TO.N,CE_U2*%
X133096000Y-121793000D03*
X148215000Y-121031000D03*
%TO.N,VCC*%
X110231480Y-137513882D03*
X142240000Y-133350000D03*
X151800000Y-117000000D03*
X155702000Y-125000000D03*
X137922000Y-138684000D03*
X106539000Y-139446000D03*
X143383000Y-120904000D03*
X133604000Y-142240000D03*
X141839000Y-128622448D03*
X147260000Y-130556000D03*
X139715000Y-121158877D03*
X144762000Y-116303000D03*
X128016000Y-137033000D03*
X104000000Y-131320000D03*
X127635000Y-115654000D03*
%TO.N,A21_U2*%
X128813575Y-136970726D03*
X135882840Y-133339438D03*
%TO.N,A19_U2*%
X126669997Y-135732402D03*
X135890000Y-131699000D03*
%TD*%
D13*
%TO.N,GND*%
X135138001Y-120258999D02*
X135128000Y-120269000D01*
X151511000Y-127693702D02*
X152204702Y-127000000D01*
X105500000Y-139000000D02*
X105500000Y-135000000D01*
X100500000Y-144000000D02*
X105500000Y-139000000D01*
X100000000Y-144000000D02*
X100500000Y-144000000D01*
X138367883Y-120258999D02*
X135138001Y-120258999D01*
X151511000Y-128340000D02*
X151511000Y-127693702D01*
X156730000Y-127000000D02*
X158130000Y-128400000D01*
X105500000Y-135000000D02*
X102743000Y-132243000D01*
X102743000Y-132243000D02*
X102743000Y-129420000D01*
X152204702Y-127000000D02*
X156730000Y-127000000D01*
%TO.N,D0*%
X142438050Y-124644000D02*
X146496919Y-124644000D01*
X146496919Y-124644000D02*
X147216854Y-125363935D01*
X131445000Y-124123000D02*
X131489000Y-124079000D01*
X131489000Y-124079000D02*
X141873050Y-124079000D01*
X141873050Y-124079000D02*
X142438050Y-124644000D01*
%TO.N,A3*%
X136847114Y-142748000D02*
X137795000Y-142748000D01*
X135831114Y-141732000D02*
X136847114Y-142748000D01*
X134366000Y-141732000D02*
X135831114Y-141732000D01*
%TO.N,D15*%
X132207000Y-116459000D02*
X132210702Y-116459000D01*
X132068000Y-116320000D02*
X132207000Y-116459000D01*
X126290702Y-115971000D02*
X126809298Y-115971000D01*
X127158298Y-116320000D02*
X132068000Y-116320000D01*
X120412842Y-144302000D02*
X126713190Y-144302000D01*
X151765000Y-119253000D02*
X151765000Y-122950050D01*
X151765000Y-122950050D02*
X150749000Y-123966050D01*
X120097842Y-143987000D02*
X120412842Y-144302000D01*
X124512500Y-116320000D02*
X125941702Y-116320000D01*
X132679702Y-116928000D02*
X148753448Y-116928000D01*
X149763000Y-117251000D02*
X151765000Y-119253000D01*
X150749000Y-127127000D02*
X150876000Y-127254000D01*
X116998000Y-143987000D02*
X120097842Y-143987000D01*
X132210702Y-116459000D02*
X132679702Y-116928000D01*
X125941702Y-116320000D02*
X126290702Y-115971000D01*
X149076448Y-117251000D02*
X149763000Y-117251000D01*
X126809298Y-115971000D02*
X127158298Y-116320000D01*
X126713190Y-144302000D02*
X127575190Y-143440000D01*
X123675000Y-117157500D02*
X124512500Y-116320000D01*
X150749000Y-123966050D02*
X150749000Y-127127000D01*
X148753448Y-116928000D02*
X149076448Y-117251000D01*
X116515000Y-144470000D02*
X116998000Y-143987000D01*
X138116190Y-143440000D02*
X140589000Y-140967190D01*
X127575190Y-143440000D02*
X138116190Y-143440000D01*
X140589000Y-140967190D02*
X140589000Y-127435000D01*
X116515000Y-144836000D02*
X116515000Y-144470000D01*
%TO.N,CLK*%
X152400000Y-127690000D02*
X152400000Y-128270000D01*
X152400000Y-128270000D02*
X153416000Y-129286000D01*
X153416000Y-129286000D02*
X153416000Y-141224000D01*
%TO.N,D5*%
X144809472Y-126365000D02*
X145390715Y-126946243D01*
X120964810Y-121482000D02*
X111296000Y-121482000D01*
X142245620Y-126365000D02*
X144809472Y-126365000D01*
X141724620Y-125844000D02*
X142245620Y-126365000D01*
X126352000Y-125844000D02*
X141724620Y-125844000D01*
X125730000Y-125222000D02*
X125222000Y-124714000D01*
X125222000Y-124714000D02*
X124196810Y-124714000D01*
X124196810Y-124714000D02*
X120964810Y-121482000D01*
X110928000Y-121850000D02*
X110200000Y-121850000D01*
X125730000Y-125222000D02*
X126352000Y-125844000D01*
X111296000Y-121482000D02*
X110928000Y-121850000D01*
%TO.N,D9*%
X148520728Y-146886000D02*
X144600000Y-146886000D01*
X150863000Y-119750810D02*
X150863000Y-122576430D01*
X148702828Y-118153000D02*
X149265190Y-118153000D01*
X149746000Y-123693430D02*
X149746000Y-145660728D01*
X148379828Y-117830000D02*
X148702828Y-118153000D01*
X144600000Y-146886000D02*
X142748000Y-145034000D01*
X130784000Y-117830000D02*
X148379828Y-117830000D01*
X129978448Y-117083999D02*
X130037999Y-117083999D01*
X150863000Y-122576430D02*
X149746000Y-123693430D01*
X149265190Y-118153000D02*
X150863000Y-119750810D01*
X149746000Y-145660728D02*
X148520728Y-146886000D01*
X130037999Y-117083999D02*
X130784000Y-117830000D01*
%TO.N,A5*%
X126339570Y-143400000D02*
X120786462Y-143400000D01*
X120786462Y-143400000D02*
X120471462Y-143085000D01*
X114982000Y-143085000D02*
X114046000Y-144021000D01*
X131883000Y-142302074D02*
X131883000Y-142538000D01*
X126339570Y-143400000D02*
X127201570Y-142538000D01*
X132116899Y-141763784D02*
X132116899Y-142068175D01*
X120471462Y-143085000D02*
X114982000Y-143085000D01*
X131883000Y-142538000D02*
X127201570Y-142538000D01*
X132116899Y-142068175D02*
X131883000Y-142302074D01*
%TO.N,A9*%
X111878000Y-133863298D02*
X111511298Y-134230000D01*
X111511298Y-136149298D02*
X111511298Y-134230000D01*
X109036000Y-138472108D02*
X105156000Y-142352108D01*
X109739810Y-134230000D02*
X109036000Y-134933810D01*
X110363000Y-132588000D02*
X110871000Y-132588000D01*
X111878000Y-133344702D02*
X111878000Y-133863298D01*
X105156000Y-142352108D02*
X105156000Y-144526000D01*
X125984000Y-136144000D02*
X125984000Y-136525000D01*
X111511298Y-134230000D02*
X109739810Y-134230000D01*
X123535702Y-136525000D02*
X123211702Y-136201000D01*
X109036000Y-134933810D02*
X109036000Y-138472108D01*
X111511298Y-132978000D02*
X111878000Y-133344702D01*
X110871000Y-132588000D02*
X111261000Y-132978000D01*
X125984000Y-136525000D02*
X123535702Y-136525000D01*
X123211702Y-136201000D02*
X111563000Y-136201000D01*
X111563000Y-136201000D02*
X111511298Y-136149298D01*
X111261000Y-132978000D02*
X111511298Y-132978000D01*
%TO.N,A4*%
X115666000Y-143536000D02*
X115313558Y-143888442D01*
X132969000Y-141732000D02*
X132969000Y-141853884D01*
X132334000Y-142989000D02*
X127388380Y-142989000D01*
X120599652Y-143851000D02*
X120284652Y-143536000D01*
X115313558Y-143888442D02*
X115313558Y-144518442D01*
X132969000Y-141853884D02*
X132334000Y-142488884D01*
X132334000Y-142488884D02*
X132334000Y-142989000D01*
X126526380Y-143851000D02*
X127388380Y-142989000D01*
X120284652Y-143536000D02*
X115666000Y-143536000D01*
X126526380Y-143851000D02*
X120599652Y-143851000D01*
%TO.N,D12*%
X147184000Y-145533000D02*
X146558000Y-144907000D01*
X126620000Y-116597000D02*
X126794000Y-116771000D01*
X148336000Y-124292968D02*
X148336000Y-145157298D01*
X148336000Y-145157298D02*
X147960298Y-145533000D01*
X148142398Y-119506000D02*
X148704760Y-119506000D01*
X126794000Y-116771000D02*
X127065108Y-116771000D01*
X148347013Y-124281955D02*
X148336000Y-124292968D01*
X148704760Y-119506000D02*
X149510000Y-120311240D01*
X149510000Y-120311240D02*
X149510000Y-122016000D01*
X149510000Y-122016000D02*
X148347013Y-123178987D01*
X127065108Y-116771000D02*
X129477108Y-119183000D01*
X147960298Y-145533000D02*
X147184000Y-145533000D01*
X126550000Y-116597000D02*
X126620000Y-116597000D01*
X148347013Y-123178987D02*
X148347013Y-124281955D01*
X148336000Y-124460000D02*
X148336000Y-145157298D01*
X129477108Y-119183000D02*
X147819398Y-119183000D01*
X147819398Y-119183000D02*
X148142398Y-119506000D01*
%TO.N,D13*%
X147885000Y-144723000D02*
X147701000Y-144907000D01*
X148841000Y-120771702D02*
X148841000Y-121790000D01*
X125603000Y-117221000D02*
X126288702Y-117221000D01*
X126810298Y-117222000D02*
X126878298Y-117222000D01*
X143256000Y-119634000D02*
X144027000Y-120405000D01*
X148474298Y-120405000D02*
X148841000Y-120771702D01*
X144027000Y-120405000D02*
X148474298Y-120405000D01*
X125550000Y-117274000D02*
X125603000Y-117221000D01*
X126878298Y-117222000D02*
X129290298Y-119634000D01*
X126809298Y-117223000D02*
X126810298Y-117222000D01*
X126288702Y-117221000D02*
X126290702Y-117223000D01*
X148841000Y-121790000D02*
X147885000Y-122746000D01*
X129290298Y-119634000D02*
X143256000Y-119634000D01*
X147885000Y-122746000D02*
X147885000Y-144723000D01*
X126290702Y-117223000D02*
X126809298Y-117223000D01*
%TO.N,A8*%
X111370000Y-137296000D02*
X110363000Y-138303000D01*
X122945000Y-137296000D02*
X111370000Y-137296000D01*
X123308000Y-137659000D02*
X122945000Y-137296000D01*
X130053000Y-137659000D02*
X123308000Y-137659000D01*
X130425000Y-137287000D02*
X130053000Y-137659000D01*
%TO.N,D8*%
X150197000Y-145847538D02*
X148707538Y-147337000D01*
X148707538Y-147337000D02*
X143781000Y-147337000D01*
X148889638Y-117702000D02*
X149452000Y-117702000D01*
X150197000Y-123880240D02*
X150197000Y-145847538D01*
X143781000Y-147337000D02*
X141478000Y-145034000D01*
X148566638Y-117379000D02*
X148889638Y-117702000D01*
X151314000Y-122763240D02*
X150197000Y-123880240D01*
X151314000Y-119564000D02*
X151314000Y-122763240D01*
X131064000Y-117094000D02*
X131349000Y-117379000D01*
X149452000Y-117702000D02*
X151314000Y-119564000D01*
X131349000Y-117379000D02*
X148566638Y-117379000D01*
%TO.N,D6*%
X141537810Y-126295000D02*
X142242810Y-127000000D01*
X142242810Y-127000000D02*
X144272000Y-127000000D01*
X144272000Y-127000000D02*
X144780000Y-127508000D01*
X110380000Y-123190000D02*
X110350000Y-123220000D01*
X124841000Y-125658000D02*
X125478000Y-126295000D01*
X124575000Y-125730000D02*
X120778000Y-121933000D01*
X124841000Y-125730000D02*
X124841000Y-125658000D01*
X125478000Y-126295000D02*
X141537810Y-126295000D01*
X111630190Y-123190000D02*
X110380000Y-123190000D01*
X124841000Y-125730000D02*
X124575000Y-125730000D01*
X120778000Y-121933000D02*
X112887190Y-121933000D01*
X112887190Y-121933000D02*
X111630190Y-123190000D01*
%TO.N,D11*%
X148844000Y-123319810D02*
X148844000Y-145287108D01*
X148006208Y-118732000D02*
X148329208Y-119055000D01*
X129663918Y-118732000D02*
X148006208Y-118732000D01*
X146365000Y-145984000D02*
X145288000Y-144907000D01*
X148891570Y-119055000D02*
X149961000Y-120124430D01*
X128261991Y-117083999D02*
X128261991Y-117330073D01*
X149961000Y-122202810D02*
X148844000Y-123319810D01*
X148147108Y-145984000D02*
X146365000Y-145984000D01*
X148844000Y-145287108D02*
X148147108Y-145984000D01*
X149961000Y-120124430D02*
X149961000Y-122202810D01*
X128261991Y-117330073D02*
X129663918Y-118732000D01*
X148329208Y-119055000D02*
X148891570Y-119055000D01*
%TO.N,A10*%
X124050000Y-135255000D02*
X120240000Y-131445000D01*
X108585000Y-134747000D02*
X108585000Y-138285298D01*
X111252000Y-133604000D02*
X109728000Y-133604000D01*
X102870000Y-144000298D02*
X108585000Y-138285298D01*
X109728000Y-133604000D02*
X108585000Y-134747000D01*
X108585000Y-132842000D02*
X108585000Y-134747000D01*
X120240000Y-131445000D02*
X109982000Y-131445000D01*
X102870000Y-144000298D02*
X102870000Y-144653000D01*
X109982000Y-131445000D02*
X108585000Y-132842000D01*
%TO.N,D7*%
X123685000Y-126238000D02*
X113438000Y-126238000D01*
X113438000Y-126238000D02*
X111600000Y-124400000D01*
X144135000Y-127680000D02*
X144135000Y-127998451D01*
X142113000Y-127508000D02*
X143963000Y-127508000D01*
X143963000Y-127508000D02*
X144135000Y-127680000D01*
X141351000Y-126746000D02*
X142113000Y-127508000D01*
X111600000Y-124400000D02*
X110363000Y-124400000D01*
X124199000Y-126746000D02*
X141351000Y-126746000D01*
X123688000Y-126235000D02*
X123685000Y-126238000D01*
X123688000Y-126235000D02*
X124199000Y-126746000D01*
%TO.N,D4*%
X124326620Y-124206000D02*
X121151620Y-121031000D01*
X145878377Y-126131470D02*
X145878377Y-126204374D01*
X145603907Y-125857000D02*
X145878377Y-126131470D01*
X126365000Y-124206000D02*
X124326620Y-124206000D01*
X110791000Y-121031000D02*
X110310000Y-120550000D01*
X127000000Y-124841000D02*
X126365000Y-124206000D01*
X127000000Y-124841000D02*
X127552000Y-125393000D01*
X141911430Y-125393000D02*
X142375430Y-125857000D01*
X121151620Y-121031000D02*
X110791000Y-121031000D01*
X142375430Y-125857000D02*
X145603907Y-125857000D01*
X127552000Y-125393000D02*
X141911430Y-125393000D01*
%TO.N,D10*%
X129720564Y-117709999D02*
X130291565Y-118281000D01*
X129719150Y-117709999D02*
X129720564Y-117709999D01*
X148193018Y-118281000D02*
X148516018Y-118604000D01*
X130291565Y-118281000D02*
X148193018Y-118281000D01*
X149295000Y-145473918D02*
X148333918Y-146435000D01*
X149295000Y-123506620D02*
X149295000Y-145473918D01*
X149078380Y-118604000D02*
X150412000Y-119937620D01*
X145673000Y-146435000D02*
X144272000Y-145034000D01*
X150412000Y-119937620D02*
X150412000Y-122389620D01*
X148516018Y-118604000D02*
X149078380Y-118604000D01*
X129352448Y-117343297D02*
X129719150Y-117709999D01*
X129352448Y-117341883D02*
X129352448Y-117343297D01*
X150412000Y-122389620D02*
X149295000Y-123506620D01*
X144272000Y-145034000D02*
X144015000Y-145034000D01*
X148333918Y-146435000D02*
X145673000Y-146435000D01*
X129061993Y-117084000D02*
X129094565Y-117084000D01*
X129094565Y-117084000D02*
X129352448Y-117341883D01*
%TO.N,D2*%
X143204702Y-122972000D02*
X143205702Y-122973000D01*
X130720364Y-122967174D02*
X131093984Y-122967174D01*
X128524000Y-123190000D02*
X128742000Y-122972000D01*
X131093984Y-122967174D02*
X131098810Y-122972000D01*
X143724298Y-122973000D02*
X143725298Y-122972000D01*
X143205702Y-122973000D02*
X143724298Y-122973000D01*
X143725298Y-122972000D02*
X146645172Y-122972000D01*
X128742000Y-122972000D02*
X130715538Y-122972000D01*
X146659972Y-122986800D02*
X146812000Y-122986800D01*
X146645172Y-122972000D02*
X146659972Y-122986800D01*
X130715538Y-122972000D02*
X130720364Y-122967174D01*
X128514000Y-123190000D02*
X128524000Y-123190000D01*
X131098810Y-122972000D02*
X143204702Y-122972000D01*
%TO.N,D1*%
X130912000Y-123423000D02*
X146250424Y-123423000D01*
X130907174Y-123418174D02*
X130912000Y-123423000D01*
X146250424Y-123423000D02*
X146946161Y-124118736D01*
X130902348Y-123423000D02*
X130907174Y-123418174D01*
X130548000Y-123777348D02*
X130548000Y-123760412D01*
X130885412Y-123423000D02*
X130902348Y-123423000D01*
X130548000Y-123760412D02*
X130885412Y-123423000D01*
X129413000Y-123825000D02*
X130500348Y-123825000D01*
X130500348Y-123825000D02*
X130548000Y-123777348D01*
%TO.N,A12*%
X125349000Y-141859000D02*
X125167500Y-142040500D01*
X125167500Y-142040500D02*
X121340392Y-142040500D01*
X121340392Y-142040500D02*
X121031892Y-141732000D01*
X113670620Y-141732000D02*
X112133620Y-143269000D01*
X110731000Y-143269000D02*
X110236000Y-143764000D01*
X110236000Y-143764000D02*
X110236000Y-144399000D01*
X112133620Y-143269000D02*
X110731000Y-143269000D01*
X121031892Y-141732000D02*
X113670620Y-141732000D01*
%TO.N,D3*%
X142251240Y-125095000D02*
X146050000Y-125095000D01*
X128016000Y-124768000D02*
X141924240Y-124768000D01*
X111403000Y-120523000D02*
X110290000Y-119410000D01*
X124513430Y-123755000D02*
X121281430Y-120523000D01*
X141924240Y-124768000D02*
X142251240Y-125095000D01*
X146431000Y-125476000D02*
X146431000Y-125603000D01*
X121281430Y-120523000D02*
X111403000Y-120523000D01*
X146050000Y-125095000D02*
X146431000Y-125476000D01*
X128016000Y-124768000D02*
X127003000Y-123755000D01*
X127003000Y-123755000D02*
X124513430Y-123755000D01*
%TO.N,A13*%
X113540810Y-139700000D02*
X112017963Y-141222847D01*
X121025380Y-139700000D02*
X113540810Y-139700000D01*
X124015500Y-141414500D02*
X124079000Y-141351000D01*
X124079000Y-140094000D02*
X121419380Y-140094000D01*
X124079000Y-141351000D02*
X124079000Y-140094000D01*
X121419380Y-140094000D02*
X121025380Y-139700000D01*
%TO.N,A14*%
X109093000Y-143383000D02*
X109093000Y-144399000D01*
X109658000Y-142818000D02*
X109093000Y-143383000D01*
X113540810Y-141224000D02*
X111946810Y-142818000D01*
X122733101Y-140922719D02*
X122431820Y-141224000D01*
X122946001Y-140922719D02*
X122733101Y-140922719D01*
X111946810Y-142818000D02*
X109658000Y-142818000D01*
X122431820Y-141224000D02*
X113540810Y-141224000D01*
%TO.N,A7*%
X111641430Y-144399000D02*
X111506000Y-144399000D01*
X113857430Y-142183000D02*
X111641430Y-144399000D01*
X125965950Y-142498000D02*
X126827950Y-141636000D01*
X130657491Y-141341000D02*
X130362491Y-141636000D01*
X125965950Y-142498000D02*
X121160082Y-142498000D01*
X121160082Y-142498000D02*
X120845082Y-142183000D01*
X120845082Y-142183000D02*
X113857430Y-142183000D01*
X130362491Y-141636000D02*
X126827950Y-141636000D01*
%TO.N,D14*%
X131285620Y-122521000D02*
X131280794Y-122516174D01*
X141214000Y-140980000D02*
X138303000Y-143891000D01*
X127762000Y-143891000D02*
X126900000Y-144753000D01*
X143514867Y-128529133D02*
X143514867Y-128274867D01*
X118143000Y-144438000D02*
X117765000Y-144816000D01*
X141579702Y-127996448D02*
X141560150Y-128016000D01*
X141213000Y-128881746D02*
X141224000Y-128892746D01*
X120226032Y-144753000D02*
X119911032Y-144438000D01*
X131280794Y-122516174D02*
X130533554Y-122516174D01*
X141560150Y-128016000D02*
X141478000Y-128016000D01*
X143291000Y-122521000D02*
X131285620Y-122521000D01*
X143256000Y-128016000D02*
X142117850Y-128016000D01*
X142117850Y-128016000D02*
X142098298Y-127996448D01*
X141213000Y-128363150D02*
X141213000Y-128881746D01*
X141478000Y-128016000D02*
X141224000Y-128270000D01*
X141224000Y-128352150D02*
X141213000Y-128363150D01*
X141224000Y-128892746D02*
X141224000Y-129921000D01*
X142098298Y-127996448D02*
X141579702Y-127996448D01*
X130533554Y-122516174D02*
X130528728Y-122521000D01*
X143465000Y-122347000D02*
X143291000Y-122521000D01*
X141214000Y-129931000D02*
X141214000Y-140980000D01*
X141224000Y-128270000D02*
X141224000Y-128352150D01*
X130528728Y-122521000D02*
X124646688Y-122521000D01*
X119911032Y-144438000D02*
X118143000Y-144438000D01*
X126900000Y-144753000D02*
X120226032Y-144753000D01*
X138303000Y-143891000D02*
X127762000Y-143891000D01*
X124646688Y-122521000D02*
X124405001Y-122762687D01*
X143514867Y-128274867D02*
X143256000Y-128016000D01*
X141224000Y-129921000D02*
X141214000Y-129931000D01*
%TO.N,WE*%
X128016000Y-145288000D02*
X130516000Y-147788000D01*
X128016000Y-144780000D02*
X128016000Y-145288000D01*
X153312058Y-145129465D02*
X153312058Y-144375942D01*
X130516000Y-147788000D02*
X150653523Y-147788000D01*
X109601000Y-135890000D02*
X109661000Y-135890000D01*
X125476000Y-140081000D02*
X125038000Y-139643000D01*
X125476000Y-140970000D02*
X125476000Y-140081000D01*
X150653523Y-147788000D02*
X153312058Y-145129465D01*
X121606190Y-139643000D02*
X121028190Y-139065000D01*
X109601000Y-139065000D02*
X109601000Y-135890000D01*
X121028190Y-139065000D02*
X109601000Y-139065000D01*
X125038000Y-139643000D02*
X121606190Y-139643000D01*
%TO.N,A11*%
X124633558Y-135880000D02*
X124675000Y-135838558D01*
X123063000Y-130810000D02*
X110236000Y-130810000D01*
X124675000Y-135838558D02*
X124675000Y-132422000D01*
X124675000Y-132422000D02*
X123063000Y-130810000D01*
%TO.N,A6*%
X120973272Y-142949000D02*
X120658272Y-142634000D01*
X120658272Y-142634000D02*
X114541000Y-142634000D01*
X126152760Y-142949000D02*
X120973272Y-142949000D01*
X131032628Y-142087000D02*
X127014760Y-142087000D01*
X131032628Y-142087000D02*
X131293987Y-141825641D01*
X131293987Y-141825641D02*
X131224988Y-141825641D01*
X114541000Y-142634000D02*
X112776000Y-144399000D01*
X126152760Y-142949000D02*
X127014760Y-142087000D01*
X130963629Y-142087000D02*
X131032628Y-142087000D01*
X131224988Y-141825641D02*
X130963629Y-142087000D01*
%TO.N,A15*%
X111760000Y-142367000D02*
X108204000Y-142367000D01*
X102362000Y-145415000D02*
X101600000Y-144653000D01*
X105156000Y-145415000D02*
X102362000Y-145415000D01*
X113791748Y-140335252D02*
X111760000Y-142367000D01*
X108204000Y-142367000D02*
X105156000Y-145415000D01*
X120776748Y-140335252D02*
X113791748Y-140335252D01*
%TO.N,A1*%
X136398000Y-140335000D02*
X137160000Y-141097000D01*
X137160000Y-141097000D02*
X137668000Y-141097000D01*
X135509000Y-140335000D02*
X136398000Y-140335000D01*
%TO.N,A2*%
X136059067Y-140970000D02*
X136995123Y-141906056D01*
X136995123Y-141906056D02*
X137753059Y-141906056D01*
X134874000Y-140970000D02*
X136059067Y-140970000D01*
%TO.N,BYTE*%
X136398000Y-121167000D02*
X136153000Y-121167000D01*
X136153000Y-121167000D02*
X136017000Y-121031000D01*
X136017000Y-121031000D02*
X123327000Y-121031000D01*
%TO.N,CE_M1*%
X114869000Y-130236000D02*
X110363000Y-125730000D01*
X134874000Y-130236000D02*
X114869000Y-130236000D01*
%TO.N,OE_M1_U2*%
X109347000Y-128651000D02*
X110236000Y-129540000D01*
X132001000Y-121792000D02*
X123188240Y-121792000D01*
X111837298Y-120072000D02*
X110549298Y-118784000D01*
X132105000Y-121896000D02*
X132001000Y-121792000D01*
X132175000Y-121896000D02*
X132105000Y-121896000D01*
X109547412Y-118784000D02*
X109347000Y-118984412D01*
X121468240Y-120072000D02*
X111837298Y-120072000D01*
X123188240Y-121792000D02*
X121468240Y-120072000D01*
X110549298Y-118784000D02*
X109547412Y-118784000D01*
X109347000Y-118984412D02*
X109347000Y-128651000D01*
%TO.N,A20_U2*%
X132508056Y-132540944D02*
X135931941Y-132540944D01*
X128691598Y-136357402D02*
X132508056Y-132540944D01*
X127331668Y-136357402D02*
X128691598Y-136357402D01*
%TO.N,A18_U2*%
X129679305Y-136997271D02*
X129679305Y-136891390D01*
X132431303Y-134139392D02*
X135891713Y-134139392D01*
X129679305Y-136891390D02*
X132431303Y-134139392D01*
%TO.N,A15_U2*%
X131826000Y-139192000D02*
X121793000Y-139192000D01*
X121793000Y-139192000D02*
X120523000Y-137922000D01*
X137414000Y-137287000D02*
X133731000Y-137287000D01*
X133731000Y-137287000D02*
X131826000Y-139192000D01*
%TO.N,A16_U2*%
X122304000Y-117224000D02*
X125476000Y-120396000D01*
X122050000Y-117224000D02*
X122304000Y-117224000D01*
X133665000Y-120396000D02*
X133675000Y-120406000D01*
X125476000Y-120396000D02*
X133665000Y-120396000D01*
%TO.N,A17_U2*%
X138441306Y-137913000D02*
X139701153Y-136653153D01*
X134375000Y-137913000D02*
X138441306Y-137913000D01*
X131572000Y-140716000D02*
X134375000Y-137913000D01*
X130048000Y-140716000D02*
X131572000Y-140716000D01*
%TO.N,CE_U2*%
X133223000Y-121920000D02*
X143006702Y-121920000D01*
X133096000Y-121793000D02*
X133223000Y-121920000D01*
X143006702Y-121920000D02*
X143205702Y-121721000D01*
X143205702Y-121721000D02*
X143724298Y-121721000D01*
X143724298Y-121721000D02*
X144073298Y-122070000D01*
X144073298Y-122070000D02*
X147176000Y-122070000D01*
X147176000Y-122070000D02*
X148215000Y-121031000D01*
%TO.N,VCC*%
X155702000Y-125000000D02*
X157636000Y-123066000D01*
X141859000Y-128642448D02*
X141859000Y-132969000D01*
X142857000Y-121430000D02*
X139986123Y-121430000D01*
X154000000Y-118440000D02*
X154000000Y-123298000D01*
X149949810Y-116800000D02*
X149263258Y-116800000D01*
X143383000Y-120904000D02*
X142857000Y-121430000D01*
X132213512Y-115824000D02*
X127805000Y-115824000D01*
X146304000Y-133350000D02*
X142240000Y-133350000D01*
X111093362Y-136652000D02*
X123024892Y-136652000D01*
X132848512Y-116459000D02*
X132213512Y-115824000D01*
X123405892Y-137033000D02*
X128016000Y-137033000D01*
X133604000Y-142240000D02*
X133604000Y-140716000D01*
X133604000Y-140716000D02*
X135636000Y-138684000D01*
X144606000Y-116459000D02*
X132848512Y-116459000D01*
X157636000Y-121404000D02*
X159000000Y-120040000D01*
X147260000Y-132394000D02*
X146304000Y-133350000D01*
X144936000Y-116477000D02*
X144762000Y-116303000D01*
X148940258Y-116477000D02*
X144936000Y-116477000D01*
X157636000Y-123066000D02*
X157636000Y-121404000D01*
X151800000Y-117000000D02*
X150149810Y-117000000D01*
X141859000Y-132969000D02*
X142240000Y-133350000D01*
X147260000Y-130556000D02*
X147260000Y-132394000D01*
X150149810Y-117000000D02*
X149949810Y-116800000D01*
X151800000Y-117000000D02*
X152560000Y-117000000D01*
X104320000Y-131320000D02*
X106539000Y-133539000D01*
X135636000Y-138684000D02*
X137922000Y-138684000D01*
X127805000Y-115824000D02*
X127635000Y-115654000D01*
X149263258Y-116800000D02*
X148940258Y-116477000D01*
X104000000Y-131320000D02*
X104320000Y-131320000D01*
X152560000Y-117000000D02*
X154000000Y-118440000D01*
X154000000Y-123298000D02*
X155702000Y-125000000D01*
X144762000Y-116303000D02*
X144606000Y-116459000D01*
X139986123Y-121430000D02*
X139715000Y-121158877D01*
X106539000Y-133539000D02*
X106539000Y-139446000D01*
X141839000Y-128622448D02*
X141859000Y-128642448D01*
X123024892Y-136652000D02*
X123405892Y-137033000D01*
X110231480Y-137513882D02*
X111093362Y-136652000D01*
%TO.N,A21_U2*%
X132347372Y-133339438D02*
X135882840Y-133339438D01*
X128878408Y-136808402D02*
X132347372Y-133339438D01*
X128813575Y-136808402D02*
X128878408Y-136808402D01*
X128813575Y-136970726D02*
X128813575Y-136808402D01*
%TO.N,A19_U2*%
X132526804Y-131699000D02*
X135890000Y-131699000D01*
X128493402Y-135732402D02*
X132526804Y-131699000D01*
X126669997Y-135732402D02*
X128493402Y-135732402D01*
%TD*%
%TA.AperFunction,Conductor*%
%TO.N,GND*%
G36*
X160327539Y-114400185D02*
G01*
X160373294Y-114452989D01*
X160384500Y-114504500D01*
X160384500Y-119266939D01*
X160364815Y-119333978D01*
X160312011Y-119379733D01*
X160242853Y-119389677D01*
X160179297Y-119360652D01*
X160158276Y-119335862D01*
X160157915Y-119336125D01*
X160030109Y-119160213D01*
X159879786Y-119009890D01*
X159707820Y-118884951D01*
X159518414Y-118788444D01*
X159518413Y-118788443D01*
X159518412Y-118788443D01*
X159419285Y-118756234D01*
X159361610Y-118716797D01*
X159334412Y-118652439D01*
X159346327Y-118583592D01*
X159393571Y-118532117D01*
X159419296Y-118520370D01*
X159422256Y-118519408D01*
X159576525Y-118440803D01*
X159664646Y-118376778D01*
X159664647Y-118376778D01*
X159231539Y-117943670D01*
X159307007Y-117900099D01*
X159400099Y-117807007D01*
X159443670Y-117731539D01*
X159876778Y-118164647D01*
X159876778Y-118164646D01*
X159940803Y-118076525D01*
X160019408Y-117922257D01*
X160072914Y-117757584D01*
X160100000Y-117586571D01*
X160100000Y-117413428D01*
X160072914Y-117242415D01*
X160019408Y-117077742D01*
X159940801Y-116923471D01*
X159876780Y-116835352D01*
X159876778Y-116835351D01*
X159443670Y-117268460D01*
X159400099Y-117192993D01*
X159307007Y-117099901D01*
X159231538Y-117056329D01*
X159664647Y-116623220D01*
X159664646Y-116623219D01*
X159576528Y-116559198D01*
X159422257Y-116480591D01*
X159257584Y-116427085D01*
X159086571Y-116400000D01*
X158913429Y-116400000D01*
X158742415Y-116427085D01*
X158577742Y-116480591D01*
X158423478Y-116559194D01*
X158335352Y-116623220D01*
X158768461Y-117056329D01*
X158692993Y-117099901D01*
X158599901Y-117192993D01*
X158556329Y-117268461D01*
X158123220Y-116835352D01*
X158059192Y-116923481D01*
X158044983Y-116951368D01*
X158040608Y-116955999D01*
X158038814Y-116962111D01*
X158016914Y-116981087D01*
X157997008Y-117002164D01*
X157990822Y-117003695D01*
X157986010Y-117007866D01*
X157957323Y-117011990D01*
X157929187Y-117018958D01*
X157923157Y-117016903D01*
X157916852Y-117017810D01*
X157890486Y-117005769D01*
X157863052Y-116996420D01*
X157859090Y-116991431D01*
X157853296Y-116988785D01*
X157837624Y-116964399D01*
X157819602Y-116941704D01*
X157818102Y-116934022D01*
X157815522Y-116930007D01*
X157810499Y-116895072D01*
X157810499Y-116602129D01*
X157810498Y-116602123D01*
X157810497Y-116602116D01*
X157804091Y-116542517D01*
X157801553Y-116535713D01*
X157753796Y-116407669D01*
X157753793Y-116407664D01*
X157667547Y-116292455D01*
X157667544Y-116292452D01*
X157552335Y-116206206D01*
X157552328Y-116206202D01*
X157417482Y-116155908D01*
X157417483Y-116155908D01*
X157357883Y-116149501D01*
X157357881Y-116149500D01*
X157357873Y-116149500D01*
X157357864Y-116149500D01*
X155562129Y-116149500D01*
X155562123Y-116149501D01*
X155502516Y-116155908D01*
X155367671Y-116206202D01*
X155367664Y-116206206D01*
X155252455Y-116292452D01*
X155252452Y-116292455D01*
X155166206Y-116407664D01*
X155166204Y-116407669D01*
X155115908Y-116542517D01*
X155109592Y-116601267D01*
X155109501Y-116602123D01*
X155109500Y-116602135D01*
X155109500Y-118397870D01*
X155109501Y-118397876D01*
X155115908Y-118457483D01*
X155166202Y-118592328D01*
X155166206Y-118592335D01*
X155252452Y-118707544D01*
X155252455Y-118707547D01*
X155367664Y-118793793D01*
X155367671Y-118793797D01*
X155499082Y-118842810D01*
X155555016Y-118884681D01*
X155579433Y-118950145D01*
X155564582Y-119018418D01*
X155543431Y-119046673D01*
X155429889Y-119160215D01*
X155304951Y-119332179D01*
X155208444Y-119521585D01*
X155142753Y-119723760D01*
X155109500Y-119933713D01*
X155109500Y-120146286D01*
X155140505Y-120342047D01*
X155142754Y-120356243D01*
X155204154Y-120545213D01*
X155208444Y-120558414D01*
X155304951Y-120747820D01*
X155429890Y-120919786D01*
X155580213Y-121070109D01*
X155752182Y-121195050D01*
X155760946Y-121199516D01*
X155811742Y-121247491D01*
X155828536Y-121315312D01*
X155805998Y-121381447D01*
X155760946Y-121420484D01*
X155752182Y-121424949D01*
X155580213Y-121549890D01*
X155429890Y-121700213D01*
X155304951Y-121872179D01*
X155208444Y-122061585D01*
X155142753Y-122263760D01*
X155109500Y-122473713D01*
X155109500Y-122686286D01*
X155141518Y-122888443D01*
X155142754Y-122896243D01*
X155189109Y-123038909D01*
X155208444Y-123098414D01*
X155304951Y-123287820D01*
X155429890Y-123459786D01*
X155580213Y-123610109D01*
X155752182Y-123735050D01*
X155752184Y-123735051D01*
X155818841Y-123769014D01*
X155869637Y-123816988D01*
X155886433Y-123884808D01*
X155863896Y-123950944D01*
X155850229Y-123967180D01*
X155789679Y-124027729D01*
X155728359Y-124061213D01*
X155658667Y-124056229D01*
X155614319Y-124027728D01*
X154661819Y-123075228D01*
X154628334Y-123013905D01*
X154625500Y-122987547D01*
X154625500Y-118507741D01*
X154625501Y-118507720D01*
X154625501Y-118378391D01*
X154605360Y-118277139D01*
X154601463Y-118257549D01*
X154600950Y-118256311D01*
X154560436Y-118158500D01*
X154554312Y-118143715D01*
X154502792Y-118066611D01*
X154485858Y-118041267D01*
X154485855Y-118041263D01*
X153056111Y-116611521D01*
X153045859Y-116601269D01*
X153045858Y-116601267D01*
X152958733Y-116514142D01*
X152897908Y-116473500D01*
X152891517Y-116469229D01*
X152891513Y-116469226D01*
X152856290Y-116445690D01*
X152856281Y-116445685D01*
X152772376Y-116410931D01*
X152772368Y-116410929D01*
X152764498Y-116407669D01*
X152742452Y-116398537D01*
X152672414Y-116384606D01*
X152668824Y-116383892D01*
X152668813Y-116383889D01*
X152621611Y-116374500D01*
X152621607Y-116374500D01*
X152621606Y-116374500D01*
X152342350Y-116374500D01*
X152275311Y-116354815D01*
X152273459Y-116353602D01*
X152179184Y-116290609D01*
X152179172Y-116290602D01*
X152033501Y-116230264D01*
X152033489Y-116230261D01*
X151878845Y-116199500D01*
X151878842Y-116199500D01*
X151721158Y-116199500D01*
X151721155Y-116199500D01*
X151566510Y-116230261D01*
X151566498Y-116230264D01*
X151420827Y-116290602D01*
X151420815Y-116290609D01*
X151326541Y-116353602D01*
X151259864Y-116374480D01*
X151257650Y-116374500D01*
X150460264Y-116374500D01*
X150438064Y-116367981D01*
X150415014Y-116365949D01*
X150401887Y-116357358D01*
X150393225Y-116354815D01*
X150384321Y-116348524D01*
X150378123Y-116343722D01*
X150348543Y-116314142D01*
X150289626Y-116274775D01*
X150286002Y-116272354D01*
X150285999Y-116272351D01*
X150246100Y-116245690D01*
X150246096Y-116245688D01*
X150165602Y-116212347D01*
X150132262Y-116198537D01*
X150042657Y-116180714D01*
X150038870Y-116179960D01*
X150038856Y-116179957D01*
X150011421Y-116174500D01*
X150011417Y-116174500D01*
X150011416Y-116174500D01*
X149573710Y-116174500D01*
X149544269Y-116165855D01*
X149514283Y-116159332D01*
X149509267Y-116155577D01*
X149506671Y-116154815D01*
X149486029Y-116138181D01*
X149430456Y-116082608D01*
X149430436Y-116082586D01*
X149338991Y-115991141D01*
X149284316Y-115954609D01*
X149284315Y-115954608D01*
X149277846Y-115950286D01*
X149236544Y-115922688D01*
X149147021Y-115885607D01*
X149142958Y-115883924D01*
X149142946Y-115883918D01*
X149122716Y-115875539D01*
X149122712Y-115875537D01*
X149122710Y-115875537D01*
X149122706Y-115875536D01*
X149122702Y-115875535D01*
X149036201Y-115858328D01*
X149036192Y-115858328D01*
X149001865Y-115851500D01*
X149001864Y-115851500D01*
X145489350Y-115851500D01*
X145422311Y-115831815D01*
X145386247Y-115796389D01*
X145383790Y-115792712D01*
X145383786Y-115792707D01*
X145272292Y-115681213D01*
X145272288Y-115681210D01*
X145141185Y-115593609D01*
X145141172Y-115593602D01*
X144995501Y-115533264D01*
X144995489Y-115533261D01*
X144840845Y-115502500D01*
X144840842Y-115502500D01*
X144683158Y-115502500D01*
X144683155Y-115502500D01*
X144528510Y-115533261D01*
X144528498Y-115533264D01*
X144382827Y-115593602D01*
X144382814Y-115593609D01*
X144251711Y-115681210D01*
X144251707Y-115681213D01*
X144135903Y-115797018D01*
X144133907Y-115795022D01*
X144086096Y-115827531D01*
X144048088Y-115833500D01*
X133158965Y-115833500D01*
X133091926Y-115813815D01*
X133071284Y-115797181D01*
X132709334Y-115435232D01*
X132699371Y-115425269D01*
X132699370Y-115425267D01*
X132612245Y-115338142D01*
X132561021Y-115303915D01*
X132509798Y-115269688D01*
X132509795Y-115269686D01*
X132509792Y-115269685D01*
X132436115Y-115239168D01*
X132436113Y-115239167D01*
X132429304Y-115236347D01*
X132395964Y-115222537D01*
X132335541Y-115210518D01*
X132330818Y-115209578D01*
X132330816Y-115209578D01*
X132275122Y-115198500D01*
X132275119Y-115198500D01*
X132275118Y-115198500D01*
X128359677Y-115198500D01*
X128292638Y-115178815D01*
X128261221Y-115147952D01*
X128260653Y-115148419D01*
X128256786Y-115143707D01*
X128145292Y-115032213D01*
X128145288Y-115032210D01*
X128014185Y-114944609D01*
X128014172Y-114944602D01*
X127868501Y-114884264D01*
X127868489Y-114884261D01*
X127713845Y-114853500D01*
X127713842Y-114853500D01*
X127556158Y-114853500D01*
X127556155Y-114853500D01*
X127401510Y-114884261D01*
X127401498Y-114884264D01*
X127255827Y-114944602D01*
X127255814Y-114944609D01*
X127124711Y-115032210D01*
X127124707Y-115032213D01*
X127013213Y-115143707D01*
X127013207Y-115143715D01*
X126925606Y-115274819D01*
X126922858Y-115279961D01*
X126873892Y-115329802D01*
X126813504Y-115345500D01*
X126358443Y-115345500D01*
X126358423Y-115345499D01*
X126352309Y-115345499D01*
X126229096Y-115345499D01*
X126128299Y-115365548D01*
X126128294Y-115365548D01*
X126108251Y-115369536D01*
X126108249Y-115369536D01*
X126061099Y-115389067D01*
X125994421Y-115416685D01*
X125994419Y-115416686D01*
X125891968Y-115485141D01*
X125891965Y-115485144D01*
X125718930Y-115658181D01*
X125657607Y-115691666D01*
X125631249Y-115694500D01*
X124450892Y-115694500D01*
X124419485Y-115700747D01*
X124419480Y-115700748D01*
X124415515Y-115701537D01*
X124330048Y-115718537D01*
X124295513Y-115732842D01*
X124287998Y-115735954D01*
X124287993Y-115735956D01*
X124216215Y-115765686D01*
X124206127Y-115772428D01*
X124206126Y-115772429D01*
X124113768Y-115834140D01*
X124089581Y-115858328D01*
X124026642Y-115921267D01*
X124026639Y-115921270D01*
X123616203Y-116331705D01*
X123554880Y-116365190D01*
X123552714Y-116365641D01*
X123441508Y-116387761D01*
X123441498Y-116387764D01*
X123295827Y-116448102D01*
X123295814Y-116448109D01*
X123164711Y-116535710D01*
X123164707Y-116535713D01*
X123053213Y-116647207D01*
X123053210Y-116647211D01*
X122962221Y-116783386D01*
X122960633Y-116782325D01*
X122949436Y-116793720D01*
X122935265Y-116814116D01*
X122925375Y-116818208D01*
X122917874Y-116825843D01*
X122893652Y-116831335D01*
X122870704Y-116840832D01*
X122860172Y-116838928D01*
X122849735Y-116841295D01*
X122826391Y-116832821D01*
X122801949Y-116828403D01*
X122789522Y-116819438D01*
X122784058Y-116817455D01*
X122772965Y-116808264D01*
X122771354Y-116806763D01*
X122702733Y-116738142D01*
X122684940Y-116726253D01*
X122677621Y-116719434D01*
X122677094Y-116718546D01*
X122674466Y-116716389D01*
X122671790Y-116713713D01*
X122671789Y-116713711D01*
X122560289Y-116602211D01*
X122560288Y-116602210D01*
X122560287Y-116602209D01*
X122429185Y-116514609D01*
X122429172Y-116514602D01*
X122283501Y-116454264D01*
X122283489Y-116454261D01*
X122128845Y-116423500D01*
X122128842Y-116423500D01*
X121971158Y-116423500D01*
X121971155Y-116423500D01*
X121816510Y-116454261D01*
X121816498Y-116454264D01*
X121670827Y-116514602D01*
X121670814Y-116514609D01*
X121539711Y-116602210D01*
X121539707Y-116602213D01*
X121428213Y-116713707D01*
X121428210Y-116713711D01*
X121340609Y-116844814D01*
X121340602Y-116844827D01*
X121280264Y-116990498D01*
X121280261Y-116990510D01*
X121249500Y-117145153D01*
X121249500Y-117302846D01*
X121280261Y-117457489D01*
X121280264Y-117457501D01*
X121340602Y-117603172D01*
X121340609Y-117603185D01*
X121428210Y-117734288D01*
X121428213Y-117734292D01*
X121539707Y-117845786D01*
X121539711Y-117845789D01*
X121670814Y-117933390D01*
X121670827Y-117933397D01*
X121812635Y-117992135D01*
X121816503Y-117993737D01*
X121960209Y-118022322D01*
X121971153Y-118024499D01*
X121971156Y-118024500D01*
X121971158Y-118024500D01*
X122128840Y-118024500D01*
X122128842Y-118024500D01*
X122139789Y-118022322D01*
X122209378Y-118028545D01*
X122251667Y-118056257D01*
X124389228Y-120193819D01*
X124422713Y-120255142D01*
X124417729Y-120324834D01*
X124375857Y-120380767D01*
X124310393Y-120405184D01*
X124301547Y-120405500D01*
X123869350Y-120405500D01*
X123802311Y-120385815D01*
X123800459Y-120384602D01*
X123706184Y-120321609D01*
X123706172Y-120321602D01*
X123560501Y-120261264D01*
X123560489Y-120261261D01*
X123405845Y-120230500D01*
X123405842Y-120230500D01*
X123248158Y-120230500D01*
X123248155Y-120230500D01*
X123093510Y-120261261D01*
X123093498Y-120261264D01*
X122947827Y-120321602D01*
X122947814Y-120321609D01*
X122825392Y-120403410D01*
X122758714Y-120424288D01*
X122691334Y-120405803D01*
X122668820Y-120387989D01*
X121964539Y-119683709D01*
X121954099Y-119673269D01*
X121954098Y-119673267D01*
X121866973Y-119586142D01*
X121799201Y-119540858D01*
X121793036Y-119536738D01*
X121793032Y-119536735D01*
X121764530Y-119517690D01*
X121764526Y-119517688D01*
X121684032Y-119484347D01*
X121650692Y-119470537D01*
X121650688Y-119470536D01*
X121650684Y-119470535D01*
X121555225Y-119451547D01*
X121555224Y-119451547D01*
X121529851Y-119446500D01*
X121529847Y-119446500D01*
X121529846Y-119446500D01*
X112147750Y-119446500D01*
X112080711Y-119426815D01*
X112060069Y-119410181D01*
X111042448Y-118392560D01*
X111035158Y-118385270D01*
X111035156Y-118385267D01*
X110948031Y-118298142D01*
X110896807Y-118263915D01*
X110845584Y-118229688D01*
X110763905Y-118195856D01*
X110731750Y-118182537D01*
X110671327Y-118170518D01*
X110666686Y-118169595D01*
X110666683Y-118169594D01*
X110610908Y-118158500D01*
X110610905Y-118158500D01*
X110610904Y-118158500D01*
X109609018Y-118158500D01*
X109485805Y-118158500D01*
X109485801Y-118158500D01*
X109425383Y-118170518D01*
X109382155Y-118179116D01*
X109364958Y-118182537D01*
X109251128Y-118229687D01*
X109180114Y-118277137D01*
X109180113Y-118277139D01*
X109178443Y-118278255D01*
X109148672Y-118298147D01*
X108989339Y-118457482D01*
X108948269Y-118498552D01*
X108948267Y-118498554D01*
X108926451Y-118520370D01*
X108861142Y-118585678D01*
X108839816Y-118617595D01*
X108836571Y-118622452D01*
X108792688Y-118688126D01*
X108765211Y-118754463D01*
X108762787Y-118760313D01*
X108762783Y-118760322D01*
X108745538Y-118801957D01*
X108745535Y-118801967D01*
X108737156Y-118844090D01*
X108737157Y-118844091D01*
X108723162Y-118914452D01*
X108721500Y-118922806D01*
X108721500Y-128589393D01*
X108721500Y-128712607D01*
X108721500Y-128712609D01*
X108721499Y-128712609D01*
X108728562Y-128748115D01*
X108728568Y-128748140D01*
X108729114Y-128750884D01*
X108745537Y-128833452D01*
X108751980Y-128849007D01*
X108755568Y-128857671D01*
X108755570Y-128857676D01*
X108792685Y-128947281D01*
X108792687Y-128947284D01*
X108792688Y-128947286D01*
X108821039Y-128989714D01*
X108826914Y-128998507D01*
X108826915Y-128998509D01*
X108861141Y-129049733D01*
X108952586Y-129141178D01*
X108952608Y-129141198D01*
X109410205Y-129598795D01*
X109443690Y-129660118D01*
X109444141Y-129662285D01*
X109466261Y-129773489D01*
X109466264Y-129773501D01*
X109526602Y-129919172D01*
X109526609Y-129919185D01*
X109614210Y-130050288D01*
X109614213Y-130050292D01*
X109651240Y-130087319D01*
X109684725Y-130148642D01*
X109679741Y-130218334D01*
X109651240Y-130262681D01*
X109614213Y-130299707D01*
X109614210Y-130299711D01*
X109526609Y-130430814D01*
X109526602Y-130430827D01*
X109466264Y-130576498D01*
X109466261Y-130576510D01*
X109435500Y-130731153D01*
X109435500Y-130888846D01*
X109458748Y-131005723D01*
X109452521Y-131075315D01*
X109424812Y-131117595D01*
X108471909Y-132070500D01*
X108186269Y-132356140D01*
X108186267Y-132356142D01*
X108158737Y-132383672D01*
X108099142Y-132443266D01*
X108086560Y-132462097D01*
X108066485Y-132492142D01*
X108048586Y-132518928D01*
X108030688Y-132545713D01*
X108006358Y-132604449D01*
X108006359Y-132604450D01*
X107988774Y-132646904D01*
X107988772Y-132646908D01*
X107984596Y-132656993D01*
X107983537Y-132659549D01*
X107961478Y-132770452D01*
X107959500Y-132780394D01*
X107959500Y-132780397D01*
X107959500Y-137974845D01*
X107939815Y-138041884D01*
X107923181Y-138062526D01*
X107376181Y-138609526D01*
X107314858Y-138643011D01*
X107245166Y-138638027D01*
X107189233Y-138596155D01*
X107164816Y-138530691D01*
X107164500Y-138521845D01*
X107164500Y-133477389D01*
X107162634Y-133468014D01*
X107162633Y-133468013D01*
X107161807Y-133463857D01*
X107149314Y-133401045D01*
X107140463Y-133356548D01*
X107120235Y-133307714D01*
X107117194Y-133300374D01*
X107117194Y-133300371D01*
X107100716Y-133260591D01*
X107093312Y-133242715D01*
X107093310Y-133242712D01*
X107093309Y-133242709D01*
X107068291Y-133205268D01*
X107068290Y-133205267D01*
X107024858Y-133140267D01*
X107024855Y-133140263D01*
X106934637Y-133050045D01*
X106934606Y-133050016D01*
X104813150Y-130928560D01*
X104805860Y-130921270D01*
X104805858Y-130921267D01*
X104718733Y-130834142D01*
X104667509Y-130799915D01*
X104616286Y-130765688D01*
X104616285Y-130765687D01*
X104616283Y-130765686D01*
X104573316Y-130747889D01*
X104533088Y-130721009D01*
X104510292Y-130698213D01*
X104510288Y-130698210D01*
X104379185Y-130610609D01*
X104379172Y-130610602D01*
X104233501Y-130550264D01*
X104233489Y-130550261D01*
X104078845Y-130519500D01*
X104078842Y-130519500D01*
X103921158Y-130519500D01*
X103921155Y-130519500D01*
X103766510Y-130550261D01*
X103766498Y-130550264D01*
X103620827Y-130610602D01*
X103620814Y-130610609D01*
X103489711Y-130698210D01*
X103489707Y-130698213D01*
X103378213Y-130809707D01*
X103378210Y-130809711D01*
X103290609Y-130940814D01*
X103290602Y-130940827D01*
X103230264Y-131086498D01*
X103230261Y-131086510D01*
X103199500Y-131241153D01*
X103199500Y-131398846D01*
X103230261Y-131553489D01*
X103230264Y-131553501D01*
X103290602Y-131699172D01*
X103290609Y-131699185D01*
X103378210Y-131830288D01*
X103378213Y-131830292D01*
X103489707Y-131941786D01*
X103489711Y-131941789D01*
X103620814Y-132029390D01*
X103620827Y-132029397D01*
X103766498Y-132089735D01*
X103766503Y-132089737D01*
X103855155Y-132107371D01*
X103921153Y-132120499D01*
X103921156Y-132120500D01*
X103921158Y-132120500D01*
X104078843Y-132120500D01*
X104117904Y-132112729D01*
X104144843Y-132107371D01*
X104214435Y-132113598D01*
X104256717Y-132141307D01*
X105877181Y-133761771D01*
X105910666Y-133823094D01*
X105913500Y-133849452D01*
X105913500Y-138903650D01*
X105893815Y-138970689D01*
X105892602Y-138972541D01*
X105829609Y-139066815D01*
X105829602Y-139066828D01*
X105769264Y-139212498D01*
X105769261Y-139212510D01*
X105738500Y-139367153D01*
X105738500Y-139524846D01*
X105769261Y-139679489D01*
X105769264Y-139679501D01*
X105829602Y-139825172D01*
X105829609Y-139825184D01*
X105905617Y-139938937D01*
X105926495Y-140005614D01*
X105908011Y-140072994D01*
X105890196Y-140095509D01*
X103323147Y-142662560D01*
X102471269Y-143514438D01*
X102471267Y-143514440D01*
X102427704Y-143558003D01*
X102384141Y-143601565D01*
X102370184Y-143622452D01*
X102370185Y-143622453D01*
X102315689Y-143704010D01*
X102315687Y-143704014D01*
X102286905Y-143773501D01*
X102268537Y-143817843D01*
X102268535Y-143817851D01*
X102263234Y-143844496D01*
X102263235Y-143844497D01*
X102255525Y-143883264D01*
X102254442Y-143888711D01*
X102251724Y-143902374D01*
X102248715Y-143917501D01*
X102216329Y-143979412D01*
X102155613Y-144013985D01*
X102085843Y-144010244D01*
X102058207Y-143996410D01*
X101979185Y-143943609D01*
X101979172Y-143943602D01*
X101833501Y-143883264D01*
X101833489Y-143883261D01*
X101678845Y-143852500D01*
X101678842Y-143852500D01*
X101521158Y-143852500D01*
X101521155Y-143852500D01*
X101366510Y-143883261D01*
X101366498Y-143883264D01*
X101220827Y-143943602D01*
X101220814Y-143943609D01*
X101089711Y-144031210D01*
X101089707Y-144031213D01*
X100978213Y-144142707D01*
X100978210Y-144142711D01*
X100890609Y-144273814D01*
X100890602Y-144273827D01*
X100830264Y-144419498D01*
X100830261Y-144419510D01*
X100799500Y-144574153D01*
X100799500Y-144731846D01*
X100830261Y-144886489D01*
X100830264Y-144886501D01*
X100890602Y-145032172D01*
X100890609Y-145032185D01*
X100978210Y-145163288D01*
X100978213Y-145163292D01*
X101089707Y-145274786D01*
X101089711Y-145274789D01*
X101220814Y-145362390D01*
X101220827Y-145362397D01*
X101280887Y-145387274D01*
X101366503Y-145422737D01*
X101477716Y-145444858D01*
X101539623Y-145477241D01*
X101541203Y-145478793D01*
X101876139Y-145813729D01*
X101876142Y-145813733D01*
X101963267Y-145900858D01*
X102009475Y-145931733D01*
X102065715Y-145969312D01*
X102132396Y-145996931D01*
X102132398Y-145996933D01*
X102162129Y-146009247D01*
X102179548Y-146016463D01*
X102300394Y-146040500D01*
X102300396Y-146040500D01*
X105217607Y-146040500D01*
X105279298Y-146028229D01*
X105338452Y-146016463D01*
X105371792Y-146002652D01*
X105452286Y-145969312D01*
X105522502Y-145922394D01*
X105554733Y-145900858D01*
X105641858Y-145813733D01*
X105641859Y-145813731D01*
X105648925Y-145806665D01*
X105648927Y-145806661D01*
X108261216Y-143194373D01*
X108322537Y-143160890D01*
X108392229Y-143165874D01*
X108448162Y-143207746D01*
X108472579Y-143273210D01*
X108470512Y-143306247D01*
X108467500Y-143321388D01*
X108467500Y-143856650D01*
X108447815Y-143923689D01*
X108446626Y-143925503D01*
X108434534Y-143943602D01*
X108383609Y-144019815D01*
X108383602Y-144019828D01*
X108323264Y-144165498D01*
X108323261Y-144165510D01*
X108292500Y-144320153D01*
X108292500Y-144477846D01*
X108323261Y-144632489D01*
X108323264Y-144632501D01*
X108383602Y-144778172D01*
X108383609Y-144778185D01*
X108471210Y-144909288D01*
X108471213Y-144909292D01*
X108582707Y-145020786D01*
X108582711Y-145020789D01*
X108713814Y-145108390D01*
X108713827Y-145108397D01*
X108852951Y-145166023D01*
X108859503Y-145168737D01*
X108971783Y-145191071D01*
X109014153Y-145199499D01*
X109014156Y-145199500D01*
X109014158Y-145199500D01*
X109171844Y-145199500D01*
X109171845Y-145199499D01*
X109326497Y-145168737D01*
X109461431Y-145112846D01*
X109472172Y-145108397D01*
X109472172Y-145108396D01*
X109472179Y-145108394D01*
X109595610Y-145025919D01*
X109662286Y-145005042D01*
X109729666Y-145023526D01*
X109733366Y-145025904D01*
X109856821Y-145108394D01*
X109856823Y-145108395D01*
X109856827Y-145108397D01*
X109995951Y-145166023D01*
X110002503Y-145168737D01*
X110114783Y-145191071D01*
X110157153Y-145199499D01*
X110157156Y-145199500D01*
X110157158Y-145199500D01*
X110314844Y-145199500D01*
X110314845Y-145199499D01*
X110469497Y-145168737D01*
X110604431Y-145112846D01*
X110615172Y-145108397D01*
X110615172Y-145108396D01*
X110615179Y-145108394D01*
X110746289Y-145020789D01*
X110762036Y-145005042D01*
X110783319Y-144983760D01*
X110844642Y-144950275D01*
X110914334Y-144955259D01*
X110958681Y-144983760D01*
X110995707Y-145020786D01*
X110995711Y-145020789D01*
X111126814Y-145108390D01*
X111126827Y-145108397D01*
X111265951Y-145166023D01*
X111272503Y-145168737D01*
X111384783Y-145191071D01*
X111427153Y-145199499D01*
X111427156Y-145199500D01*
X111427158Y-145199500D01*
X111584844Y-145199500D01*
X111584845Y-145199499D01*
X111739497Y-145168737D01*
X111874431Y-145112846D01*
X111885172Y-145108397D01*
X111885172Y-145108396D01*
X111885179Y-145108394D01*
X112016289Y-145020789D01*
X112032036Y-145005042D01*
X112053319Y-144983760D01*
X112114642Y-144950275D01*
X112184334Y-144955259D01*
X112228681Y-144983760D01*
X112265707Y-145020786D01*
X112265711Y-145020789D01*
X112396814Y-145108390D01*
X112396827Y-145108397D01*
X112535951Y-145166023D01*
X112542503Y-145168737D01*
X112654783Y-145191071D01*
X112697153Y-145199499D01*
X112697156Y-145199500D01*
X112697158Y-145199500D01*
X112854844Y-145199500D01*
X112854845Y-145199499D01*
X113009497Y-145168737D01*
X113144431Y-145112846D01*
X113155172Y-145108397D01*
X113155172Y-145108396D01*
X113155179Y-145108394D01*
X113286289Y-145020789D01*
X113397789Y-144909289D01*
X113485394Y-144778179D01*
X113485395Y-144778177D01*
X113487462Y-144774310D01*
X113536421Y-144724463D01*
X113604558Y-144708999D01*
X113661132Y-144728107D01*
X113661446Y-144727521D01*
X113664965Y-144729402D01*
X113665714Y-144729655D01*
X113666814Y-144730390D01*
X113666827Y-144730397D01*
X113810456Y-144789889D01*
X113812503Y-144790737D01*
X113967153Y-144821499D01*
X113967156Y-144821500D01*
X113967158Y-144821500D01*
X114124844Y-144821500D01*
X114124845Y-144821499D01*
X114279497Y-144790737D01*
X114404270Y-144739054D01*
X114473736Y-144731586D01*
X114536216Y-144762861D01*
X114566281Y-144806164D01*
X114604160Y-144897614D01*
X114604167Y-144897627D01*
X114691768Y-145028730D01*
X114691771Y-145028734D01*
X114803265Y-145140228D01*
X114803269Y-145140231D01*
X114934372Y-145227832D01*
X114934385Y-145227839D01*
X115047727Y-145274786D01*
X115080061Y-145288179D01*
X115234711Y-145318941D01*
X115234714Y-145318942D01*
X115234716Y-145318942D01*
X115392402Y-145318942D01*
X115392403Y-145318941D01*
X115547055Y-145288179D01*
X115692737Y-145227836D01*
X115692740Y-145227833D01*
X115693744Y-145227418D01*
X115763213Y-145219949D01*
X115825693Y-145251224D01*
X115844299Y-145273088D01*
X115893210Y-145346288D01*
X115893213Y-145346292D01*
X116004707Y-145457786D01*
X116004711Y-145457789D01*
X116135814Y-145545390D01*
X116135827Y-145545397D01*
X116281498Y-145605735D01*
X116281503Y-145605737D01*
X116397413Y-145628793D01*
X116436153Y-145636499D01*
X116436156Y-145636500D01*
X116436158Y-145636500D01*
X116593844Y-145636500D01*
X116593845Y-145636499D01*
X116748497Y-145605737D01*
X116894179Y-145545394D01*
X117025289Y-145457789D01*
X117062318Y-145420759D01*
X117123638Y-145387274D01*
X117193330Y-145392257D01*
X117237680Y-145420759D01*
X117254707Y-145437786D01*
X117254711Y-145437789D01*
X117385814Y-145525390D01*
X117385827Y-145525397D01*
X117527988Y-145584281D01*
X117531503Y-145585737D01*
X117680241Y-145615323D01*
X117686153Y-145616499D01*
X117686156Y-145616500D01*
X117686158Y-145616500D01*
X117843844Y-145616500D01*
X117843845Y-145616499D01*
X117998497Y-145585737D01*
X118111166Y-145539067D01*
X118144172Y-145525397D01*
X118144172Y-145525396D01*
X118144179Y-145525394D01*
X118275289Y-145437789D01*
X118386789Y-145326289D01*
X118474394Y-145195179D01*
X118474395Y-145195176D01*
X118474397Y-145195173D01*
X118497230Y-145140048D01*
X118541070Y-145085644D01*
X118607364Y-145063579D01*
X118611791Y-145063500D01*
X119600580Y-145063500D01*
X119630020Y-145072144D01*
X119660007Y-145078668D01*
X119665022Y-145082422D01*
X119667619Y-145083185D01*
X119688261Y-145099819D01*
X119737048Y-145148606D01*
X119737077Y-145148637D01*
X119827295Y-145238855D01*
X119827299Y-145238858D01*
X119929739Y-145307307D01*
X119929748Y-145307312D01*
X119940846Y-145311909D01*
X120043580Y-145354463D01*
X120073550Y-145360424D01*
X120100590Y-145365803D01*
X120100610Y-145365806D01*
X120100632Y-145365811D01*
X120164423Y-145378499D01*
X120164424Y-145378500D01*
X120164425Y-145378500D01*
X126961608Y-145378500D01*
X126961608Y-145378499D01*
X127025400Y-145365811D01*
X127082452Y-145354463D01*
X127117974Y-145339749D01*
X127196286Y-145307312D01*
X127205984Y-145300831D01*
X127272657Y-145279952D01*
X127340038Y-145298434D01*
X127386730Y-145350410D01*
X127396493Y-145379739D01*
X127402518Y-145410029D01*
X127414537Y-145470452D01*
X127414538Y-145470454D01*
X127414538Y-145470456D01*
X127422383Y-145489395D01*
X127461685Y-145584281D01*
X127461687Y-145584284D01*
X127461688Y-145584286D01*
X127495884Y-145635463D01*
X127530142Y-145686733D01*
X127617267Y-145773858D01*
X127617270Y-145773860D01*
X127624565Y-145781155D01*
X130027016Y-148183606D01*
X130027045Y-148183637D01*
X130117264Y-148273856D01*
X130117267Y-148273858D01*
X130194190Y-148325256D01*
X130219715Y-148342312D01*
X130286397Y-148369932D01*
X130290185Y-148371501D01*
X130290193Y-148371505D01*
X130327427Y-148386927D01*
X130333548Y-148389463D01*
X130393971Y-148401481D01*
X130454393Y-148413500D01*
X150715130Y-148413500D01*
X150775552Y-148401481D01*
X150835975Y-148389463D01*
X150869315Y-148375652D01*
X150949809Y-148342312D01*
X151001032Y-148308084D01*
X151052256Y-148273858D01*
X151139381Y-148186733D01*
X151139382Y-148186731D01*
X151146448Y-148179665D01*
X151146451Y-148179661D01*
X153710787Y-145615325D01*
X153710791Y-145615323D01*
X153797916Y-145528198D01*
X153866369Y-145425751D01*
X153913521Y-145311917D01*
X153930246Y-145227836D01*
X153930710Y-145225502D01*
X153937558Y-145191071D01*
X153937558Y-144918292D01*
X153957243Y-144851253D01*
X153958456Y-144849401D01*
X153977099Y-144821500D01*
X154021452Y-144755121D01*
X154081795Y-144609439D01*
X154112558Y-144454784D01*
X154112558Y-144297100D01*
X154112558Y-144297097D01*
X154112557Y-144297095D01*
X154111092Y-144289730D01*
X154081795Y-144142445D01*
X154035721Y-144031211D01*
X154021455Y-143996769D01*
X154021448Y-143996756D01*
X153933847Y-143865653D01*
X153933844Y-143865649D01*
X153822350Y-143754155D01*
X153822346Y-143754152D01*
X153691243Y-143666551D01*
X153691230Y-143666544D01*
X153545559Y-143606206D01*
X153545547Y-143606203D01*
X153390903Y-143575442D01*
X153390900Y-143575442D01*
X153233216Y-143575442D01*
X153233213Y-143575442D01*
X153078568Y-143606203D01*
X153078556Y-143606206D01*
X152932885Y-143666544D01*
X152932872Y-143666551D01*
X152801769Y-143754152D01*
X152801765Y-143754155D01*
X152690271Y-143865649D01*
X152690268Y-143865653D01*
X152602667Y-143996756D01*
X152602660Y-143996769D01*
X152542322Y-144142440D01*
X152542319Y-144142452D01*
X152511558Y-144297095D01*
X152511558Y-144454788D01*
X152542319Y-144609431D01*
X152542322Y-144609443D01*
X152602662Y-144755119D01*
X152602663Y-144755121D01*
X152625894Y-144789889D01*
X152646771Y-144856567D01*
X152628285Y-144923946D01*
X152610472Y-144946459D01*
X150430752Y-147126181D01*
X150369429Y-147159666D01*
X150343071Y-147162500D01*
X150065990Y-147162500D01*
X149998951Y-147142815D01*
X149953196Y-147090011D01*
X149943252Y-147020853D01*
X149972277Y-146957297D01*
X149978309Y-146950819D01*
X150682857Y-146246272D01*
X150703727Y-146215039D01*
X150751311Y-146143824D01*
X150798463Y-146029990D01*
X150810532Y-145969313D01*
X150818007Y-145931737D01*
X150818007Y-145931733D01*
X150822500Y-145909145D01*
X150822500Y-145785932D01*
X150822500Y-128178500D01*
X150842185Y-128111461D01*
X150894989Y-128065706D01*
X150946500Y-128054500D01*
X150954844Y-128054500D01*
X150954845Y-128054499D01*
X151109497Y-128023737D01*
X151255179Y-127963394D01*
X151386289Y-127875789D01*
X151417828Y-127844250D01*
X151479150Y-127810764D01*
X151548842Y-127815748D01*
X151604776Y-127857618D01*
X151627126Y-127907733D01*
X151630260Y-127923488D01*
X151630264Y-127923501D01*
X151690602Y-128069172D01*
X151690609Y-128069184D01*
X151753602Y-128163459D01*
X151774480Y-128230136D01*
X151774500Y-128232350D01*
X151774500Y-128331606D01*
X151786495Y-128391910D01*
X151798537Y-128452454D01*
X151800183Y-128456426D01*
X151801722Y-128460140D01*
X151845688Y-128566286D01*
X151873545Y-128607975D01*
X151878093Y-128614781D01*
X151914143Y-128668735D01*
X152005586Y-128760178D01*
X152005608Y-128760198D01*
X152754181Y-129508771D01*
X152787666Y-129570094D01*
X152790500Y-129596452D01*
X152790500Y-140681650D01*
X152770815Y-140748689D01*
X152769602Y-140750541D01*
X152706609Y-140844815D01*
X152706602Y-140844828D01*
X152646264Y-140990498D01*
X152646261Y-140990510D01*
X152615500Y-141145153D01*
X152615500Y-141302846D01*
X152646261Y-141457489D01*
X152646264Y-141457501D01*
X152706602Y-141603172D01*
X152706609Y-141603185D01*
X152794210Y-141734288D01*
X152794213Y-141734292D01*
X152905707Y-141845786D01*
X152905711Y-141845789D01*
X153036814Y-141933390D01*
X153036827Y-141933397D01*
X153182498Y-141993735D01*
X153182503Y-141993737D01*
X153337153Y-142024499D01*
X153337156Y-142024500D01*
X153337158Y-142024500D01*
X153494844Y-142024500D01*
X153494845Y-142024499D01*
X153649497Y-141993737D01*
X153779081Y-141940062D01*
X153795172Y-141933397D01*
X153795172Y-141933396D01*
X153795179Y-141933394D01*
X153926289Y-141845789D01*
X154037789Y-141734289D01*
X154125394Y-141603179D01*
X154185737Y-141457497D01*
X154216500Y-141302842D01*
X154216500Y-141145158D01*
X154216500Y-141145155D01*
X154216499Y-141145153D01*
X154212090Y-141122989D01*
X154185737Y-140990503D01*
X154155866Y-140918387D01*
X154125397Y-140844828D01*
X154125396Y-140844827D01*
X154125394Y-140844821D01*
X154062397Y-140750539D01*
X154041520Y-140683863D01*
X154041500Y-140681650D01*
X154041500Y-137443440D01*
X154061185Y-137376401D01*
X154113989Y-137330646D01*
X154183147Y-137320702D01*
X154246703Y-137349727D01*
X154284477Y-137408505D01*
X154288902Y-137431282D01*
X154294398Y-137487076D01*
X154325196Y-137799780D01*
X154325199Y-137799797D01*
X154398233Y-138166971D01*
X154398237Y-138166983D01*
X154398239Y-138166992D01*
X154401466Y-138177630D01*
X154415121Y-138222649D01*
X154415122Y-138222649D01*
X154416115Y-138225925D01*
X154416297Y-138226777D01*
X154417461Y-138230358D01*
X154417813Y-138231519D01*
X154417813Y-138231520D01*
X154430567Y-138273565D01*
X154506919Y-138525265D01*
X154506922Y-138525272D01*
X154534569Y-138592020D01*
X154534570Y-138592020D01*
X154536434Y-138596521D01*
X154539618Y-138606319D01*
X154552182Y-138634540D01*
X154650195Y-138871163D01*
X154692845Y-138950956D01*
X154694132Y-138953364D01*
X154701936Y-138970891D01*
X154723007Y-139007388D01*
X154723984Y-139009215D01*
X154723987Y-139009220D01*
X154826677Y-139201339D01*
X154826694Y-139201367D01*
X154885536Y-139289431D01*
X154885537Y-139289431D01*
X154887797Y-139292814D01*
X154901472Y-139316499D01*
X154928250Y-139353356D01*
X154929602Y-139355379D01*
X154929611Y-139355392D01*
X155034681Y-139512640D01*
X155034689Y-139512652D01*
X155113422Y-139608589D01*
X155115744Y-139611418D01*
X155136042Y-139639356D01*
X155165750Y-139672351D01*
X155167562Y-139674558D01*
X155254660Y-139780688D01*
X155272201Y-139802061D01*
X155373726Y-139903586D01*
X155376025Y-139905885D01*
X155403074Y-139935926D01*
X155433114Y-139962974D01*
X155489534Y-140019394D01*
X155536939Y-140066799D01*
X155664464Y-140171456D01*
X155666647Y-140173248D01*
X155699644Y-140202958D01*
X155727588Y-140223260D01*
X155826351Y-140304313D01*
X155985637Y-140410745D01*
X156022501Y-140437528D01*
X156046182Y-140451199D01*
X156137649Y-140512316D01*
X156137658Y-140512321D01*
X156137660Y-140512322D01*
X156329787Y-140615016D01*
X156331587Y-140615978D01*
X156368109Y-140637064D01*
X156385633Y-140644866D01*
X156389569Y-140646970D01*
X156467829Y-140688801D01*
X156467831Y-140688801D01*
X156467837Y-140688805D01*
X156704420Y-140786801D01*
X156704459Y-140786817D01*
X156732681Y-140799382D01*
X156742476Y-140802564D01*
X156813733Y-140832080D01*
X157108643Y-140921539D01*
X157112223Y-140922703D01*
X157113074Y-140922883D01*
X157172008Y-140940761D01*
X157539209Y-141013802D01*
X157911802Y-141050500D01*
X158098793Y-141050500D01*
X160260500Y-141050500D01*
X160327539Y-141070185D01*
X160373294Y-141122989D01*
X160384500Y-141174500D01*
X160384500Y-151085500D01*
X160364815Y-151152539D01*
X160312011Y-151198294D01*
X160260500Y-151209500D01*
X98914500Y-151209500D01*
X98847461Y-151189815D01*
X98801706Y-151137011D01*
X98790500Y-151085500D01*
X98790500Y-141174500D01*
X98810185Y-141107461D01*
X98862989Y-141061706D01*
X98914500Y-141050500D01*
X101263195Y-141050500D01*
X101263198Y-141050500D01*
X101635791Y-141013802D01*
X102002992Y-140940761D01*
X102061933Y-140922881D01*
X102062777Y-140922703D01*
X102066338Y-140921545D01*
X102361267Y-140832080D01*
X102432526Y-140802563D01*
X102442319Y-140799382D01*
X102470507Y-140786830D01*
X102707163Y-140688805D01*
X102789378Y-140644860D01*
X102806891Y-140637064D01*
X102843398Y-140615985D01*
X103037351Y-140512316D01*
X103128824Y-140451195D01*
X103152499Y-140437528D01*
X103189344Y-140410756D01*
X103348649Y-140304313D01*
X103447423Y-140223250D01*
X103475356Y-140202958D01*
X103508338Y-140173259D01*
X103638061Y-140066799D01*
X103741895Y-139962964D01*
X103771926Y-139935926D01*
X103798964Y-139905895D01*
X103902799Y-139802061D01*
X104009259Y-139672338D01*
X104038958Y-139639356D01*
X104059255Y-139611418D01*
X104140313Y-139512649D01*
X104246756Y-139353344D01*
X104273528Y-139316499D01*
X104287195Y-139292824D01*
X104348316Y-139201351D01*
X104451984Y-139007400D01*
X104473064Y-138970891D01*
X104480860Y-138953378D01*
X104524805Y-138871163D01*
X104622830Y-138634507D01*
X104635382Y-138606319D01*
X104638563Y-138596526D01*
X104668080Y-138525267D01*
X104757545Y-138230338D01*
X104758703Y-138226777D01*
X104758881Y-138225933D01*
X104776761Y-138166992D01*
X104849802Y-137799791D01*
X104886500Y-137427198D01*
X104886500Y-137240000D01*
X104886500Y-137239500D01*
X104886500Y-137052802D01*
X104849802Y-136680209D01*
X104776761Y-136313008D01*
X104758884Y-136254077D01*
X104758703Y-136253223D01*
X104757544Y-136249658D01*
X104668080Y-135954733D01*
X104638561Y-135883469D01*
X104635382Y-135873681D01*
X104622832Y-135845496D01*
X104524805Y-135608837D01*
X104511376Y-135583714D01*
X104482970Y-135530569D01*
X104480866Y-135526633D01*
X104473064Y-135509109D01*
X104451978Y-135472587D01*
X104451016Y-135470787D01*
X104348322Y-135278660D01*
X104348321Y-135278658D01*
X104348316Y-135278649D01*
X104287197Y-135187179D01*
X104273528Y-135163501D01*
X104246741Y-135126631D01*
X104140313Y-134967351D01*
X104059260Y-134868588D01*
X104038958Y-134840644D01*
X104009248Y-134807647D01*
X104007456Y-134805464D01*
X104007455Y-134805463D01*
X104003965Y-134801211D01*
X103902799Y-134677939D01*
X103798974Y-134574114D01*
X103771926Y-134544074D01*
X103741885Y-134517025D01*
X103739604Y-134514744D01*
X103638061Y-134413201D01*
X103588945Y-134372893D01*
X103510558Y-134308562D01*
X103508351Y-134306750D01*
X103475356Y-134277042D01*
X103447418Y-134256744D01*
X103444589Y-134254422D01*
X103444588Y-134254421D01*
X103348650Y-134175688D01*
X103348644Y-134175684D01*
X103198077Y-134075078D01*
X103191392Y-134070611D01*
X103189361Y-134069254D01*
X103152499Y-134042472D01*
X103128814Y-134028797D01*
X103125431Y-134026537D01*
X103125428Y-134026534D01*
X103037367Y-133967694D01*
X103037339Y-133967677D01*
X102845220Y-133864987D01*
X102845220Y-133864986D01*
X102843373Y-133863998D01*
X102806891Y-133842936D01*
X102789368Y-133835134D01*
X102785433Y-133833031D01*
X102785430Y-133833030D01*
X102707163Y-133791195D01*
X102531944Y-133718617D01*
X102472031Y-133693800D01*
X102471297Y-133693496D01*
X102470540Y-133693182D01*
X102442319Y-133680618D01*
X102432521Y-133677434D01*
X102428020Y-133675570D01*
X102428017Y-133675568D01*
X102361272Y-133647922D01*
X102361271Y-133647921D01*
X102361267Y-133647920D01*
X102169964Y-133589889D01*
X102067520Y-133558813D01*
X102066356Y-133558460D01*
X102062777Y-133557297D01*
X102061926Y-133557116D01*
X102058649Y-133556122D01*
X102058647Y-133556120D01*
X102002994Y-133539239D01*
X102002971Y-133539233D01*
X101635797Y-133466199D01*
X101635780Y-133466196D01*
X101354025Y-133438445D01*
X101263198Y-133429500D01*
X101263195Y-133429500D01*
X98914500Y-133429500D01*
X98847461Y-133409815D01*
X98801706Y-133357011D01*
X98790500Y-133305500D01*
X98790500Y-117980001D01*
X100472498Y-117980001D01*
X100473938Y-117995077D01*
X100474500Y-118006867D01*
X100474500Y-118066615D01*
X100489684Y-118162482D01*
X100489684Y-118162483D01*
X100490286Y-118166288D01*
X100492422Y-118188650D01*
X100495474Y-118199046D01*
X100496723Y-118206929D01*
X100496725Y-118206937D01*
X100501597Y-118237699D01*
X100514412Y-118277138D01*
X100555127Y-118402445D01*
X100633768Y-118556788D01*
X100635961Y-118559806D01*
X100643498Y-118570180D01*
X100646898Y-118574860D01*
X100647516Y-118576058D01*
X100650831Y-118580273D01*
X100735586Y-118696928D01*
X100735588Y-118696930D01*
X100768285Y-118729627D01*
X100777082Y-118740813D01*
X100794978Y-118756320D01*
X100858075Y-118819417D01*
X100913946Y-118860009D01*
X100918246Y-118863133D01*
X100935486Y-118878072D01*
X100951658Y-118887408D01*
X100998212Y-118921232D01*
X101100610Y-118973405D01*
X101117004Y-118982871D01*
X101123807Y-118985225D01*
X101152555Y-118999873D01*
X101317299Y-119053402D01*
X101488389Y-119080500D01*
X101488390Y-119080500D01*
X101517304Y-119080500D01*
X101522541Y-119081253D01*
X101538349Y-119080500D01*
X101661607Y-119080500D01*
X101661611Y-119080500D01*
X101714632Y-119072102D01*
X101731902Y-119071280D01*
X101754609Y-119065770D01*
X101832701Y-119053402D01*
X101912579Y-119027447D01*
X101935593Y-119021865D01*
X101949968Y-119015299D01*
X101997445Y-118999873D01*
X102115837Y-118939549D01*
X102126251Y-118934795D01*
X102128967Y-118932859D01*
X102151788Y-118921232D01*
X102291928Y-118819414D01*
X102414414Y-118696928D01*
X102435383Y-118668065D01*
X102441625Y-118661522D01*
X102453013Y-118643801D01*
X102516232Y-118556788D01*
X102544167Y-118501961D01*
X102554943Y-118485196D01*
X102563130Y-118464743D01*
X102594873Y-118402445D01*
X102624179Y-118312250D01*
X102632843Y-118290611D01*
X102635222Y-118278263D01*
X102648402Y-118237701D01*
X102675500Y-118066611D01*
X102675500Y-117893389D01*
X102648402Y-117722299D01*
X102635223Y-117681739D01*
X102632843Y-117669389D01*
X102624179Y-117647749D01*
X102594873Y-117557555D01*
X102563130Y-117495256D01*
X102554943Y-117474804D01*
X102544163Y-117458030D01*
X102516232Y-117403212D01*
X102453010Y-117316195D01*
X102441625Y-117298478D01*
X102435377Y-117291925D01*
X102430514Y-117285232D01*
X102414414Y-117263072D01*
X102291928Y-117140586D01*
X102231727Y-117096847D01*
X102151792Y-117038770D01*
X102151784Y-117038766D01*
X102137141Y-117031305D01*
X102128970Y-117027141D01*
X102126251Y-117025205D01*
X102115836Y-117020448D01*
X102113468Y-117019242D01*
X102113450Y-117019234D01*
X101997449Y-116960128D01*
X101956718Y-116946894D01*
X101956718Y-116946893D01*
X101949968Y-116944699D01*
X101935593Y-116938135D01*
X101912580Y-116932552D01*
X101908074Y-116931088D01*
X101832706Y-116906599D01*
X101832698Y-116906597D01*
X101759583Y-116895015D01*
X101759583Y-116895016D01*
X101754604Y-116894227D01*
X101731902Y-116888720D01*
X101714630Y-116887897D01*
X101707916Y-116886834D01*
X101707914Y-116886833D01*
X101707912Y-116886833D01*
X101661615Y-116879500D01*
X101661611Y-116879500D01*
X101538349Y-116879500D01*
X101522541Y-116878747D01*
X101517304Y-116879500D01*
X101488389Y-116879500D01*
X101460678Y-116883889D01*
X101317301Y-116906597D01*
X101152561Y-116960124D01*
X101152545Y-116960131D01*
X101131438Y-116970883D01*
X101131439Y-116970884D01*
X101123797Y-116974777D01*
X101117004Y-116977129D01*
X101100626Y-116986584D01*
X101097721Y-116988065D01*
X101097719Y-116988065D01*
X100998214Y-117038766D01*
X100956913Y-117068772D01*
X100956912Y-117068771D01*
X100951638Y-117072602D01*
X100935486Y-117081928D01*
X100918268Y-117096847D01*
X100913951Y-117099984D01*
X100913945Y-117099990D01*
X100858071Y-117140586D01*
X100798103Y-117200553D01*
X100798102Y-117200552D01*
X100794949Y-117203704D01*
X100777082Y-117219187D01*
X100768297Y-117230357D01*
X100763070Y-117235585D01*
X100735591Y-117263066D01*
X100735585Y-117263073D01*
X100652212Y-117377821D01*
X100652213Y-117377822D01*
X100650808Y-117379754D01*
X100647516Y-117383942D01*
X100646902Y-117385132D01*
X100643507Y-117389806D01*
X100643504Y-117389808D01*
X100633771Y-117403205D01*
X100555128Y-117557552D01*
X100501597Y-117722301D01*
X100496725Y-117753063D01*
X100496725Y-117753065D01*
X100495476Y-117760948D01*
X100492422Y-117771350D01*
X100490288Y-117793697D01*
X100489685Y-117797504D01*
X100489684Y-117797516D01*
X100474500Y-117893389D01*
X100474500Y-117953123D01*
X100473939Y-117964908D01*
X100472498Y-117980001D01*
X98790500Y-117980001D01*
X98790500Y-114504500D01*
X98810185Y-114437461D01*
X98862989Y-114391706D01*
X98914500Y-114380500D01*
X160260500Y-114380500D01*
X160327539Y-114400185D01*
G37*
%TD.AperFunction*%
%TA.AperFunction,Conductor*%
G36*
X111356587Y-125045185D02*
G01*
X111377229Y-125061819D01*
X113039263Y-126723855D01*
X113039267Y-126723858D01*
X113141710Y-126792309D01*
X113141711Y-126792309D01*
X113141715Y-126792312D01*
X113202641Y-126817548D01*
X113255548Y-126839463D01*
X113275597Y-126843451D01*
X113344611Y-126857179D01*
X113376392Y-126863501D01*
X113376394Y-126863501D01*
X113505721Y-126863501D01*
X113505741Y-126863500D01*
X123150140Y-126863500D01*
X123217179Y-126883185D01*
X123219028Y-126884396D01*
X123308821Y-126944394D01*
X123308823Y-126944395D01*
X123308827Y-126944397D01*
X123367470Y-126968687D01*
X123454503Y-127004737D01*
X123565716Y-127026858D01*
X123582470Y-127035622D01*
X123600949Y-127039642D01*
X123625985Y-127058384D01*
X123627623Y-127059241D01*
X123629203Y-127060793D01*
X123710016Y-127141606D01*
X123710045Y-127141637D01*
X123800263Y-127231855D01*
X123800266Y-127231857D01*
X123800267Y-127231858D01*
X123831232Y-127252548D01*
X123902714Y-127300312D01*
X123963643Y-127325549D01*
X124016548Y-127347463D01*
X124023833Y-127348912D01*
X124060232Y-127356153D01*
X124060262Y-127356158D01*
X124137390Y-127371499D01*
X124137392Y-127371500D01*
X124137393Y-127371500D01*
X124137394Y-127371500D01*
X139664500Y-127371500D01*
X139731539Y-127391185D01*
X139777294Y-127443989D01*
X139788500Y-127495500D01*
X139788500Y-127513846D01*
X139819261Y-127668489D01*
X139819264Y-127668501D01*
X139879602Y-127814172D01*
X139879609Y-127814184D01*
X139942602Y-127908459D01*
X139963480Y-127975136D01*
X139963500Y-127977350D01*
X139963500Y-135738059D01*
X139943815Y-135805098D01*
X139891011Y-135850853D01*
X139821853Y-135860797D01*
X139815311Y-135859677D01*
X139779996Y-135852653D01*
X139779995Y-135852653D01*
X139622311Y-135852653D01*
X139622308Y-135852653D01*
X139467663Y-135883414D01*
X139467651Y-135883417D01*
X139321980Y-135943755D01*
X139321967Y-135943762D01*
X139190864Y-136031363D01*
X139190860Y-136031366D01*
X139079366Y-136142860D01*
X139079363Y-136142864D01*
X138991762Y-136273967D01*
X138991755Y-136273980D01*
X138931417Y-136419651D01*
X138931414Y-136419661D01*
X138909294Y-136530867D01*
X138876909Y-136592778D01*
X138875358Y-136594356D01*
X138383051Y-137086663D01*
X138321728Y-137120148D01*
X138252036Y-137115164D01*
X138196103Y-137073292D01*
X138180809Y-137046434D01*
X138123397Y-136907827D01*
X138123390Y-136907814D01*
X138035789Y-136776711D01*
X138035786Y-136776707D01*
X137924292Y-136665213D01*
X137924288Y-136665210D01*
X137793185Y-136577609D01*
X137793172Y-136577602D01*
X137647501Y-136517264D01*
X137647489Y-136517261D01*
X137492845Y-136486500D01*
X137492842Y-136486500D01*
X137335158Y-136486500D01*
X137335155Y-136486500D01*
X137180510Y-136517261D01*
X137180498Y-136517264D01*
X137034827Y-136577602D01*
X137034815Y-136577609D01*
X136940541Y-136640602D01*
X136873864Y-136661480D01*
X136871650Y-136661500D01*
X133669389Y-136661500D01*
X133613975Y-136672522D01*
X133613966Y-136672524D01*
X133608971Y-136673518D01*
X133548548Y-136685537D01*
X133510761Y-136701189D01*
X133504213Y-136703900D01*
X133504203Y-136703904D01*
X133434719Y-136732685D01*
X133434712Y-136732689D01*
X133419452Y-136742885D01*
X133419453Y-136742886D01*
X133332268Y-136801140D01*
X133288705Y-136844703D01*
X133245142Y-136888267D01*
X133245139Y-136888270D01*
X131603229Y-138530181D01*
X131541906Y-138563666D01*
X131515548Y-138566500D01*
X122103452Y-138566500D01*
X122036413Y-138546815D01*
X122015771Y-138530181D01*
X121618771Y-138133181D01*
X121585286Y-138071858D01*
X121590270Y-138002166D01*
X121632142Y-137946233D01*
X121697606Y-137921816D01*
X121706452Y-137921500D01*
X122634547Y-137921500D01*
X122701586Y-137941185D01*
X122722228Y-137957819D01*
X122909263Y-138144855D01*
X122909267Y-138144858D01*
X123011710Y-138213309D01*
X123011711Y-138213309D01*
X123011715Y-138213312D01*
X123078397Y-138240932D01*
X123125548Y-138260463D01*
X123145597Y-138264451D01*
X123210624Y-138277385D01*
X123246392Y-138284501D01*
X123246394Y-138284501D01*
X123375721Y-138284501D01*
X123375741Y-138284500D01*
X130114607Y-138284500D01*
X130175029Y-138272481D01*
X130235452Y-138260463D01*
X130281491Y-138241393D01*
X130349286Y-138213312D01*
X130418607Y-138166992D01*
X130451733Y-138144858D01*
X130487895Y-138108694D01*
X130492338Y-138105012D01*
X130519330Y-138093389D01*
X130545116Y-138079309D01*
X130547117Y-138078891D01*
X130658497Y-138056737D01*
X130790244Y-138002166D01*
X130804172Y-137996397D01*
X130804172Y-137996396D01*
X130804179Y-137996394D01*
X130935289Y-137908789D01*
X131046789Y-137797289D01*
X131134394Y-137666179D01*
X131194737Y-137520497D01*
X131225500Y-137365842D01*
X131225500Y-137208158D01*
X131225500Y-137208155D01*
X131225499Y-137208153D01*
X131208334Y-137121861D01*
X131194737Y-137053503D01*
X131187719Y-137036559D01*
X131134397Y-136907827D01*
X131134390Y-136907814D01*
X131046789Y-136776711D01*
X131046786Y-136776707D01*
X130950362Y-136680283D01*
X130916877Y-136618960D01*
X130921861Y-136549268D01*
X130950360Y-136504923D01*
X132654074Y-134801211D01*
X132715397Y-134767726D01*
X132741755Y-134764892D01*
X135349363Y-134764892D01*
X135416402Y-134784577D01*
X135418254Y-134785790D01*
X135512534Y-134848786D01*
X135512536Y-134848787D01*
X135512540Y-134848789D01*
X135658211Y-134909127D01*
X135658216Y-134909129D01*
X135772703Y-134931902D01*
X135812866Y-134939891D01*
X135812869Y-134939892D01*
X135812871Y-134939892D01*
X135970557Y-134939892D01*
X135970558Y-134939891D01*
X136125210Y-134909129D01*
X136270892Y-134848786D01*
X136402002Y-134761181D01*
X136513502Y-134649681D01*
X136601107Y-134518571D01*
X136661450Y-134372889D01*
X136692213Y-134218234D01*
X136692213Y-134060550D01*
X136692213Y-134060547D01*
X136692212Y-134060545D01*
X136675295Y-133975499D01*
X136661450Y-133905895D01*
X136650857Y-133880321D01*
X136607711Y-133776155D01*
X136600242Y-133706686D01*
X136607709Y-133681256D01*
X136652577Y-133572935D01*
X136683340Y-133418280D01*
X136683340Y-133260596D01*
X136683340Y-133260593D01*
X136683339Y-133260591D01*
X136652579Y-133105949D01*
X136652577Y-133105943D01*
X136652577Y-133105941D01*
X136626123Y-133042076D01*
X136618655Y-132972611D01*
X136637585Y-132925734D01*
X136641335Y-132920123D01*
X136701678Y-132774441D01*
X136732441Y-132619786D01*
X136732441Y-132462102D01*
X136732441Y-132462099D01*
X136732440Y-132462097D01*
X136712209Y-132360391D01*
X136701678Y-132307447D01*
X136691213Y-132282181D01*
X136641338Y-132161771D01*
X136641331Y-132161758D01*
X136630894Y-132146138D01*
X136610016Y-132079460D01*
X136619434Y-132029796D01*
X136659737Y-131932497D01*
X136690500Y-131777842D01*
X136690500Y-131620158D01*
X136690500Y-131620155D01*
X136690499Y-131620153D01*
X136677240Y-131553497D01*
X136659737Y-131465503D01*
X136647440Y-131435816D01*
X136599397Y-131319827D01*
X136599390Y-131319814D01*
X136511789Y-131188711D01*
X136511786Y-131188707D01*
X136400292Y-131077213D01*
X136400288Y-131077210D01*
X136269185Y-130989609D01*
X136269172Y-130989602D01*
X136123501Y-130929264D01*
X136123489Y-130929261D01*
X135968845Y-130898500D01*
X135968842Y-130898500D01*
X135811158Y-130898500D01*
X135811155Y-130898500D01*
X135656510Y-130929261D01*
X135656494Y-130929265D01*
X135642872Y-130934908D01*
X135573403Y-130942375D01*
X135510924Y-130911098D01*
X135475274Y-130851008D01*
X135477770Y-130781183D01*
X135493829Y-130752305D01*
X135492405Y-130751354D01*
X135583390Y-130615185D01*
X135583390Y-130615184D01*
X135583394Y-130615179D01*
X135643737Y-130469497D01*
X135674500Y-130314842D01*
X135674500Y-130157158D01*
X135674500Y-130157155D01*
X135674499Y-130157153D01*
X135653242Y-130050288D01*
X135643737Y-130002503D01*
X135615450Y-129934211D01*
X135583397Y-129856827D01*
X135583390Y-129856814D01*
X135495789Y-129725711D01*
X135495786Y-129725707D01*
X135384292Y-129614213D01*
X135384288Y-129614210D01*
X135253185Y-129526609D01*
X135253172Y-129526602D01*
X135107501Y-129466264D01*
X135107489Y-129466261D01*
X134952845Y-129435500D01*
X134952842Y-129435500D01*
X134795158Y-129435500D01*
X134795155Y-129435500D01*
X134640510Y-129466261D01*
X134640498Y-129466264D01*
X134494827Y-129526602D01*
X134494815Y-129526609D01*
X134400541Y-129589602D01*
X134333864Y-129610480D01*
X134331650Y-129610500D01*
X115179452Y-129610500D01*
X115112413Y-129590815D01*
X115091771Y-129574181D01*
X111188793Y-125671203D01*
X111155308Y-125609880D01*
X111154887Y-125607864D01*
X111132737Y-125496503D01*
X111103174Y-125425132D01*
X111072397Y-125350827D01*
X111072390Y-125350814D01*
X110983907Y-125218391D01*
X110980869Y-125208690D01*
X110974215Y-125201011D01*
X110970606Y-125175913D01*
X110963029Y-125151714D01*
X110965717Y-125141913D01*
X110964271Y-125131853D01*
X110974805Y-125108786D01*
X110981513Y-125084334D01*
X110989073Y-125077542D01*
X110993296Y-125068297D01*
X111014628Y-125054587D01*
X111033492Y-125037643D01*
X111045089Y-125035011D01*
X111052074Y-125030523D01*
X111087009Y-125025500D01*
X111289548Y-125025500D01*
X111356587Y-125045185D01*
G37*
%TD.AperFunction*%
%TA.AperFunction,Conductor*%
G36*
X152351884Y-117681174D02*
G01*
X152374400Y-117698990D01*
X153338181Y-118662771D01*
X153371666Y-118724094D01*
X153374500Y-118750452D01*
X153374500Y-123236393D01*
X153374500Y-123359607D01*
X153383022Y-123402451D01*
X153398537Y-123480452D01*
X153405790Y-123497961D01*
X153409276Y-123506377D01*
X153409278Y-123506385D01*
X153445685Y-123594281D01*
X153445687Y-123594285D01*
X153445688Y-123594286D01*
X153477937Y-123642548D01*
X153514142Y-123696733D01*
X153601267Y-123783858D01*
X153601268Y-123783858D01*
X153608335Y-123790925D01*
X153608334Y-123790925D01*
X153608338Y-123790928D01*
X154876205Y-125058796D01*
X154909690Y-125120119D01*
X154910141Y-125122286D01*
X154932261Y-125233489D01*
X154932264Y-125233501D01*
X154992602Y-125379172D01*
X154992609Y-125379185D01*
X155080210Y-125510288D01*
X155080213Y-125510292D01*
X155191707Y-125621786D01*
X155191711Y-125621789D01*
X155322814Y-125709390D01*
X155322827Y-125709397D01*
X155468498Y-125769735D01*
X155468503Y-125769737D01*
X155585770Y-125793063D01*
X155623153Y-125800499D01*
X155623156Y-125800500D01*
X155623158Y-125800500D01*
X155780844Y-125800500D01*
X155780845Y-125800499D01*
X155935497Y-125769737D01*
X156081179Y-125709394D01*
X156212289Y-125621789D01*
X156323789Y-125510289D01*
X156411394Y-125379179D01*
X156471737Y-125233497D01*
X156493858Y-125122282D01*
X156526240Y-125060375D01*
X156527735Y-125058853D01*
X157962079Y-123624509D01*
X158023400Y-123591026D01*
X158093092Y-123596010D01*
X158122643Y-123611874D01*
X158249004Y-123703679D01*
X158292184Y-123735051D01*
X158481588Y-123831557D01*
X158683757Y-123897246D01*
X158893713Y-123930500D01*
X158893714Y-123930500D01*
X159106286Y-123930500D01*
X159106287Y-123930500D01*
X159316243Y-123897246D01*
X159518412Y-123831557D01*
X159707816Y-123735051D01*
X159750996Y-123703679D01*
X159879786Y-123610109D01*
X159879788Y-123610106D01*
X159879792Y-123610104D01*
X160030104Y-123459792D01*
X160030106Y-123459788D01*
X160030109Y-123459786D01*
X160157915Y-123283875D01*
X160158868Y-123284567D01*
X160206577Y-123241399D01*
X160275505Y-123229971D01*
X160339670Y-123257624D01*
X160378699Y-123315576D01*
X160384500Y-123353060D01*
X160384500Y-133305500D01*
X160364815Y-133372539D01*
X160312011Y-133418294D01*
X160260500Y-133429500D01*
X158099500Y-133429500D01*
X158099000Y-133429500D01*
X157911802Y-133429500D01*
X157827800Y-133437773D01*
X157539219Y-133466196D01*
X157539202Y-133466199D01*
X157172011Y-133539237D01*
X157116338Y-133556125D01*
X157116335Y-133556126D01*
X157113062Y-133557118D01*
X157112223Y-133557297D01*
X157108697Y-133558442D01*
X157107476Y-133558813D01*
X157107474Y-133558813D01*
X156813736Y-133647918D01*
X156813732Y-133647919D01*
X156746969Y-133675571D01*
X156746970Y-133675572D01*
X156742455Y-133677442D01*
X156732681Y-133680618D01*
X156704521Y-133693155D01*
X156702992Y-133693789D01*
X156702981Y-133693794D01*
X156467844Y-133791192D01*
X156467836Y-133791195D01*
X156389574Y-133833027D01*
X156385628Y-133835135D01*
X156368109Y-133842936D01*
X156331614Y-133864006D01*
X156329796Y-133864978D01*
X156329793Y-133864980D01*
X156137652Y-133967682D01*
X156137647Y-133967685D01*
X156049573Y-134026534D01*
X156046181Y-134028800D01*
X156022501Y-134042472D01*
X155985660Y-134069238D01*
X155983618Y-134070603D01*
X155826355Y-134175684D01*
X155826349Y-134175688D01*
X155730411Y-134254421D01*
X155727570Y-134256752D01*
X155699644Y-134277042D01*
X155666666Y-134306734D01*
X155664450Y-134308554D01*
X155536933Y-134413205D01*
X155435409Y-134514728D01*
X155433084Y-134517052D01*
X155403074Y-134544074D01*
X155376052Y-134574084D01*
X155373728Y-134576409D01*
X155272205Y-134677933D01*
X155167554Y-134805450D01*
X155165734Y-134807667D01*
X155136042Y-134840644D01*
X155115761Y-134868557D01*
X155113423Y-134871407D01*
X155113421Y-134871411D01*
X155034688Y-134967349D01*
X155034684Y-134967355D01*
X154929603Y-135124616D01*
X154929604Y-135124617D01*
X154928242Y-135126654D01*
X154901472Y-135163501D01*
X154887798Y-135187184D01*
X154885535Y-135190572D01*
X154885534Y-135190573D01*
X154826685Y-135278647D01*
X154826682Y-135278652D01*
X154723980Y-135470793D01*
X154723011Y-135472605D01*
X154701936Y-135509109D01*
X154694135Y-135526629D01*
X154692027Y-135530574D01*
X154650195Y-135608836D01*
X154650192Y-135608844D01*
X154552794Y-135843981D01*
X154552793Y-135843983D01*
X154552159Y-135845512D01*
X154539618Y-135873681D01*
X154536442Y-135883454D01*
X154534574Y-135887965D01*
X154506919Y-135954732D01*
X154506918Y-135954736D01*
X154417812Y-136248475D01*
X154417813Y-136248476D01*
X154417442Y-136249697D01*
X154416297Y-136253223D01*
X154416118Y-136254062D01*
X154415126Y-136257335D01*
X154415125Y-136257338D01*
X154398237Y-136313011D01*
X154325199Y-136680202D01*
X154325196Y-136680219D01*
X154288903Y-137048713D01*
X154262742Y-137113500D01*
X154205708Y-137153859D01*
X154135907Y-137156976D01*
X154075503Y-137121861D01*
X154043672Y-137059664D01*
X154041500Y-137036559D01*
X154041500Y-129224393D01*
X154041499Y-129224389D01*
X154028855Y-129160821D01*
X154017463Y-129103548D01*
X153990901Y-129039422D01*
X153970312Y-128989714D01*
X153928985Y-128927866D01*
X153923930Y-128920301D01*
X153901856Y-128887264D01*
X153811637Y-128797045D01*
X153811606Y-128797016D01*
X153160475Y-128145885D01*
X153126990Y-128084562D01*
X153131974Y-128014870D01*
X153133595Y-128010751D01*
X153169737Y-127923497D01*
X153200500Y-127768842D01*
X153200500Y-127611158D01*
X153200500Y-127611155D01*
X153200499Y-127611153D01*
X153169737Y-127456503D01*
X153134528Y-127371500D01*
X153109397Y-127310827D01*
X153109390Y-127310814D01*
X153021789Y-127179711D01*
X153021786Y-127179707D01*
X152910292Y-127068213D01*
X152910288Y-127068210D01*
X152779185Y-126980609D01*
X152779172Y-126980602D01*
X152633501Y-126920264D01*
X152633489Y-126920261D01*
X152478845Y-126889500D01*
X152478842Y-126889500D01*
X152321158Y-126889500D01*
X152321155Y-126889500D01*
X152166510Y-126920261D01*
X152166498Y-126920264D01*
X152020827Y-126980602D01*
X152020814Y-126980609D01*
X151889711Y-127068210D01*
X151889706Y-127068214D01*
X151858169Y-127099751D01*
X151796845Y-127133236D01*
X151727154Y-127128250D01*
X151671221Y-127086378D01*
X151648872Y-127036261D01*
X151645738Y-127020508D01*
X151645737Y-127020507D01*
X151645737Y-127020503D01*
X151645125Y-127019025D01*
X151585397Y-126874827D01*
X151585390Y-126874814D01*
X151497789Y-126743711D01*
X151497786Y-126743707D01*
X151410819Y-126656740D01*
X151377334Y-126595417D01*
X151374500Y-126569059D01*
X151374500Y-126020001D01*
X156942498Y-126020001D01*
X156943938Y-126035077D01*
X156944500Y-126046867D01*
X156944500Y-126106615D01*
X156959684Y-126202482D01*
X156959684Y-126202483D01*
X156960286Y-126206288D01*
X156962422Y-126228650D01*
X156965474Y-126239046D01*
X156966723Y-126246929D01*
X156966725Y-126246937D01*
X156971597Y-126277699D01*
X156984775Y-126318255D01*
X157025127Y-126442445D01*
X157103768Y-126596788D01*
X157113498Y-126610180D01*
X157116898Y-126614860D01*
X157117516Y-126616058D01*
X157120831Y-126620273D01*
X157205586Y-126736928D01*
X157205588Y-126736930D01*
X157238285Y-126769627D01*
X157247082Y-126780813D01*
X157264978Y-126796320D01*
X157328075Y-126859417D01*
X157383946Y-126900009D01*
X157388246Y-126903133D01*
X157405486Y-126918072D01*
X157421658Y-126927408D01*
X157468212Y-126961232D01*
X157570610Y-127013405D01*
X157587004Y-127022871D01*
X157593807Y-127025225D01*
X157622555Y-127039873D01*
X157787299Y-127093402D01*
X157958389Y-127120500D01*
X157958390Y-127120500D01*
X157987304Y-127120500D01*
X157992541Y-127121253D01*
X158008349Y-127120500D01*
X158131607Y-127120500D01*
X158131611Y-127120500D01*
X158184632Y-127112102D01*
X158201902Y-127111280D01*
X158224609Y-127105770D01*
X158302701Y-127093402D01*
X158382579Y-127067447D01*
X158405593Y-127061865D01*
X158419968Y-127055299D01*
X158467445Y-127039873D01*
X158585837Y-126979549D01*
X158596251Y-126974795D01*
X158598967Y-126972859D01*
X158621788Y-126961232D01*
X158761928Y-126859414D01*
X158884414Y-126736928D01*
X158905383Y-126708065D01*
X158911625Y-126701522D01*
X158923013Y-126683801D01*
X158986232Y-126596788D01*
X159014167Y-126541961D01*
X159024943Y-126525196D01*
X159033130Y-126504743D01*
X159064873Y-126442445D01*
X159094179Y-126352250D01*
X159102843Y-126330611D01*
X159105222Y-126318263D01*
X159118402Y-126277701D01*
X159145500Y-126106611D01*
X159145500Y-125933389D01*
X159118402Y-125762299D01*
X159105223Y-125721739D01*
X159102843Y-125709389D01*
X159094179Y-125687749D01*
X159064873Y-125597555D01*
X159033130Y-125535256D01*
X159024943Y-125514804D01*
X159014163Y-125498030D01*
X158986232Y-125443212D01*
X158923010Y-125356195D01*
X158911625Y-125338478D01*
X158905377Y-125331925D01*
X158900514Y-125325232D01*
X158884414Y-125303072D01*
X158761928Y-125180586D01*
X158681687Y-125122287D01*
X158621792Y-125078770D01*
X158621784Y-125078766D01*
X158607141Y-125071305D01*
X158598970Y-125067141D01*
X158596251Y-125065205D01*
X158585836Y-125060448D01*
X158583468Y-125059242D01*
X158583450Y-125059234D01*
X158467449Y-125000128D01*
X158426718Y-124986894D01*
X158426718Y-124986893D01*
X158419968Y-124984699D01*
X158405593Y-124978135D01*
X158382580Y-124972552D01*
X158378074Y-124971088D01*
X158302706Y-124946599D01*
X158302698Y-124946597D01*
X158229583Y-124935015D01*
X158229583Y-124935016D01*
X158224604Y-124934227D01*
X158201902Y-124928720D01*
X158184630Y-124927897D01*
X158177916Y-124926834D01*
X158177914Y-124926833D01*
X158177912Y-124926833D01*
X158131615Y-124919500D01*
X158131611Y-124919500D01*
X158008349Y-124919500D01*
X157992541Y-124918747D01*
X157987304Y-124919500D01*
X157958389Y-124919500D01*
X157930678Y-124923889D01*
X157787301Y-124946597D01*
X157622561Y-125000124D01*
X157622545Y-125000131D01*
X157601438Y-125010883D01*
X157601439Y-125010884D01*
X157593797Y-125014777D01*
X157587004Y-125017129D01*
X157570626Y-125026584D01*
X157567721Y-125028065D01*
X157567719Y-125028065D01*
X157468214Y-125078766D01*
X157426913Y-125108772D01*
X157426912Y-125108771D01*
X157421638Y-125112602D01*
X157405486Y-125121928D01*
X157388268Y-125136847D01*
X157383951Y-125139984D01*
X157383945Y-125139990D01*
X157328071Y-125180586D01*
X157268103Y-125240553D01*
X157268102Y-125240552D01*
X157264949Y-125243704D01*
X157247082Y-125259187D01*
X157238297Y-125270357D01*
X157233070Y-125275585D01*
X157205591Y-125303066D01*
X157205585Y-125303073D01*
X157122212Y-125417821D01*
X157122213Y-125417822D01*
X157120808Y-125419754D01*
X157117516Y-125423942D01*
X157116902Y-125425132D01*
X157113507Y-125429806D01*
X157113504Y-125429808D01*
X157103771Y-125443205D01*
X157025128Y-125597552D01*
X156971597Y-125762301D01*
X156966725Y-125793063D01*
X156966725Y-125793065D01*
X156965476Y-125800948D01*
X156962422Y-125811350D01*
X156960288Y-125833697D01*
X156959685Y-125837504D01*
X156959684Y-125837516D01*
X156944500Y-125933389D01*
X156944500Y-125993123D01*
X156943939Y-126004908D01*
X156942498Y-126020001D01*
X151374500Y-126020001D01*
X151374500Y-124276501D01*
X151394185Y-124209462D01*
X151410815Y-124188824D01*
X152163729Y-123435910D01*
X152163733Y-123435908D01*
X152250858Y-123348783D01*
X152289139Y-123291491D01*
X152319312Y-123246336D01*
X152355508Y-123158949D01*
X152366463Y-123132502D01*
X152374463Y-123092279D01*
X152387993Y-123024266D01*
X152389384Y-123017265D01*
X152390500Y-123011657D01*
X152390500Y-122888443D01*
X152390500Y-119320741D01*
X152390501Y-119320720D01*
X152390501Y-119191391D01*
X152370304Y-119089857D01*
X152366463Y-119070548D01*
X152334885Y-118994312D01*
X152319312Y-118956715D01*
X152319311Y-118956713D01*
X152319310Y-118956711D01*
X152250858Y-118854267D01*
X152250855Y-118854263D01*
X151324164Y-117927573D01*
X151290679Y-117866250D01*
X151295663Y-117796559D01*
X151337535Y-117740625D01*
X151402999Y-117716208D01*
X151459295Y-117725330D01*
X151566503Y-117769737D01*
X151706096Y-117797504D01*
X151721153Y-117800499D01*
X151721156Y-117800500D01*
X151721158Y-117800500D01*
X151878844Y-117800500D01*
X151878845Y-117800499D01*
X152033497Y-117769737D01*
X152148023Y-117722299D01*
X152179172Y-117709397D01*
X152179172Y-117709396D01*
X152179179Y-117709394D01*
X152217828Y-117683569D01*
X152284503Y-117662691D01*
X152351884Y-117681174D01*
G37*
%TD.AperFunction*%
%TA.AperFunction,Conductor*%
G36*
X147086044Y-126154142D02*
G01*
X147087667Y-126154420D01*
X147138012Y-126164435D01*
X147146055Y-126164435D01*
X147156462Y-126166220D01*
X147219209Y-126196954D01*
X147255379Y-126256733D01*
X147259500Y-126288435D01*
X147259500Y-129638152D01*
X147239815Y-129705191D01*
X147187011Y-129750946D01*
X147159692Y-129759769D01*
X147026508Y-129786261D01*
X147026498Y-129786264D01*
X146880827Y-129846602D01*
X146880814Y-129846609D01*
X146749711Y-129934210D01*
X146749707Y-129934213D01*
X146638213Y-130045707D01*
X146638210Y-130045711D01*
X146550609Y-130176814D01*
X146550602Y-130176827D01*
X146490264Y-130322498D01*
X146490261Y-130322510D01*
X146459500Y-130477153D01*
X146459500Y-130634846D01*
X146490261Y-130789489D01*
X146490264Y-130789501D01*
X146550602Y-130935172D01*
X146550609Y-130935184D01*
X146613602Y-131029459D01*
X146634480Y-131096136D01*
X146634500Y-131098350D01*
X146634500Y-132083548D01*
X146614815Y-132150587D01*
X146598181Y-132171229D01*
X146081229Y-132688181D01*
X146019906Y-132721666D01*
X145993548Y-132724500D01*
X142782350Y-132724500D01*
X142767196Y-132720504D01*
X142754076Y-132721234D01*
X142729490Y-132710561D01*
X142721207Y-132708377D01*
X142717241Y-132706129D01*
X142619179Y-132640606D01*
X142554005Y-132613610D01*
X142547357Y-132609842D01*
X142528144Y-132590011D01*
X142506643Y-132572684D01*
X142504176Y-132565272D01*
X142498740Y-132559661D01*
X142493298Y-132532590D01*
X142484579Y-132506390D01*
X142484500Y-132501965D01*
X142484500Y-129134866D01*
X142504185Y-129067827D01*
X142505398Y-129065975D01*
X142506467Y-129064374D01*
X142548394Y-129001627D01*
X142582081Y-128920298D01*
X142625920Y-128865897D01*
X142692214Y-128843831D01*
X142759913Y-128861109D01*
X142800945Y-128904010D01*
X142802088Y-128903247D01*
X142893077Y-129039421D01*
X142893080Y-129039425D01*
X143004574Y-129150919D01*
X143004578Y-129150922D01*
X143135681Y-129238523D01*
X143135694Y-129238530D01*
X143281365Y-129298868D01*
X143281370Y-129298870D01*
X143436020Y-129329632D01*
X143436023Y-129329633D01*
X143436025Y-129329633D01*
X143593711Y-129329633D01*
X143593712Y-129329632D01*
X143748364Y-129298870D01*
X143894046Y-129238527D01*
X144025156Y-129150922D01*
X144136656Y-129039422D01*
X144143148Y-129029707D01*
X144198219Y-128947286D01*
X144224261Y-128908312D01*
X144249198Y-128848106D01*
X144293038Y-128793704D01*
X144339566Y-128773942D01*
X144368497Y-128768188D01*
X144497102Y-128714918D01*
X144514172Y-128707848D01*
X144514172Y-128707847D01*
X144514179Y-128707845D01*
X144645289Y-128620240D01*
X144756789Y-128508740D01*
X144844394Y-128377630D01*
X144848937Y-128366661D01*
X144892774Y-128312257D01*
X144939303Y-128292494D01*
X145013497Y-128277737D01*
X145159179Y-128217394D01*
X145290289Y-128129789D01*
X145401789Y-128018289D01*
X145489394Y-127887179D01*
X145529205Y-127791064D01*
X145573044Y-127736664D01*
X145619579Y-127716901D01*
X145624212Y-127715980D01*
X145769894Y-127655637D01*
X145901004Y-127568032D01*
X146012504Y-127456532D01*
X146100109Y-127325422D01*
X146160452Y-127179740D01*
X146191215Y-127025085D01*
X146191215Y-127023550D01*
X146191442Y-127022774D01*
X146191812Y-127019025D01*
X146192523Y-127019095D01*
X146210900Y-126956511D01*
X146252898Y-126917762D01*
X146252491Y-126917153D01*
X146256366Y-126914563D01*
X146256780Y-126914182D01*
X146257546Y-126913772D01*
X146257556Y-126913768D01*
X146388666Y-126826163D01*
X146500166Y-126714663D01*
X146587771Y-126583553D01*
X146648114Y-126437871D01*
X146648116Y-126437859D01*
X146649880Y-126432047D01*
X146651386Y-126432504D01*
X146680197Y-126377398D01*
X146721993Y-126348921D01*
X146810179Y-126312394D01*
X146941289Y-126224789D01*
X146977401Y-126188676D01*
X146982909Y-126185668D01*
X146986445Y-126180481D01*
X147013204Y-126169125D01*
X147038722Y-126155191D01*
X147046197Y-126155124D01*
X147050763Y-126153187D01*
X147086044Y-126154142D01*
G37*
%TD.AperFunction*%
%TA.AperFunction,Conductor*%
G36*
X139278416Y-120279185D02*
G01*
X139324171Y-120331989D01*
X139334115Y-120401147D01*
X139305090Y-120464703D01*
X139280268Y-120486602D01*
X139204711Y-120537087D01*
X139204707Y-120537090D01*
X139093213Y-120648584D01*
X139093210Y-120648588D01*
X139005609Y-120779691D01*
X139005602Y-120779704D01*
X138945264Y-120925375D01*
X138945261Y-120925387D01*
X138914500Y-121080030D01*
X138914500Y-121170500D01*
X138894815Y-121237539D01*
X138842011Y-121283294D01*
X138790500Y-121294500D01*
X137322500Y-121294500D01*
X137255461Y-121274815D01*
X137209706Y-121222011D01*
X137198500Y-121170500D01*
X137198500Y-121088155D01*
X137198499Y-121088153D01*
X137167738Y-120933510D01*
X137167737Y-120933503D01*
X137162055Y-120919786D01*
X137107397Y-120787827D01*
X137107390Y-120787814D01*
X137019789Y-120656711D01*
X137019786Y-120656707D01*
X136908292Y-120545213D01*
X136908288Y-120545210D01*
X136820575Y-120486602D01*
X136775770Y-120432990D01*
X136767063Y-120363665D01*
X136797217Y-120300637D01*
X136856660Y-120263918D01*
X136889466Y-120259500D01*
X139211377Y-120259500D01*
X139278416Y-120279185D01*
G37*
%TD.AperFunction*%
%TA.AperFunction,Conductor*%
G36*
X142628651Y-120262363D02*
G01*
X142638736Y-120261097D01*
X142661611Y-120272041D01*
X142685939Y-120279185D01*
X142692593Y-120286865D01*
X142701763Y-120291252D01*
X142715090Y-120312828D01*
X142731694Y-120331989D01*
X142733140Y-120342047D01*
X142738482Y-120350695D01*
X142738029Y-120376047D01*
X142741638Y-120401147D01*
X142737382Y-120412253D01*
X142737234Y-120420553D01*
X142722002Y-120452391D01*
X142673609Y-120524814D01*
X142673602Y-120524827D01*
X142613264Y-120670498D01*
X142613261Y-120670510D01*
X142606462Y-120704691D01*
X142574077Y-120766602D01*
X142513361Y-120801176D01*
X142484845Y-120804500D01*
X140507246Y-120804500D01*
X140440207Y-120784815D01*
X140404144Y-120749391D01*
X140336789Y-120648588D01*
X140336786Y-120648584D01*
X140225292Y-120537090D01*
X140225288Y-120537087D01*
X140149732Y-120486602D01*
X140104927Y-120432990D01*
X140096220Y-120363665D01*
X140126374Y-120300637D01*
X140185817Y-120263918D01*
X140218623Y-120259500D01*
X142618900Y-120259500D01*
X142628651Y-120262363D01*
G37*
%TD.AperFunction*%
%TA.AperFunction,Conductor*%
G36*
X158599901Y-117807007D02*
G01*
X158692993Y-117900099D01*
X158768460Y-117943670D01*
X158335351Y-118376778D01*
X158335352Y-118376780D01*
X158423471Y-118440801D01*
X158577741Y-118519407D01*
X158580708Y-118520371D01*
X158581693Y-118521044D01*
X158582240Y-118521271D01*
X158582192Y-118521385D01*
X158638385Y-118559806D01*
X158665586Y-118624163D01*
X158653675Y-118693010D01*
X158606433Y-118744488D01*
X158580714Y-118756235D01*
X158481583Y-118788444D01*
X158292179Y-118884951D01*
X158120213Y-119009890D01*
X157969890Y-119160213D01*
X157844949Y-119332182D01*
X157840484Y-119340946D01*
X157792509Y-119391742D01*
X157724688Y-119408536D01*
X157658553Y-119385998D01*
X157619516Y-119340946D01*
X157615050Y-119332182D01*
X157490109Y-119160213D01*
X157376569Y-119046673D01*
X157343084Y-118985350D01*
X157348068Y-118915658D01*
X157389940Y-118859725D01*
X157420915Y-118842810D01*
X157552331Y-118793796D01*
X157667546Y-118707546D01*
X157753796Y-118592331D01*
X157804091Y-118457483D01*
X157810500Y-118397873D01*
X157810499Y-118104926D01*
X157830183Y-118037890D01*
X157882987Y-117992135D01*
X157952146Y-117982191D01*
X158015701Y-118011216D01*
X158044982Y-118048632D01*
X158059193Y-118076522D01*
X158059195Y-118076524D01*
X158123219Y-118164646D01*
X158123220Y-118164647D01*
X158556329Y-117731538D01*
X158599901Y-117807007D01*
G37*
%TD.AperFunction*%
%TD*%
M02*
