M48
; DRILL file {KiCad 9.0.1} date 2025-04-21T15:30:31-0400
; FORMAT={-:-/ absolute / metric / decimal}
; #@! TF.CreationDate,2025-04-21T15:30:31-04:00
; #@! TF.GenerationSoftware,Kicad,Pcbnew,9.0.1
; #@! TF.FileFunction,Plated,1,2,PTH
FMAT,2
METRIC
; #@! TA.AperFunction,Plated,PTH,ViaDrill
T1C0.300
; #@! TA.AperFunction,Plated,PTH,ViaDrill
T2C0.400
; #@! TA.AperFunction,Plated,PTH,ComponentDrill
T3C1.000
%
G90
G05
T1
X100.0Y-144.0
T2
X101.6Y-144.653
X102.743Y-129.42
X102.87Y-144.653
X104.0Y-131.32
X105.156Y-144.526
X106.539Y-139.446
X109.093Y-144.399
X109.661Y-135.89
X110.2Y-121.85
X110.231Y-137.514
X110.236Y-129.54
X110.236Y-130.81
X110.236Y-144.399
X110.29Y-119.41
X110.31Y-120.55
X110.35Y-123.22
X110.363Y-124.4
X110.363Y-125.73
X110.363Y-132.588
X110.363Y-138.303
X111.252Y-133.604
X111.506Y-144.399
X112.018Y-141.223
X112.776Y-144.399
X114.046Y-144.021
X115.314Y-144.518
X116.515Y-144.836
X117.765Y-144.816
X117.9Y-119.32
X120.523Y-137.922
X120.777Y-140.335
X122.05Y-117.224
X122.946Y-140.923
X123.19Y-115.824
X123.327Y-121.031
X123.675Y-117.157
X123.688Y-126.235
X124.015Y-141.415
X124.05Y-135.255
X124.405Y-122.763
X124.634Y-135.88
X124.841Y-125.73
X125.349Y-141.859
X125.476Y-140.97
X125.55Y-117.274
X125.73Y-125.222
X125.984Y-136.144
X126.55Y-116.597
X126.67Y-135.732
X127.0Y-124.841
X127.332Y-136.357
X127.635Y-115.654
X128.016Y-124.768
X128.016Y-137.033
X128.016Y-144.78
X128.262Y-117.084
X128.514Y-123.19
X128.814Y-136.971
X129.062Y-117.084
X129.413Y-123.825
X129.679Y-136.997
X129.978Y-117.084
X130.048Y-140.716
X130.425Y-137.287
X130.657Y-141.341
X131.064Y-117.094
X131.294Y-141.826
X131.445Y-124.123
X132.117Y-141.764
X132.175Y-121.896
X132.906Y-115.633
X132.969Y-141.732
X133.096Y-121.793
X133.604Y-142.24
X133.675Y-120.406
X134.366Y-141.732
X134.874Y-130.236
X134.874Y-140.97
X135.128Y-120.269
X135.509Y-140.335
X135.883Y-133.339
X135.89Y-131.699
X135.892Y-134.139
X135.932Y-132.541
X136.017Y-128.336
X136.398Y-121.167
X137.414Y-137.287
X137.668Y-141.097
X137.753Y-141.906
X137.795Y-142.748
X137.922Y-138.684
X138.176Y-135.001
X138.368Y-120.259
X138.43Y-115.678
X139.701Y-136.653
X139.715Y-121.159
X140.589Y-127.435
X140.843Y-120.805
X141.478Y-145.034
X141.839Y-128.622
X142.24Y-133.35
X142.748Y-145.034
X143.383Y-120.904
X143.465Y-122.347
X143.515Y-128.529
X144.015Y-145.034
X144.135Y-127.998
X144.367Y-130.81
X144.762Y-116.303
X144.78Y-127.508
X145.288Y-144.907
X145.391Y-126.946
X145.878Y-126.204
X146.431Y-125.603
X146.558Y-144.907
X146.812Y-122.987
X146.946Y-124.119
X147.217Y-125.364
X147.26Y-130.556
X147.701Y-144.907
X148.215Y-121.031
X149.098Y-115.824
X150.876Y-127.254
X151.003Y-142.113
X151.511Y-128.34
X151.8Y-117.0
X152.4Y-127.69
X153.312Y-144.376
X153.416Y-141.224
X153.7Y-117.0
X155.702Y-125.0
X158.13Y-128.4
T3
X156.46Y-117.5
X156.46Y-120.04
X156.46Y-122.58
X159.0Y-117.5
X159.0Y-120.04
X159.0Y-122.58
M30
