%TF.GenerationSoftware,KiCad,Pcbnew,9.0.1*%
%TF.CreationDate,2025-04-21T15:30:43-04:00*%
%TF.ProjectId,AliWSV3,416c6957-5356-4332-9e6b-696361645f70,rev?*%
%TF.SameCoordinates,Original*%
%TF.FileFunction,Legend,Bot*%
%TF.FilePolarity,Positive*%
%FSLAX46Y46*%
G04 Gerber Fmt 4.6, Leading zero omitted, Abs format (unit mm)*
G04 Created by KiCad (PCBNEW 9.0.1) date 2025-04-21 15:30:43*
%MOMM*%
%LPD*%
G01*
G04 APERTURE LIST*
%ADD10C,0.093750*%
%ADD11C,0.150000*%
%ADD12C,0.000000*%
G04 APERTURE END LIST*
D10*
X154866894Y-122153339D02*
X154438323Y-122153339D01*
X154652608Y-122903339D02*
X154652608Y-122153339D01*
X154188322Y-122903339D02*
X154188322Y-122153339D01*
X154188322Y-122153339D02*
X153938322Y-122689053D01*
X153938322Y-122689053D02*
X153688322Y-122153339D01*
X153688322Y-122153339D02*
X153688322Y-122903339D01*
X153366893Y-122867625D02*
X153259751Y-122903339D01*
X153259751Y-122903339D02*
X153081179Y-122903339D01*
X153081179Y-122903339D02*
X153009751Y-122867625D01*
X153009751Y-122867625D02*
X152974036Y-122831910D01*
X152974036Y-122831910D02*
X152938322Y-122760482D01*
X152938322Y-122760482D02*
X152938322Y-122689053D01*
X152938322Y-122689053D02*
X152974036Y-122617625D01*
X152974036Y-122617625D02*
X153009751Y-122581910D01*
X153009751Y-122581910D02*
X153081179Y-122546196D01*
X153081179Y-122546196D02*
X153224036Y-122510482D01*
X153224036Y-122510482D02*
X153295465Y-122474767D01*
X153295465Y-122474767D02*
X153331179Y-122439053D01*
X153331179Y-122439053D02*
X153366893Y-122367625D01*
X153366893Y-122367625D02*
X153366893Y-122296196D01*
X153366893Y-122296196D02*
X153331179Y-122224767D01*
X153331179Y-122224767D02*
X153295465Y-122189053D01*
X153295465Y-122189053D02*
X153224036Y-122153339D01*
X153224036Y-122153339D02*
X153045465Y-122153339D01*
X153045465Y-122153339D02*
X152938322Y-122189053D01*
X152616893Y-122617625D02*
X152045465Y-122617625D01*
X151795465Y-122153339D02*
X151366894Y-122153339D01*
X151581179Y-122903339D02*
X151581179Y-122153339D01*
X151116893Y-122903339D02*
X151116893Y-122153339D01*
X151116893Y-122153339D02*
X150938322Y-122153339D01*
X150938322Y-122153339D02*
X150831179Y-122189053D01*
X150831179Y-122189053D02*
X150759750Y-122260482D01*
X150759750Y-122260482D02*
X150724036Y-122331910D01*
X150724036Y-122331910D02*
X150688322Y-122474767D01*
X150688322Y-122474767D02*
X150688322Y-122581910D01*
X150688322Y-122581910D02*
X150724036Y-122724767D01*
X150724036Y-122724767D02*
X150759750Y-122796196D01*
X150759750Y-122796196D02*
X150831179Y-122867625D01*
X150831179Y-122867625D02*
X150938322Y-122903339D01*
X150938322Y-122903339D02*
X151116893Y-122903339D01*
X150366893Y-122903339D02*
X150366893Y-122153339D01*
D11*
X115460839Y-149369819D02*
X115460839Y-149560295D01*
X115079887Y-149369819D02*
X115079887Y-149560295D01*
X114365601Y-149369819D02*
X114365601Y-150084104D01*
X114365601Y-150084104D02*
X114413220Y-150226961D01*
X114413220Y-150226961D02*
X114508458Y-150322200D01*
X114508458Y-150322200D02*
X114651315Y-150369819D01*
X114651315Y-150369819D02*
X114746553Y-150369819D01*
X113413220Y-150369819D02*
X113889410Y-150369819D01*
X113889410Y-150369819D02*
X113889410Y-149369819D01*
X112508458Y-150274580D02*
X112556077Y-150322200D01*
X112556077Y-150322200D02*
X112698934Y-150369819D01*
X112698934Y-150369819D02*
X112794172Y-150369819D01*
X112794172Y-150369819D02*
X112937029Y-150322200D01*
X112937029Y-150322200D02*
X113032267Y-150226961D01*
X113032267Y-150226961D02*
X113079886Y-150131723D01*
X113079886Y-150131723D02*
X113127505Y-149941247D01*
X113127505Y-149941247D02*
X113127505Y-149798390D01*
X113127505Y-149798390D02*
X113079886Y-149607914D01*
X113079886Y-149607914D02*
X113032267Y-149512676D01*
X113032267Y-149512676D02*
X112937029Y-149417438D01*
X112937029Y-149417438D02*
X112794172Y-149369819D01*
X112794172Y-149369819D02*
X112698934Y-149369819D01*
X112698934Y-149369819D02*
X112556077Y-149417438D01*
X112556077Y-149417438D02*
X112508458Y-149465057D01*
X111794172Y-149369819D02*
X111794172Y-150084104D01*
X111794172Y-150084104D02*
X111841791Y-150226961D01*
X111841791Y-150226961D02*
X111937029Y-150322200D01*
X111937029Y-150322200D02*
X112079886Y-150369819D01*
X112079886Y-150369819D02*
X112175124Y-150369819D01*
X110841791Y-150369819D02*
X111317981Y-150369819D01*
X111317981Y-150369819D02*
X111317981Y-149369819D01*
X109937029Y-150274580D02*
X109984648Y-150322200D01*
X109984648Y-150322200D02*
X110127505Y-150369819D01*
X110127505Y-150369819D02*
X110222743Y-150369819D01*
X110222743Y-150369819D02*
X110365600Y-150322200D01*
X110365600Y-150322200D02*
X110460838Y-150226961D01*
X110460838Y-150226961D02*
X110508457Y-150131723D01*
X110508457Y-150131723D02*
X110556076Y-149941247D01*
X110556076Y-149941247D02*
X110556076Y-149798390D01*
X110556076Y-149798390D02*
X110508457Y-149607914D01*
X110508457Y-149607914D02*
X110460838Y-149512676D01*
X110460838Y-149512676D02*
X110365600Y-149417438D01*
X110365600Y-149417438D02*
X110222743Y-149369819D01*
X110222743Y-149369819D02*
X110127505Y-149369819D01*
X110127505Y-149369819D02*
X109984648Y-149417438D01*
X109984648Y-149417438D02*
X109937029Y-149465057D01*
X109222743Y-149369819D02*
X109222743Y-150084104D01*
X109222743Y-150084104D02*
X109270362Y-150226961D01*
X109270362Y-150226961D02*
X109365600Y-150322200D01*
X109365600Y-150322200D02*
X109508457Y-150369819D01*
X109508457Y-150369819D02*
X109603695Y-150369819D01*
X108270362Y-150369819D02*
X108746552Y-150369819D01*
X108746552Y-150369819D02*
X108746552Y-149369819D01*
X107365600Y-150274580D02*
X107413219Y-150322200D01*
X107413219Y-150322200D02*
X107556076Y-150369819D01*
X107556076Y-150369819D02*
X107651314Y-150369819D01*
X107651314Y-150369819D02*
X107794171Y-150322200D01*
X107794171Y-150322200D02*
X107889409Y-150226961D01*
X107889409Y-150226961D02*
X107937028Y-150131723D01*
X107937028Y-150131723D02*
X107984647Y-149941247D01*
X107984647Y-149941247D02*
X107984647Y-149798390D01*
X107984647Y-149798390D02*
X107937028Y-149607914D01*
X107937028Y-149607914D02*
X107889409Y-149512676D01*
X107889409Y-149512676D02*
X107794171Y-149417438D01*
X107794171Y-149417438D02*
X107651314Y-149369819D01*
X107651314Y-149369819D02*
X107556076Y-149369819D01*
X107556076Y-149369819D02*
X107413219Y-149417438D01*
X107413219Y-149417438D02*
X107365600Y-149465057D01*
X106651314Y-149369819D02*
X106651314Y-150084104D01*
X106651314Y-150084104D02*
X106698933Y-150226961D01*
X106698933Y-150226961D02*
X106794171Y-150322200D01*
X106794171Y-150322200D02*
X106937028Y-150369819D01*
X106937028Y-150369819D02*
X107032266Y-150369819D01*
X105698933Y-150369819D02*
X106175123Y-150369819D01*
X106175123Y-150369819D02*
X106175123Y-149369819D01*
X104794171Y-150274580D02*
X104841790Y-150322200D01*
X104841790Y-150322200D02*
X104984647Y-150369819D01*
X104984647Y-150369819D02*
X105079885Y-150369819D01*
X105079885Y-150369819D02*
X105222742Y-150322200D01*
X105222742Y-150322200D02*
X105317980Y-150226961D01*
X105317980Y-150226961D02*
X105365599Y-150131723D01*
X105365599Y-150131723D02*
X105413218Y-149941247D01*
X105413218Y-149941247D02*
X105413218Y-149798390D01*
X105413218Y-149798390D02*
X105365599Y-149607914D01*
X105365599Y-149607914D02*
X105317980Y-149512676D01*
X105317980Y-149512676D02*
X105222742Y-149417438D01*
X105222742Y-149417438D02*
X105079885Y-149369819D01*
X105079885Y-149369819D02*
X104984647Y-149369819D01*
X104984647Y-149369819D02*
X104841790Y-149417438D01*
X104841790Y-149417438D02*
X104794171Y-149465057D01*
X104413218Y-149369819D02*
X104413218Y-149560295D01*
X104032266Y-149369819D02*
X104032266Y-149560295D01*
X102841789Y-150369819D02*
X102841789Y-149369819D01*
X102413218Y-150369819D02*
X102413218Y-149846009D01*
X102413218Y-149846009D02*
X102460837Y-149750771D01*
X102460837Y-149750771D02*
X102556075Y-149703152D01*
X102556075Y-149703152D02*
X102698932Y-149703152D01*
X102698932Y-149703152D02*
X102794170Y-149750771D01*
X102794170Y-149750771D02*
X102841789Y-149798390D01*
X101556075Y-150322200D02*
X101651313Y-150369819D01*
X101651313Y-150369819D02*
X101841789Y-150369819D01*
X101841789Y-150369819D02*
X101937027Y-150322200D01*
X101937027Y-150322200D02*
X101984646Y-150226961D01*
X101984646Y-150226961D02*
X101984646Y-149846009D01*
X101984646Y-149846009D02*
X101937027Y-149750771D01*
X101937027Y-149750771D02*
X101841789Y-149703152D01*
X101841789Y-149703152D02*
X101651313Y-149703152D01*
X101651313Y-149703152D02*
X101556075Y-149750771D01*
X101556075Y-149750771D02*
X101508456Y-149846009D01*
X101508456Y-149846009D02*
X101508456Y-149941247D01*
X101508456Y-149941247D02*
X101984646Y-150036485D01*
X101079884Y-150369819D02*
X101079884Y-149703152D01*
X101079884Y-149893628D02*
X101032265Y-149798390D01*
X101032265Y-149798390D02*
X100984646Y-149750771D01*
X100984646Y-149750771D02*
X100889408Y-149703152D01*
X100889408Y-149703152D02*
X100794170Y-149703152D01*
X100079884Y-150322200D02*
X100175122Y-150369819D01*
X100175122Y-150369819D02*
X100365598Y-150369819D01*
X100365598Y-150369819D02*
X100460836Y-150322200D01*
X100460836Y-150322200D02*
X100508455Y-150226961D01*
X100508455Y-150226961D02*
X100508455Y-149846009D01*
X100508455Y-149846009D02*
X100460836Y-149750771D01*
X100460836Y-149750771D02*
X100365598Y-149703152D01*
X100365598Y-149703152D02*
X100175122Y-149703152D01*
X100175122Y-149703152D02*
X100079884Y-149750771D01*
X100079884Y-149750771D02*
X100032265Y-149846009D01*
X100032265Y-149846009D02*
X100032265Y-149941247D01*
X100032265Y-149941247D02*
X100508455Y-150036485D01*
D10*
X154366894Y-117189053D02*
X154438323Y-117153339D01*
X154438323Y-117153339D02*
X154545465Y-117153339D01*
X154545465Y-117153339D02*
X154652608Y-117189053D01*
X154652608Y-117189053D02*
X154724037Y-117260482D01*
X154724037Y-117260482D02*
X154759751Y-117331910D01*
X154759751Y-117331910D02*
X154795465Y-117474767D01*
X154795465Y-117474767D02*
X154795465Y-117581910D01*
X154795465Y-117581910D02*
X154759751Y-117724767D01*
X154759751Y-117724767D02*
X154724037Y-117796196D01*
X154724037Y-117796196D02*
X154652608Y-117867625D01*
X154652608Y-117867625D02*
X154545465Y-117903339D01*
X154545465Y-117903339D02*
X154474037Y-117903339D01*
X154474037Y-117903339D02*
X154366894Y-117867625D01*
X154366894Y-117867625D02*
X154331180Y-117831910D01*
X154331180Y-117831910D02*
X154331180Y-117581910D01*
X154331180Y-117581910D02*
X154474037Y-117581910D01*
X154009751Y-117903339D02*
X154009751Y-117153339D01*
X154009751Y-117153339D02*
X153581180Y-117903339D01*
X153581180Y-117903339D02*
X153581180Y-117153339D01*
X153224037Y-117903339D02*
X153224037Y-117153339D01*
X153224037Y-117153339D02*
X153045466Y-117153339D01*
X153045466Y-117153339D02*
X152938323Y-117189053D01*
X152938323Y-117189053D02*
X152866894Y-117260482D01*
X152866894Y-117260482D02*
X152831180Y-117331910D01*
X152831180Y-117331910D02*
X152795466Y-117474767D01*
X152795466Y-117474767D02*
X152795466Y-117581910D01*
X152795466Y-117581910D02*
X152831180Y-117724767D01*
X152831180Y-117724767D02*
X152866894Y-117796196D01*
X152866894Y-117796196D02*
X152938323Y-117867625D01*
X152938323Y-117867625D02*
X153045466Y-117903339D01*
X153045466Y-117903339D02*
X153224037Y-117903339D01*
X152474037Y-117617625D02*
X151902609Y-117617625D01*
X151652609Y-117153339D02*
X151224038Y-117153339D01*
X151438323Y-117903339D02*
X151438323Y-117153339D01*
X150974037Y-117903339D02*
X150974037Y-117153339D01*
X150974037Y-117153339D02*
X150795466Y-117153339D01*
X150795466Y-117153339D02*
X150688323Y-117189053D01*
X150688323Y-117189053D02*
X150616894Y-117260482D01*
X150616894Y-117260482D02*
X150581180Y-117331910D01*
X150581180Y-117331910D02*
X150545466Y-117474767D01*
X150545466Y-117474767D02*
X150545466Y-117581910D01*
X150545466Y-117581910D02*
X150581180Y-117724767D01*
X150581180Y-117724767D02*
X150616894Y-117796196D01*
X150616894Y-117796196D02*
X150688323Y-117867625D01*
X150688323Y-117867625D02*
X150795466Y-117903339D01*
X150795466Y-117903339D02*
X150974037Y-117903339D01*
X150081180Y-117153339D02*
X149938323Y-117153339D01*
X149938323Y-117153339D02*
X149866894Y-117189053D01*
X149866894Y-117189053D02*
X149795466Y-117260482D01*
X149795466Y-117260482D02*
X149759751Y-117403339D01*
X149759751Y-117403339D02*
X149759751Y-117653339D01*
X149759751Y-117653339D02*
X149795466Y-117796196D01*
X149795466Y-117796196D02*
X149866894Y-117867625D01*
X149866894Y-117867625D02*
X149938323Y-117903339D01*
X149938323Y-117903339D02*
X150081180Y-117903339D01*
X150081180Y-117903339D02*
X150152609Y-117867625D01*
X150152609Y-117867625D02*
X150224037Y-117796196D01*
X150224037Y-117796196D02*
X150259751Y-117653339D01*
X150259751Y-117653339D02*
X150259751Y-117403339D01*
X150259751Y-117403339D02*
X150224037Y-117260482D01*
X150224037Y-117260482D02*
X150152609Y-117189053D01*
X150152609Y-117189053D02*
X150081180Y-117153339D01*
X154866894Y-119653339D02*
X154616894Y-120403339D01*
X154616894Y-120403339D02*
X154366894Y-119653339D01*
X153688323Y-120331910D02*
X153724037Y-120367625D01*
X153724037Y-120367625D02*
X153831180Y-120403339D01*
X153831180Y-120403339D02*
X153902608Y-120403339D01*
X153902608Y-120403339D02*
X154009751Y-120367625D01*
X154009751Y-120367625D02*
X154081180Y-120296196D01*
X154081180Y-120296196D02*
X154116894Y-120224767D01*
X154116894Y-120224767D02*
X154152608Y-120081910D01*
X154152608Y-120081910D02*
X154152608Y-119974767D01*
X154152608Y-119974767D02*
X154116894Y-119831910D01*
X154116894Y-119831910D02*
X154081180Y-119760482D01*
X154081180Y-119760482D02*
X154009751Y-119689053D01*
X154009751Y-119689053D02*
X153902608Y-119653339D01*
X153902608Y-119653339D02*
X153831180Y-119653339D01*
X153831180Y-119653339D02*
X153724037Y-119689053D01*
X153724037Y-119689053D02*
X153688323Y-119724767D01*
X152938323Y-120331910D02*
X152974037Y-120367625D01*
X152974037Y-120367625D02*
X153081180Y-120403339D01*
X153081180Y-120403339D02*
X153152608Y-120403339D01*
X153152608Y-120403339D02*
X153259751Y-120367625D01*
X153259751Y-120367625D02*
X153331180Y-120296196D01*
X153331180Y-120296196D02*
X153366894Y-120224767D01*
X153366894Y-120224767D02*
X153402608Y-120081910D01*
X153402608Y-120081910D02*
X153402608Y-119974767D01*
X153402608Y-119974767D02*
X153366894Y-119831910D01*
X153366894Y-119831910D02*
X153331180Y-119760482D01*
X153331180Y-119760482D02*
X153259751Y-119689053D01*
X153259751Y-119689053D02*
X153152608Y-119653339D01*
X153152608Y-119653339D02*
X153081180Y-119653339D01*
X153081180Y-119653339D02*
X152974037Y-119689053D01*
X152974037Y-119689053D02*
X152938323Y-119724767D01*
X152616894Y-120117625D02*
X152045466Y-120117625D01*
X151795466Y-119653339D02*
X151366895Y-119653339D01*
X151581180Y-120403339D02*
X151581180Y-119653339D01*
X150688323Y-120331910D02*
X150724037Y-120367625D01*
X150724037Y-120367625D02*
X150831180Y-120403339D01*
X150831180Y-120403339D02*
X150902608Y-120403339D01*
X150902608Y-120403339D02*
X151009751Y-120367625D01*
X151009751Y-120367625D02*
X151081180Y-120296196D01*
X151081180Y-120296196D02*
X151116894Y-120224767D01*
X151116894Y-120224767D02*
X151152608Y-120081910D01*
X151152608Y-120081910D02*
X151152608Y-119974767D01*
X151152608Y-119974767D02*
X151116894Y-119831910D01*
X151116894Y-119831910D02*
X151081180Y-119760482D01*
X151081180Y-119760482D02*
X151009751Y-119689053D01*
X151009751Y-119689053D02*
X150902608Y-119653339D01*
X150902608Y-119653339D02*
X150831180Y-119653339D01*
X150831180Y-119653339D02*
X150724037Y-119689053D01*
X150724037Y-119689053D02*
X150688323Y-119724767D01*
X150366894Y-120403339D02*
X150366894Y-119653339D01*
X149938323Y-120403339D02*
X150259751Y-119974767D01*
X149938323Y-119653339D02*
X150366894Y-120081910D01*
D12*
%TO.C,G\u002A\u002A\u002A*%
G36*
X129844406Y-131653154D02*
G01*
X129848780Y-131656216D01*
X129872292Y-131672766D01*
X129894229Y-131688356D01*
X129914124Y-131702644D01*
X129931507Y-131715287D01*
X129945911Y-131725942D01*
X129956866Y-131734265D01*
X129963904Y-131739915D01*
X129966556Y-131742548D01*
X129966988Y-131744331D01*
X129968595Y-131751510D01*
X129971236Y-131763578D01*
X129974796Y-131779996D01*
X129979159Y-131800222D01*
X129984207Y-131823718D01*
X129989824Y-131849944D01*
X129995895Y-131878361D01*
X130002304Y-131908428D01*
X130006245Y-131926941D01*
X130012524Y-131956419D01*
X130018421Y-131984088D01*
X130023816Y-132009383D01*
X130028587Y-132031735D01*
X130032613Y-132050580D01*
X130035774Y-132065350D01*
X130037949Y-132075479D01*
X130039016Y-132080399D01*
X130041483Y-132091499D01*
X129912790Y-132090731D01*
X129784097Y-132089962D01*
X129749467Y-131927614D01*
X129745181Y-131907516D01*
X129738912Y-131878079D01*
X129733051Y-131850524D01*
X129727716Y-131825405D01*
X129723026Y-131803280D01*
X129719097Y-131784704D01*
X129716049Y-131770234D01*
X129713998Y-131760424D01*
X129713063Y-131755832D01*
X129712852Y-131754883D01*
X129711617Y-131751822D01*
X129709120Y-131748359D01*
X129704846Y-131744077D01*
X129698278Y-131738558D01*
X129688898Y-131731385D01*
X129676190Y-131722139D01*
X129659638Y-131710404D01*
X129638724Y-131695761D01*
X129566158Y-131645126D01*
X129506736Y-131646184D01*
X129490001Y-131646553D01*
X129469878Y-131647377D01*
X129454120Y-131648762D01*
X129441814Y-131650956D01*
X129432046Y-131654208D01*
X129423903Y-131658764D01*
X129416473Y-131664874D01*
X129408842Y-131672785D01*
X129405247Y-131676936D01*
X129395550Y-131691469D01*
X129390357Y-131706927D01*
X129388866Y-131725418D01*
X129389354Y-131736277D01*
X129391219Y-131746941D01*
X129394999Y-131757775D01*
X129401237Y-131770295D01*
X129410474Y-131786021D01*
X129411499Y-131787707D01*
X129416941Y-131797069D01*
X129420774Y-131804359D01*
X129422225Y-131808120D01*
X129421045Y-131808709D01*
X129414548Y-131809510D01*
X129402633Y-131810147D01*
X129385600Y-131810610D01*
X129363743Y-131810889D01*
X129337361Y-131810974D01*
X129252498Y-131810928D01*
X129192724Y-131769188D01*
X129132951Y-131727449D01*
X129133056Y-131715364D01*
X129133310Y-131709099D01*
X129137303Y-131685521D01*
X129145521Y-131661649D01*
X129157185Y-131639404D01*
X129171515Y-131620705D01*
X129180239Y-131611999D01*
X129196817Y-131598577D01*
X129215322Y-131587919D01*
X129237739Y-131578767D01*
X129261353Y-131570450D01*
X129492556Y-131569609D01*
X129723759Y-131568769D01*
X129844406Y-131653154D01*
G37*
G36*
X133738553Y-132000025D02*
G01*
X133741301Y-132014709D01*
X133743038Y-132024847D01*
X133743641Y-132029828D01*
X133741693Y-132044266D01*
X133734522Y-132060453D01*
X133722716Y-132074167D01*
X133706955Y-132084399D01*
X133691963Y-132091380D01*
X133421099Y-132091409D01*
X133150235Y-132091438D01*
X133028454Y-132006143D01*
X132906673Y-131920848D01*
X132876350Y-131777958D01*
X132874365Y-131768594D01*
X132867485Y-131735914D01*
X132861789Y-131708415D01*
X132857194Y-131685638D01*
X132855711Y-131677962D01*
X133114228Y-131677962D01*
X133114233Y-131678150D01*
X133114941Y-131683627D01*
X133116717Y-131693826D01*
X133119402Y-131707998D01*
X133122836Y-131725390D01*
X133126861Y-131745254D01*
X133131316Y-131766837D01*
X133136042Y-131789389D01*
X133140880Y-131812160D01*
X133145671Y-131834398D01*
X133150254Y-131855352D01*
X133154471Y-131874273D01*
X133158162Y-131890410D01*
X133161168Y-131903010D01*
X133163328Y-131911325D01*
X133164484Y-131914602D01*
X133164635Y-131914720D01*
X133168226Y-131917296D01*
X133175930Y-131922721D01*
X133187112Y-131930553D01*
X133201137Y-131940347D01*
X133217371Y-131951659D01*
X133235178Y-131964045D01*
X133303809Y-132011740D01*
X133381291Y-132011674D01*
X133400520Y-132011637D01*
X133420067Y-132011511D01*
X133434985Y-132011256D01*
X133445988Y-132010828D01*
X133453785Y-132010183D01*
X133459090Y-132009277D01*
X133462614Y-132008067D01*
X133465069Y-132006509D01*
X133467766Y-132004093D01*
X133475241Y-131993444D01*
X133477925Y-131981678D01*
X133477879Y-131981065D01*
X133476962Y-131975319D01*
X133474967Y-131964642D01*
X133472028Y-131949697D01*
X133468279Y-131931148D01*
X133463853Y-131909659D01*
X133458885Y-131885893D01*
X133453508Y-131860514D01*
X133429126Y-131746184D01*
X133357443Y-131695952D01*
X133285759Y-131645720D01*
X133214049Y-131645720D01*
X133209908Y-131645724D01*
X133186555Y-131645904D01*
X133166581Y-131646336D01*
X133150616Y-131646994D01*
X133139291Y-131647855D01*
X133133238Y-131648893D01*
X133123415Y-131654935D01*
X133116577Y-131665136D01*
X133114228Y-131677962D01*
X132855711Y-131677962D01*
X132853617Y-131667123D01*
X132850972Y-131652410D01*
X132849177Y-131641040D01*
X132848149Y-131632551D01*
X132847802Y-131626484D01*
X132848055Y-131622380D01*
X132850216Y-131613923D01*
X132857717Y-131598738D01*
X132868610Y-131585343D01*
X132881428Y-131575784D01*
X132894437Y-131568974D01*
X133168038Y-131568974D01*
X133441638Y-131568974D01*
X133562623Y-131653626D01*
X133683608Y-131738278D01*
X133713635Y-131878699D01*
X133713870Y-131879795D01*
X133719860Y-131908045D01*
X133725445Y-131934804D01*
X133730503Y-131959461D01*
X133734913Y-131981405D01*
X133734966Y-131981678D01*
X133738553Y-132000025D01*
G37*
G36*
X126090702Y-131566892D02*
G01*
X126125657Y-131566967D01*
X126163105Y-131567096D01*
X126202652Y-131567280D01*
X126243904Y-131567520D01*
X126292120Y-131567831D01*
X126337313Y-131568139D01*
X126377331Y-131568448D01*
X126412547Y-131568776D01*
X126443332Y-131569141D01*
X126470062Y-131569562D01*
X126493107Y-131570057D01*
X126512841Y-131570645D01*
X126529637Y-131571345D01*
X126543868Y-131572174D01*
X126555906Y-131573152D01*
X126566125Y-131574296D01*
X126574897Y-131575627D01*
X126582595Y-131577161D01*
X126589592Y-131578917D01*
X126596262Y-131580915D01*
X126602975Y-131583172D01*
X126610107Y-131585707D01*
X126632002Y-131594370D01*
X126668674Y-131613203D01*
X126701896Y-131636421D01*
X126732466Y-131664539D01*
X126740003Y-131672586D01*
X126761968Y-131699027D01*
X126780085Y-131726314D01*
X126794793Y-131755412D01*
X126806530Y-131787285D01*
X126815736Y-131822897D01*
X126822848Y-131863212D01*
X126826655Y-131899393D01*
X126826958Y-131935559D01*
X126823113Y-131967775D01*
X126815087Y-131996209D01*
X126802846Y-132021025D01*
X126786356Y-132042390D01*
X126785629Y-132043153D01*
X126767834Y-132058707D01*
X126747180Y-132070925D01*
X126722775Y-132080239D01*
X126693724Y-132087080D01*
X126688416Y-132087854D01*
X126675409Y-132088988D01*
X126657322Y-132089880D01*
X126633950Y-132090537D01*
X126605088Y-132090965D01*
X126570530Y-132091171D01*
X126468412Y-132091438D01*
X126412611Y-132052327D01*
X126356809Y-132013216D01*
X126432079Y-132011740D01*
X126447801Y-132011427D01*
X126467392Y-132010988D01*
X126482422Y-132010520D01*
X126493698Y-132009938D01*
X126502030Y-132009160D01*
X126508228Y-132008100D01*
X126513101Y-132006676D01*
X126517458Y-132004802D01*
X126522108Y-132002395D01*
X126526790Y-131999747D01*
X126545882Y-131985140D01*
X126560790Y-131967004D01*
X126570981Y-131946123D01*
X126575921Y-131923284D01*
X126576028Y-131917886D01*
X126575048Y-131905182D01*
X126572841Y-131888749D01*
X126569649Y-131869796D01*
X126565712Y-131849535D01*
X126561271Y-131829175D01*
X126556568Y-131809927D01*
X126551842Y-131793002D01*
X126547335Y-131779610D01*
X126541239Y-131765432D01*
X126524194Y-131736203D01*
X126502713Y-131710224D01*
X126477418Y-131687992D01*
X126448929Y-131670009D01*
X126417866Y-131656775D01*
X126384851Y-131648788D01*
X126376642Y-131647870D01*
X126361300Y-131646948D01*
X126341486Y-131646363D01*
X126318009Y-131646136D01*
X126291676Y-131646290D01*
X126220639Y-131647196D01*
X126267155Y-131864151D01*
X126267522Y-131865861D01*
X126274993Y-131900769D01*
X126282090Y-131934043D01*
X126288718Y-131965225D01*
X126294780Y-131993853D01*
X126300178Y-132019470D01*
X126304816Y-132041614D01*
X126308598Y-132059826D01*
X126311427Y-132073646D01*
X126313207Y-132082615D01*
X126313840Y-132086272D01*
X126313752Y-132087117D01*
X126312934Y-132088219D01*
X126310835Y-132089117D01*
X126306942Y-132089830D01*
X126300741Y-132090382D01*
X126291718Y-132090791D01*
X126279359Y-132091079D01*
X126263152Y-132091267D01*
X126242582Y-132091376D01*
X126217135Y-132091426D01*
X126186299Y-132091438D01*
X126058590Y-132091438D01*
X126003146Y-131830944D01*
X126002931Y-131829936D01*
X125994795Y-131791676D01*
X125987025Y-131755070D01*
X125979707Y-131720531D01*
X125972928Y-131688470D01*
X125966775Y-131659300D01*
X125961334Y-131633432D01*
X125956692Y-131611278D01*
X125952935Y-131593250D01*
X125950151Y-131579760D01*
X125948425Y-131571219D01*
X125947845Y-131568041D01*
X125949024Y-131567834D01*
X125955463Y-131567547D01*
X125967161Y-131567311D01*
X125983722Y-131567124D01*
X126004751Y-131566988D01*
X126029855Y-131566904D01*
X126058636Y-131566871D01*
X126090702Y-131566892D01*
G37*
G36*
X125716958Y-131569340D02*
G01*
X125741897Y-131569400D01*
X125763003Y-131569506D01*
X125780599Y-131569664D01*
X125795005Y-131569876D01*
X125806543Y-131570149D01*
X125815534Y-131570485D01*
X125822299Y-131570889D01*
X125827159Y-131571365D01*
X125830437Y-131571918D01*
X125832453Y-131572551D01*
X125833528Y-131573270D01*
X125833984Y-131574078D01*
X125834565Y-131576559D01*
X125836322Y-131584517D01*
X125839140Y-131597480D01*
X125842927Y-131615021D01*
X125847593Y-131636715D01*
X125853047Y-131662135D01*
X125859195Y-131690855D01*
X125865948Y-131722448D01*
X125873214Y-131756488D01*
X125880901Y-131792550D01*
X125888918Y-131830206D01*
X125895403Y-131860671D01*
X125903161Y-131897072D01*
X125910516Y-131931534D01*
X125917377Y-131963630D01*
X125923651Y-131992935D01*
X125929248Y-132019022D01*
X125934076Y-132041465D01*
X125938043Y-132059837D01*
X125941058Y-132073713D01*
X125943030Y-132082667D01*
X125943867Y-132086272D01*
X125944079Y-132087499D01*
X125943382Y-132088867D01*
X125940907Y-132089876D01*
X125935966Y-132090582D01*
X125927872Y-132091037D01*
X125915937Y-132091295D01*
X125899473Y-132091411D01*
X125877793Y-132091438D01*
X125810151Y-132091438D01*
X125739599Y-132042178D01*
X125734949Y-132038929D01*
X125717258Y-132026517D01*
X125701313Y-132015253D01*
X125687736Y-132005581D01*
X125677148Y-131997944D01*
X125670167Y-131992787D01*
X125667415Y-131990553D01*
X125666617Y-131987700D01*
X125664685Y-131979532D01*
X125661747Y-131966577D01*
X125657917Y-131949346D01*
X125653306Y-131928350D01*
X125648028Y-131904102D01*
X125642193Y-131877112D01*
X125635915Y-131847893D01*
X125629305Y-131816954D01*
X125592827Y-131645720D01*
X125474835Y-131645720D01*
X125442125Y-131645782D01*
X125414028Y-131645979D01*
X125391144Y-131646321D01*
X125373124Y-131646819D01*
X125359621Y-131647481D01*
X125350284Y-131648318D01*
X125344765Y-131649339D01*
X125338126Y-131651885D01*
X125324317Y-131661309D01*
X125313739Y-131674594D01*
X125307547Y-131690462D01*
X125307272Y-131691780D01*
X125306714Y-131695154D01*
X125306425Y-131698907D01*
X125306487Y-131703486D01*
X125306981Y-131709343D01*
X125307988Y-131716926D01*
X125309589Y-131726685D01*
X125311865Y-131739069D01*
X125314898Y-131754528D01*
X125318769Y-131773510D01*
X125323559Y-131796466D01*
X125329348Y-131823845D01*
X125336219Y-131856096D01*
X125344253Y-131893669D01*
X125346605Y-131904656D01*
X125353465Y-131936656D01*
X125359955Y-131966862D01*
X125365967Y-131994778D01*
X125371393Y-132019906D01*
X125376125Y-132041747D01*
X125380057Y-132059805D01*
X125383079Y-132073582D01*
X125385085Y-132082581D01*
X125385967Y-132086303D01*
X125386119Y-132087341D01*
X125385508Y-132088403D01*
X125383544Y-132089259D01*
X125379721Y-132089923D01*
X125373535Y-132090416D01*
X125364479Y-132090753D01*
X125352048Y-132090954D01*
X125335736Y-132091034D01*
X125315038Y-132091012D01*
X125289448Y-132090905D01*
X125258460Y-132090731D01*
X125129350Y-132089962D01*
X125088449Y-131899573D01*
X125081087Y-131865238D01*
X125073836Y-131831228D01*
X125067698Y-131802145D01*
X125062588Y-131777541D01*
X125058422Y-131756971D01*
X125055115Y-131739989D01*
X125052584Y-131726148D01*
X125050744Y-131715002D01*
X125049512Y-131706104D01*
X125048802Y-131699009D01*
X125048530Y-131693270D01*
X125048614Y-131688440D01*
X125052227Y-131666656D01*
X125061384Y-131644571D01*
X125075635Y-131624283D01*
X125094602Y-131606223D01*
X125117908Y-131590820D01*
X125145173Y-131578505D01*
X125167245Y-131570450D01*
X125499839Y-131569651D01*
X125523536Y-131569594D01*
X125572455Y-131569484D01*
X125615936Y-131569399D01*
X125654299Y-131569344D01*
X125687866Y-131569323D01*
X125716958Y-131569340D01*
G37*
G36*
X132339560Y-131568969D02*
G01*
X132391720Y-131568974D01*
X132718139Y-131568974D01*
X132773370Y-131827992D01*
X132781472Y-131866013D01*
X132789248Y-131902553D01*
X132796576Y-131937034D01*
X132803368Y-131969043D01*
X132809537Y-131998167D01*
X132814996Y-132023994D01*
X132819657Y-132046111D01*
X132823434Y-132064105D01*
X132826239Y-132077563D01*
X132827985Y-132086074D01*
X132828585Y-132089224D01*
X132827783Y-132089565D01*
X132822189Y-132090166D01*
X132811960Y-132090681D01*
X132797927Y-132091083D01*
X132780922Y-132091344D01*
X132761775Y-132091438D01*
X132694981Y-132091438D01*
X132623386Y-132041352D01*
X132606400Y-132029391D01*
X132586149Y-132014834D01*
X132570575Y-132003208D01*
X132559500Y-131994374D01*
X132552744Y-131988195D01*
X132550128Y-131984530D01*
X132549688Y-131982586D01*
X132548063Y-131975134D01*
X132545403Y-131962800D01*
X132541826Y-131946132D01*
X132537449Y-131925676D01*
X132532389Y-131901980D01*
X132526762Y-131875591D01*
X132520687Y-131847056D01*
X132514279Y-131816923D01*
X132510143Y-131797477D01*
X132503943Y-131768396D01*
X132498152Y-131741307D01*
X132492886Y-131716752D01*
X132488261Y-131695270D01*
X132484394Y-131677402D01*
X132481400Y-131663689D01*
X132479397Y-131654670D01*
X132478501Y-131650886D01*
X132478446Y-131650719D01*
X132477635Y-131649449D01*
X132475819Y-131648414D01*
X132472452Y-131647590D01*
X132466992Y-131646953D01*
X132458893Y-131646479D01*
X132447611Y-131646145D01*
X132432603Y-131645928D01*
X132413324Y-131645803D01*
X132389230Y-131645747D01*
X132359777Y-131645737D01*
X132342846Y-131645761D01*
X132313090Y-131645930D01*
X132287295Y-131646249D01*
X132265850Y-131646710D01*
X132249142Y-131647303D01*
X132237560Y-131648020D01*
X132231493Y-131648849D01*
X132224965Y-131651335D01*
X132212691Y-131659065D01*
X132201990Y-131669313D01*
X132194975Y-131680263D01*
X132194534Y-131681392D01*
X132192015Y-131691375D01*
X132190987Y-131701956D01*
X132190996Y-131702270D01*
X132191751Y-131707937D01*
X132193638Y-131718775D01*
X132196550Y-131734250D01*
X132200381Y-131753830D01*
X132205023Y-131776983D01*
X132210371Y-131803174D01*
X132216316Y-131831872D01*
X132222754Y-131862543D01*
X132229576Y-131894654D01*
X132230571Y-131899309D01*
X132237363Y-131931097D01*
X132243804Y-131961260D01*
X132249785Y-131989278D01*
X132255193Y-132014632D01*
X132259920Y-132036806D01*
X132263853Y-132055280D01*
X132266884Y-132069536D01*
X132268901Y-132079055D01*
X132269794Y-132083320D01*
X132271423Y-132091438D01*
X132142652Y-132091438D01*
X132124313Y-132091423D01*
X132098605Y-132091350D01*
X132075210Y-132091221D01*
X132054727Y-132091044D01*
X132037754Y-132090826D01*
X132024890Y-132090572D01*
X132016733Y-132090290D01*
X132013881Y-132089986D01*
X132013825Y-132089651D01*
X132012873Y-132084950D01*
X132010818Y-132075110D01*
X132007765Y-132060619D01*
X132003816Y-132041964D01*
X131999075Y-132019632D01*
X131993645Y-131994111D01*
X131987631Y-131965888D01*
X131981134Y-131935451D01*
X131974260Y-131903287D01*
X131972618Y-131895604D01*
X131965730Y-131863303D01*
X131959195Y-131832528D01*
X131953124Y-131803810D01*
X131947629Y-131777680D01*
X131942819Y-131754669D01*
X131938806Y-131735307D01*
X131935702Y-131720125D01*
X131933616Y-131709653D01*
X131932661Y-131704423D01*
X131932390Y-131690654D01*
X131935338Y-131673021D01*
X131941180Y-131655133D01*
X131949357Y-131639169D01*
X131950785Y-131637005D01*
X131966380Y-131618427D01*
X131986268Y-131601758D01*
X132009026Y-131588213D01*
X132013056Y-131586223D01*
X132018521Y-131583510D01*
X132023620Y-131581096D01*
X132028700Y-131578965D01*
X132034110Y-131577098D01*
X132040198Y-131575479D01*
X132047312Y-131574090D01*
X132055802Y-131572912D01*
X132066015Y-131571930D01*
X132078299Y-131571125D01*
X132093004Y-131570480D01*
X132110476Y-131569977D01*
X132131066Y-131569599D01*
X132155120Y-131569328D01*
X132182988Y-131569147D01*
X132215017Y-131569038D01*
X132251557Y-131568984D01*
X132292955Y-131568967D01*
X132339560Y-131568969D01*
G37*
G36*
X130910771Y-131808252D02*
G01*
X130915980Y-131832969D01*
X130921354Y-131858820D01*
X130926753Y-131885114D01*
X130932039Y-131911162D01*
X130937071Y-131936272D01*
X130941710Y-131959753D01*
X130945817Y-131980914D01*
X130949252Y-131999065D01*
X130951875Y-132013514D01*
X130953548Y-132023571D01*
X130954130Y-132028545D01*
X130954058Y-132031256D01*
X130950400Y-132049431D01*
X130941725Y-132065528D01*
X130928743Y-132078549D01*
X130912164Y-132087498D01*
X130911477Y-132087696D01*
X130907080Y-132088323D01*
X130899313Y-132088878D01*
X130887923Y-132089365D01*
X130872656Y-132089788D01*
X130853259Y-132090149D01*
X130829478Y-132090451D01*
X130801061Y-132090699D01*
X130767754Y-132090896D01*
X130729304Y-132091045D01*
X130685457Y-132091150D01*
X130635960Y-132091213D01*
X130369381Y-132091438D01*
X130316504Y-132053803D01*
X130309621Y-132048885D01*
X130294900Y-132038237D01*
X130282241Y-132028898D01*
X130272335Y-132021391D01*
X130265875Y-132016236D01*
X130263553Y-132013954D01*
X130264797Y-132013708D01*
X130271278Y-132013350D01*
X130282875Y-132013015D01*
X130299113Y-132012708D01*
X130319516Y-132012433D01*
X130343609Y-132012198D01*
X130370918Y-132012005D01*
X130400965Y-132011861D01*
X130433278Y-132011771D01*
X130467379Y-132011740D01*
X130671278Y-132011740D01*
X130679907Y-132003112D01*
X130682124Y-132000769D01*
X130687163Y-131992662D01*
X130688535Y-131982685D01*
X130688500Y-131981579D01*
X130687627Y-131973698D01*
X130685787Y-131961888D01*
X130683264Y-131947636D01*
X130680341Y-131932425D01*
X130677300Y-131917739D01*
X130674424Y-131905064D01*
X130671997Y-131895883D01*
X130671487Y-131894931D01*
X130670195Y-131894020D01*
X130667722Y-131893251D01*
X130663639Y-131892610D01*
X130657518Y-131892087D01*
X130648928Y-131891670D01*
X130637440Y-131891347D01*
X130622625Y-131891105D01*
X130604054Y-131890934D01*
X130581296Y-131890822D01*
X130553923Y-131890756D01*
X130521506Y-131890725D01*
X130483614Y-131890717D01*
X130296802Y-131890717D01*
X130173139Y-131804165D01*
X130049476Y-131717613D01*
X130045690Y-131703067D01*
X130040751Y-131677048D01*
X130040643Y-131673350D01*
X130270162Y-131673350D01*
X130270179Y-131679278D01*
X130271401Y-131687957D01*
X130273846Y-131700896D01*
X130275150Y-131707360D01*
X130277590Y-131718578D01*
X130279630Y-131726883D01*
X130280929Y-131730830D01*
X130281538Y-131731445D01*
X130286128Y-131735110D01*
X130294537Y-131741411D01*
X130306040Y-131749817D01*
X130319915Y-131759797D01*
X130335436Y-131770819D01*
X130388205Y-131808068D01*
X130520979Y-131808068D01*
X130653754Y-131808068D01*
X130652174Y-131801426D01*
X130651906Y-131800273D01*
X130650306Y-131793067D01*
X130648009Y-131782456D01*
X130645418Y-131770291D01*
X130640241Y-131745798D01*
X130568529Y-131695759D01*
X130496818Y-131645720D01*
X130396237Y-131645720D01*
X130380478Y-131645725D01*
X130354473Y-131645794D01*
X130333462Y-131646019D01*
X130316847Y-131646489D01*
X130304030Y-131647293D01*
X130294413Y-131648523D01*
X130287400Y-131650267D01*
X130282391Y-131652616D01*
X130278790Y-131655659D01*
X130275999Y-131659487D01*
X130273419Y-131664189D01*
X130271332Y-131668661D01*
X130270162Y-131673350D01*
X130040643Y-131673350D01*
X130040045Y-131652955D01*
X130043752Y-131632084D01*
X130045442Y-131627086D01*
X130050059Y-131617209D01*
X130056819Y-131607766D01*
X130067024Y-131596784D01*
X130069078Y-131594690D01*
X130073213Y-131590341D01*
X130076937Y-131586510D01*
X130080622Y-131583164D01*
X130084640Y-131580270D01*
X130089362Y-131577795D01*
X130095158Y-131575708D01*
X130102402Y-131573975D01*
X130111463Y-131572563D01*
X130122713Y-131571441D01*
X130136525Y-131570575D01*
X130153269Y-131569934D01*
X130173316Y-131569484D01*
X130197038Y-131569192D01*
X130224807Y-131569027D01*
X130256993Y-131568955D01*
X130293969Y-131568944D01*
X130336105Y-131568961D01*
X130383774Y-131568974D01*
X130653556Y-131568974D01*
X130774424Y-131653588D01*
X130775794Y-131654547D01*
X130807258Y-131676687D01*
X130834068Y-131695781D01*
X130856181Y-131711793D01*
X130873549Y-131724691D01*
X130886127Y-131734440D01*
X130893869Y-131741006D01*
X130896729Y-131744355D01*
X130897533Y-131747820D01*
X130901408Y-131764987D01*
X130905868Y-131785362D01*
X130910732Y-131808068D01*
X130910771Y-131808252D01*
G37*
G36*
X127093304Y-131606134D02*
G01*
X127099852Y-131610732D01*
X127114894Y-131621412D01*
X127128009Y-131630884D01*
X127138466Y-131638611D01*
X127145532Y-131644054D01*
X127148474Y-131646675D01*
X127149229Y-131649124D01*
X127151161Y-131656897D01*
X127154077Y-131669369D01*
X127157842Y-131685946D01*
X127162324Y-131706037D01*
X127167391Y-131729047D01*
X127172908Y-131754385D01*
X127178742Y-131781456D01*
X127206920Y-131912856D01*
X127277427Y-131962298D01*
X127347935Y-132011740D01*
X127374418Y-132011740D01*
X127375819Y-132011740D01*
X127387856Y-132011661D01*
X127395152Y-132011242D01*
X127398773Y-132010198D01*
X127399781Y-132008245D01*
X127399242Y-132005098D01*
X127398555Y-132002034D01*
X127396703Y-131993506D01*
X127393812Y-131980086D01*
X127389985Y-131962245D01*
X127385323Y-131940458D01*
X127379925Y-131915197D01*
X127373895Y-131886936D01*
X127367332Y-131856148D01*
X127360338Y-131823305D01*
X127353014Y-131788881D01*
X127346620Y-131758838D01*
X127339588Y-131725842D01*
X127332977Y-131694871D01*
X127326887Y-131666393D01*
X127321418Y-131640877D01*
X127316672Y-131618792D01*
X127312750Y-131600608D01*
X127309750Y-131586791D01*
X127307776Y-131577812D01*
X127306926Y-131574140D01*
X127306752Y-131573275D01*
X127307186Y-131571939D01*
X127309132Y-131570912D01*
X127313218Y-131570153D01*
X127320070Y-131569621D01*
X127330317Y-131569278D01*
X127344585Y-131569082D01*
X127363501Y-131568994D01*
X127387694Y-131568974D01*
X127469982Y-131568974D01*
X127524591Y-131607423D01*
X127579200Y-131645872D01*
X127606510Y-131774936D01*
X127610731Y-131794864D01*
X127616187Y-131820562D01*
X127621203Y-131844122D01*
X127625649Y-131864938D01*
X127629396Y-131882404D01*
X127632314Y-131895913D01*
X127634272Y-131904858D01*
X127635142Y-131908633D01*
X127635364Y-131909022D01*
X127639117Y-131912573D01*
X127646966Y-131918890D01*
X127658292Y-131927508D01*
X127672473Y-131937959D01*
X127688889Y-131949780D01*
X127706921Y-131962503D01*
X127777379Y-132011740D01*
X127803746Y-132011740D01*
X127830113Y-132011740D01*
X127783524Y-131794047D01*
X127782974Y-131791476D01*
X127775518Y-131756588D01*
X127768438Y-131723377D01*
X127761830Y-131692298D01*
X127755790Y-131663807D01*
X127750414Y-131638357D01*
X127745798Y-131616404D01*
X127742037Y-131598404D01*
X127739228Y-131584810D01*
X127737467Y-131576078D01*
X127736849Y-131572664D01*
X127737548Y-131571777D01*
X127740957Y-131570822D01*
X127747672Y-131570094D01*
X127758212Y-131569568D01*
X127773096Y-131569222D01*
X127792845Y-131569032D01*
X127817976Y-131568974D01*
X127899190Y-131568974D01*
X127952556Y-131606334D01*
X127959084Y-131610936D01*
X127974262Y-131621901D01*
X127987537Y-131631856D01*
X127998167Y-131640222D01*
X128005406Y-131646420D01*
X128008512Y-131649873D01*
X128008726Y-131650606D01*
X128010076Y-131656256D01*
X128012490Y-131666913D01*
X128015849Y-131682028D01*
X128020036Y-131701051D01*
X128024931Y-131723432D01*
X128030417Y-131748624D01*
X128036374Y-131776075D01*
X128042686Y-131805237D01*
X128049233Y-131835561D01*
X128055897Y-131866498D01*
X128062559Y-131897497D01*
X128069102Y-131928010D01*
X128075406Y-131957488D01*
X128081354Y-131985380D01*
X128086827Y-132011139D01*
X128091707Y-132034214D01*
X128095875Y-132054056D01*
X128099212Y-132070116D01*
X128101602Y-132081844D01*
X128103520Y-132091438D01*
X127649316Y-132091400D01*
X127195112Y-132091362D01*
X127077042Y-132008601D01*
X127074780Y-132007016D01*
X127051369Y-131990616D01*
X127029417Y-131975252D01*
X127009405Y-131961262D01*
X126991816Y-131948982D01*
X126977130Y-131938747D01*
X126965832Y-131930894D01*
X126958401Y-131925760D01*
X126955321Y-131923681D01*
X126954672Y-131921990D01*
X126952814Y-131915110D01*
X126949958Y-131903507D01*
X126946238Y-131887788D01*
X126941788Y-131868561D01*
X126936743Y-131846436D01*
X126931235Y-131822018D01*
X126925398Y-131795917D01*
X126919368Y-131768739D01*
X126913276Y-131741094D01*
X126907257Y-131713589D01*
X126901445Y-131686831D01*
X126895974Y-131661429D01*
X126890978Y-131637991D01*
X126886590Y-131617125D01*
X126882944Y-131599437D01*
X126880174Y-131585538D01*
X126878413Y-131576033D01*
X126877797Y-131571531D01*
X126877823Y-131571466D01*
X126881169Y-131570803D01*
X126889593Y-131570208D01*
X126902343Y-131569704D01*
X126918665Y-131569314D01*
X126937805Y-131569063D01*
X126959011Y-131568974D01*
X127040225Y-131568974D01*
X127093304Y-131606134D01*
G37*
G36*
X131879123Y-131999807D02*
G01*
X131881740Y-132014248D01*
X131883413Y-132024505D01*
X131884003Y-132029901D01*
X131881331Y-132047156D01*
X131873528Y-132063388D01*
X131861368Y-132076964D01*
X131845630Y-132086732D01*
X131843837Y-132087325D01*
X131840790Y-132087926D01*
X131836355Y-132088464D01*
X131830233Y-132088942D01*
X131822123Y-132089364D01*
X131811722Y-132089732D01*
X131798730Y-132090052D01*
X131782846Y-132090325D01*
X131763769Y-132090557D01*
X131741197Y-132090750D01*
X131714830Y-132090908D01*
X131684366Y-132091034D01*
X131649504Y-132091133D01*
X131609943Y-132091208D01*
X131565382Y-132091262D01*
X131515519Y-132091299D01*
X131460054Y-132091322D01*
X131084810Y-132091438D01*
X131083142Y-132083320D01*
X131083005Y-132082663D01*
X131081781Y-132076893D01*
X131079447Y-132065943D01*
X131076101Y-132050268D01*
X131071840Y-132030322D01*
X131066762Y-132006561D01*
X131060963Y-131979439D01*
X131054541Y-131949411D01*
X131047593Y-131916932D01*
X131040216Y-131882457D01*
X131032507Y-131846441D01*
X131025005Y-131811314D01*
X131016370Y-131770630D01*
X131008924Y-131735201D01*
X131002610Y-131704738D01*
X130997371Y-131678956D01*
X130996501Y-131674546D01*
X131255121Y-131674546D01*
X131255418Y-131677136D01*
X131256818Y-131685302D01*
X131259264Y-131698299D01*
X131262649Y-131715581D01*
X131266862Y-131736602D01*
X131271794Y-131760818D01*
X131277335Y-131787681D01*
X131283375Y-131816647D01*
X131289805Y-131847169D01*
X131324642Y-132011720D01*
X131462864Y-132011730D01*
X131601087Y-132011740D01*
X131609715Y-132003112D01*
X131611198Y-132001573D01*
X131616774Y-131993180D01*
X131618343Y-131983308D01*
X131618333Y-131982922D01*
X131617575Y-131976870D01*
X131615718Y-131965849D01*
X131612898Y-131950569D01*
X131609253Y-131931737D01*
X131604918Y-131910063D01*
X131600031Y-131886254D01*
X131594729Y-131861018D01*
X131593670Y-131856035D01*
X131588485Y-131831577D01*
X131583732Y-131809080D01*
X131579544Y-131789180D01*
X131576056Y-131772512D01*
X131573400Y-131759713D01*
X131571708Y-131751416D01*
X131571115Y-131748257D01*
X131570830Y-131747912D01*
X131566967Y-131744808D01*
X131559056Y-131738914D01*
X131547690Y-131730660D01*
X131533463Y-131720474D01*
X131516970Y-131708786D01*
X131498805Y-131696026D01*
X131426496Y-131645440D01*
X131349494Y-131646318D01*
X131272493Y-131647196D01*
X131263884Y-131656836D01*
X131262501Y-131658479D01*
X131257266Y-131666941D01*
X131255121Y-131674546D01*
X130996501Y-131674546D01*
X130993152Y-131657568D01*
X130989897Y-131640288D01*
X130987548Y-131626828D01*
X130986049Y-131616902D01*
X130985345Y-131610224D01*
X130985379Y-131606507D01*
X130985478Y-131605943D01*
X130988912Y-131595816D01*
X130994320Y-131586894D01*
X130995469Y-131585511D01*
X130999708Y-131580008D01*
X131001423Y-131577074D01*
X131000851Y-131576319D01*
X130996699Y-131572579D01*
X130989407Y-131566592D01*
X130980022Y-131559231D01*
X130967606Y-131549224D01*
X130945214Y-131528645D01*
X130922817Y-131504579D01*
X130899416Y-131475993D01*
X130892249Y-131466564D01*
X130882415Y-131453149D01*
X130872023Y-131438557D01*
X130861650Y-131423640D01*
X130851871Y-131409247D01*
X130843263Y-131396227D01*
X130836401Y-131385430D01*
X130831861Y-131377707D01*
X130830220Y-131373907D01*
X130830959Y-131373593D01*
X130836644Y-131373012D01*
X130847573Y-131372497D01*
X130863306Y-131372055D01*
X130883404Y-131371696D01*
X130907430Y-131371429D01*
X130934943Y-131371263D01*
X130965505Y-131371205D01*
X131100791Y-131371205D01*
X131117880Y-131398317D01*
X131118297Y-131398976D01*
X131140744Y-131432765D01*
X131164300Y-131464984D01*
X131188305Y-131494849D01*
X131212098Y-131521579D01*
X131235020Y-131544392D01*
X131256411Y-131562505D01*
X131264927Y-131568974D01*
X131423742Y-131568974D01*
X131582558Y-131568974D01*
X131701549Y-131652078D01*
X131704650Y-131654244D01*
X131728069Y-131670609D01*
X131749964Y-131685924D01*
X131769862Y-131699856D01*
X131787289Y-131712073D01*
X131801771Y-131722243D01*
X131812833Y-131730032D01*
X131820002Y-131735108D01*
X131822803Y-131737139D01*
X131823634Y-131739156D01*
X131825641Y-131746425D01*
X131828543Y-131758305D01*
X131832200Y-131774119D01*
X131836469Y-131793190D01*
X131841209Y-131814843D01*
X131846279Y-131838401D01*
X131851538Y-131863186D01*
X131856843Y-131888524D01*
X131862054Y-131913736D01*
X131867028Y-131938147D01*
X131871626Y-131961080D01*
X131875704Y-131981859D01*
X131875980Y-131983308D01*
X131879123Y-131999807D01*
G37*
G36*
X128376292Y-131276858D02*
G01*
X128420911Y-131276916D01*
X128460545Y-131277024D01*
X128495547Y-131277193D01*
X128526270Y-131277431D01*
X128553067Y-131277749D01*
X128576292Y-131278156D01*
X128596297Y-131278661D01*
X128613436Y-131279275D01*
X128628061Y-131280006D01*
X128640526Y-131280864D01*
X128651184Y-131281860D01*
X128660388Y-131283001D01*
X128668490Y-131284299D01*
X128675845Y-131285762D01*
X128682806Y-131287400D01*
X128694890Y-131290691D01*
X128733809Y-131305078D01*
X128769595Y-131324382D01*
X128802141Y-131348473D01*
X128831343Y-131377220D01*
X128857096Y-131410493D01*
X128879296Y-131448162D01*
X128897837Y-131490096D01*
X128912614Y-131536165D01*
X128923523Y-131586240D01*
X128925808Y-131600716D01*
X128928523Y-131626846D01*
X128928521Y-131649098D01*
X128925699Y-131668438D01*
X128919955Y-131685834D01*
X128911186Y-131702251D01*
X128909541Y-131704738D01*
X128899755Y-131717133D01*
X128887826Y-131729508D01*
X128875486Y-131740186D01*
X128864468Y-131747490D01*
X128860633Y-131749486D01*
X128855510Y-131752103D01*
X128850648Y-131754337D01*
X128845572Y-131756221D01*
X128839807Y-131757791D01*
X128832880Y-131759081D01*
X128824316Y-131760124D01*
X128813642Y-131760956D01*
X128800383Y-131761610D01*
X128784066Y-131762122D01*
X128764216Y-131762524D01*
X128740358Y-131762852D01*
X128712020Y-131763139D01*
X128678727Y-131763421D01*
X128640005Y-131763731D01*
X128449616Y-131765267D01*
X128439978Y-131772141D01*
X128431286Y-131779727D01*
X128424850Y-131789790D01*
X128421486Y-131802724D01*
X128420650Y-131819875D01*
X128421171Y-131829655D01*
X128426335Y-131856140D01*
X128436502Y-131882180D01*
X128451058Y-131906843D01*
X128469389Y-131929196D01*
X128490881Y-131948305D01*
X128514922Y-131963239D01*
X128538169Y-131974843D01*
X128926979Y-131975634D01*
X129315789Y-131976425D01*
X129396311Y-132032792D01*
X129409770Y-132042218D01*
X129428001Y-132055000D01*
X129444261Y-132066416D01*
X129457975Y-132076062D01*
X129468572Y-132083537D01*
X129475477Y-132088435D01*
X129478118Y-132090354D01*
X129477319Y-132090421D01*
X129471450Y-132090535D01*
X129460134Y-132090636D01*
X129443664Y-132090723D01*
X129422335Y-132090798D01*
X129396441Y-132090860D01*
X129366277Y-132090907D01*
X129332137Y-132090942D01*
X129294316Y-132090962D01*
X129253108Y-132090968D01*
X129208807Y-132090960D01*
X129161709Y-132090937D01*
X129112107Y-132090900D01*
X129060297Y-132090847D01*
X129006571Y-132090780D01*
X128951226Y-132090697D01*
X128423050Y-132089847D01*
X128397960Y-132083183D01*
X128369771Y-132074831D01*
X128340611Y-132063694D01*
X128316419Y-132051252D01*
X128306306Y-132044894D01*
X128272798Y-132019401D01*
X128242916Y-131989364D01*
X128216760Y-131954950D01*
X128194429Y-131916323D01*
X128176022Y-131873647D01*
X128161638Y-131827088D01*
X128151377Y-131776811D01*
X128147894Y-131746812D01*
X128147610Y-131720504D01*
X128150680Y-131698340D01*
X128157125Y-131679943D01*
X128165628Y-131665396D01*
X128180755Y-131646593D01*
X128198533Y-131630407D01*
X128217364Y-131618468D01*
X128236950Y-131608823D01*
X128427408Y-131607347D01*
X128449909Y-131607173D01*
X128486313Y-131606878D01*
X128517494Y-131606581D01*
X128543892Y-131606246D01*
X128565946Y-131605839D01*
X128584095Y-131605324D01*
X128598778Y-131604666D01*
X128610433Y-131603832D01*
X128619499Y-131602784D01*
X128626416Y-131601490D01*
X128631622Y-131599913D01*
X128635556Y-131598019D01*
X128638657Y-131595772D01*
X128641365Y-131593139D01*
X128644117Y-131590083D01*
X128648028Y-131584450D01*
X128653002Y-131571132D01*
X128655245Y-131554881D01*
X128654441Y-131537313D01*
X128651194Y-131520391D01*
X128641158Y-131491297D01*
X128626182Y-131464323D01*
X128606840Y-131440258D01*
X128583706Y-131419890D01*
X128557355Y-131404008D01*
X128535217Y-131393344D01*
X128338924Y-131391868D01*
X128142631Y-131390392D01*
X128069568Y-131339203D01*
X128063524Y-131334966D01*
X128045227Y-131322100D01*
X128028454Y-131310252D01*
X128013868Y-131299894D01*
X128002133Y-131291498D01*
X127993913Y-131285536D01*
X127989870Y-131282480D01*
X127989457Y-131282124D01*
X127988705Y-131281280D01*
X127988659Y-131280533D01*
X127989644Y-131279876D01*
X127991985Y-131279305D01*
X127996006Y-131278812D01*
X128002033Y-131278392D01*
X128010390Y-131278038D01*
X128021403Y-131277746D01*
X128035396Y-131277507D01*
X128052693Y-131277318D01*
X128073620Y-131277171D01*
X128098502Y-131277061D01*
X128127663Y-131276981D01*
X128161428Y-131276926D01*
X128200122Y-131276889D01*
X128244070Y-131276865D01*
X128293597Y-131276847D01*
X128326334Y-131276841D01*
X128376292Y-131276858D01*
G37*
G36*
X133925271Y-131327429D02*
G01*
X133938658Y-131336864D01*
X133959471Y-131351816D01*
X133976116Y-131364184D01*
X133988393Y-131373814D01*
X133996105Y-131380554D01*
X133999051Y-131384251D01*
X133999771Y-131387546D01*
X134001647Y-131396274D01*
X134004576Y-131409960D01*
X134008469Y-131428182D01*
X134013235Y-131450517D01*
X134018785Y-131476541D01*
X134025027Y-131505831D01*
X134031872Y-131537965D01*
X134039229Y-131572519D01*
X134047009Y-131609070D01*
X134055120Y-131647196D01*
X134062696Y-131682762D01*
X134070521Y-131719395D01*
X134077943Y-131754042D01*
X134084873Y-131786284D01*
X134091218Y-131815698D01*
X134096888Y-131841863D01*
X134101791Y-131864359D01*
X134105836Y-131882764D01*
X134108931Y-131896658D01*
X134110985Y-131905618D01*
X134111907Y-131909224D01*
X134112097Y-131909539D01*
X134115830Y-131913096D01*
X134123671Y-131919437D01*
X134134987Y-131928082D01*
X134149143Y-131938555D01*
X134165503Y-131950377D01*
X134183433Y-131963071D01*
X134252800Y-132011695D01*
X134288959Y-132011718D01*
X134289935Y-132011718D01*
X134303634Y-132011625D01*
X134314817Y-132011379D01*
X134322355Y-132011015D01*
X134325118Y-132010570D01*
X134324854Y-132009240D01*
X134323491Y-132002708D01*
X134321047Y-131991114D01*
X134317616Y-131974886D01*
X134313287Y-131954453D01*
X134308152Y-131930244D01*
X134302302Y-131902688D01*
X134295829Y-131872211D01*
X134288823Y-131839244D01*
X134281376Y-131804215D01*
X134273579Y-131767553D01*
X134265523Y-131729685D01*
X134257300Y-131691041D01*
X134249000Y-131652049D01*
X134240716Y-131613137D01*
X134232537Y-131574735D01*
X134224556Y-131537270D01*
X134216863Y-131501172D01*
X134209550Y-131466869D01*
X134202708Y-131434789D01*
X134196428Y-131405361D01*
X134190801Y-131379014D01*
X134185919Y-131356176D01*
X134181873Y-131337275D01*
X134178753Y-131322741D01*
X134176652Y-131313002D01*
X134174130Y-131300755D01*
X134172103Y-131289536D01*
X134171008Y-131281655D01*
X134171040Y-131278319D01*
X134171825Y-131278111D01*
X134177458Y-131277682D01*
X134187740Y-131277320D01*
X134201802Y-131277045D01*
X134218777Y-131276876D01*
X134237795Y-131276832D01*
X134302980Y-131276915D01*
X134375121Y-131327750D01*
X134447262Y-131378585D01*
X134504253Y-131645565D01*
X134505625Y-131651989D01*
X134513875Y-131690519D01*
X134521795Y-131727333D01*
X134529296Y-131762025D01*
X134536287Y-131794189D01*
X134542680Y-131823419D01*
X134548385Y-131849309D01*
X134553313Y-131871453D01*
X134557375Y-131889446D01*
X134560480Y-131902881D01*
X134562540Y-131911353D01*
X134563466Y-131914456D01*
X134563610Y-131914571D01*
X134567198Y-131917165D01*
X134574898Y-131922617D01*
X134586072Y-131930480D01*
X134600083Y-131940305D01*
X134616295Y-131951645D01*
X134634070Y-131964053D01*
X134702452Y-132011740D01*
X134738506Y-132011740D01*
X134774560Y-132011740D01*
X134772927Y-132002147D01*
X134772482Y-131999893D01*
X134770848Y-131992011D01*
X134768108Y-131978976D01*
X134764341Y-131961156D01*
X134759625Y-131938915D01*
X134754037Y-131912619D01*
X134747656Y-131882634D01*
X134740559Y-131849325D01*
X134732824Y-131813058D01*
X134724528Y-131774198D01*
X134715751Y-131733111D01*
X134706568Y-131690164D01*
X134697059Y-131645720D01*
X134690446Y-131614811D01*
X134681151Y-131571316D01*
X134672236Y-131529549D01*
X134663779Y-131489878D01*
X134655859Y-131452671D01*
X134648554Y-131418295D01*
X134641941Y-131387118D01*
X134636099Y-131359507D01*
X134631105Y-131335831D01*
X134627037Y-131316456D01*
X134623974Y-131301750D01*
X134621993Y-131292082D01*
X134621172Y-131287818D01*
X134619518Y-131276749D01*
X134685692Y-131276749D01*
X134751866Y-131276749D01*
X134824317Y-131327454D01*
X134896768Y-131378160D01*
X134971297Y-131728157D01*
X134978596Y-131762431D01*
X134987849Y-131805874D01*
X134996718Y-131847501D01*
X135005127Y-131886955D01*
X135012997Y-131923874D01*
X135020253Y-131957899D01*
X135026818Y-131988670D01*
X135032614Y-132015827D01*
X135037565Y-132039009D01*
X135041594Y-132057857D01*
X135044625Y-132072011D01*
X135046581Y-132081111D01*
X135047384Y-132084796D01*
X135048941Y-132091438D01*
X134574654Y-132091438D01*
X134100365Y-132091438D01*
X133983870Y-132009911D01*
X133983448Y-132009615D01*
X133960002Y-131993189D01*
X133937914Y-131977679D01*
X133917682Y-131963437D01*
X133899803Y-131950816D01*
X133884774Y-131940167D01*
X133873093Y-131931843D01*
X133865258Y-131926193D01*
X133861766Y-131923572D01*
X133860723Y-131921954D01*
X133859244Y-131918156D01*
X133857330Y-131911951D01*
X133854917Y-131903056D01*
X133851942Y-131891192D01*
X133848341Y-131876077D01*
X133844050Y-131857429D01*
X133839005Y-131834969D01*
X133833142Y-131808415D01*
X133826399Y-131777485D01*
X133818710Y-131741899D01*
X133810013Y-131701377D01*
X133800243Y-131655636D01*
X133789337Y-131604395D01*
X133788470Y-131600319D01*
X133779518Y-131558212D01*
X133770900Y-131517689D01*
X133762698Y-131479130D01*
X133754991Y-131442918D01*
X133747861Y-131409433D01*
X133741391Y-131379055D01*
X133735660Y-131352167D01*
X133730749Y-131329148D01*
X133726741Y-131310380D01*
X133723716Y-131296244D01*
X133721756Y-131287120D01*
X133720941Y-131283390D01*
X133719365Y-131276749D01*
X133786148Y-131276749D01*
X133852931Y-131276749D01*
X133925271Y-131327429D01*
G37*
G36*
X132540615Y-127831961D02*
G01*
X132514365Y-127928253D01*
X132482813Y-128023497D01*
X132445778Y-128118323D01*
X132403081Y-128213364D01*
X132373623Y-128272858D01*
X132329602Y-128354677D01*
X132282139Y-128434983D01*
X132230867Y-128514316D01*
X132175418Y-128593214D01*
X132115423Y-128672215D01*
X132050517Y-128751858D01*
X131980330Y-128832681D01*
X131969588Y-128844476D01*
X131952366Y-128862841D01*
X131932075Y-128884022D01*
X131909412Y-128907324D01*
X131885070Y-128932053D01*
X131859745Y-128957514D01*
X131834133Y-128983013D01*
X131808928Y-129007855D01*
X131784825Y-129031345D01*
X131762520Y-129052789D01*
X131742708Y-129071492D01*
X131726083Y-129086759D01*
X131702187Y-129108095D01*
X131604397Y-129192195D01*
X131501912Y-129275456D01*
X131395696Y-129357151D01*
X131286715Y-129436554D01*
X131175931Y-129512937D01*
X131064310Y-129585573D01*
X131064049Y-129585738D01*
X131052442Y-129593196D01*
X131042922Y-129599554D01*
X131036467Y-129604141D01*
X131034054Y-129606290D01*
X131035079Y-129607023D01*
X131040891Y-129609072D01*
X131051087Y-129612009D01*
X131064810Y-129615628D01*
X131081198Y-129619724D01*
X131099393Y-129624094D01*
X131118535Y-129628531D01*
X131137764Y-129632831D01*
X131156222Y-129636789D01*
X131173048Y-129640200D01*
X131187384Y-129642859D01*
X131245595Y-129651684D01*
X131336252Y-129660539D01*
X131427256Y-129663521D01*
X131518471Y-129660630D01*
X131609762Y-129651869D01*
X131700993Y-129637239D01*
X131737451Y-129629746D01*
X131827887Y-129607169D01*
X131918819Y-129578857D01*
X132010083Y-129544897D01*
X132101517Y-129505377D01*
X132192958Y-129460385D01*
X132284243Y-129410009D01*
X132375210Y-129354336D01*
X132465695Y-129293455D01*
X132555537Y-129227453D01*
X132644572Y-129156419D01*
X132732637Y-129080439D01*
X132754400Y-129060745D01*
X132810192Y-129008538D01*
X132865992Y-128953959D01*
X132921077Y-128897784D01*
X132974725Y-128840790D01*
X133026214Y-128783753D01*
X133074822Y-128727451D01*
X133119829Y-128672659D01*
X133160511Y-128620154D01*
X133162308Y-128617760D01*
X133170955Y-128606450D01*
X133176780Y-128599230D01*
X133179583Y-128596339D01*
X133179162Y-128598015D01*
X133178800Y-128598697D01*
X133176067Y-128603780D01*
X133171116Y-128612958D01*
X133164378Y-128625430D01*
X133156288Y-128640394D01*
X133147277Y-128657051D01*
X133115422Y-128715132D01*
X133028945Y-128865390D01*
X132938946Y-129011352D01*
X132845489Y-129152949D01*
X132748640Y-129290112D01*
X132648462Y-129422773D01*
X132545020Y-129550863D01*
X132438379Y-129674315D01*
X132328603Y-129793060D01*
X132215757Y-129907030D01*
X132099906Y-130016155D01*
X131981114Y-130120368D01*
X131859446Y-130219600D01*
X131734967Y-130313783D01*
X131607740Y-130402848D01*
X131477831Y-130486727D01*
X131345304Y-130565352D01*
X131314326Y-130582758D01*
X131183845Y-130652150D01*
X131051652Y-130716215D01*
X130917922Y-130774899D01*
X130782835Y-130828152D01*
X130646567Y-130875921D01*
X130509298Y-130918155D01*
X130371204Y-130954801D01*
X130232465Y-130985808D01*
X130093256Y-131011124D01*
X129953758Y-131030698D01*
X129814147Y-131044476D01*
X129674601Y-131052408D01*
X129584625Y-131054250D01*
X129473817Y-131052856D01*
X129362860Y-131047531D01*
X129252584Y-131038361D01*
X129143815Y-131025433D01*
X129037380Y-131008833D01*
X128934106Y-130988647D01*
X128834822Y-130964961D01*
X128745821Y-130940019D01*
X128638832Y-130905444D01*
X128535775Y-130866910D01*
X128436740Y-130824467D01*
X128341820Y-130778166D01*
X128251105Y-130728059D01*
X128164688Y-130674196D01*
X128082658Y-130616629D01*
X128005109Y-130555408D01*
X127932131Y-130490585D01*
X127863816Y-130422211D01*
X127856611Y-130414451D01*
X127825939Y-130379002D01*
X127796580Y-130340900D01*
X127768111Y-130299505D01*
X127740113Y-130254178D01*
X127712162Y-130204280D01*
X127683838Y-130149172D01*
X127651883Y-130080765D01*
X127614228Y-129988031D01*
X127581846Y-129892887D01*
X127554813Y-129795616D01*
X127533206Y-129696503D01*
X127522544Y-129629852D01*
X128761751Y-129629852D01*
X128762504Y-129632611D01*
X128763110Y-129633485D01*
X128765804Y-129635563D01*
X128766207Y-129635371D01*
X128765455Y-129632611D01*
X128764849Y-129631738D01*
X128762155Y-129629660D01*
X128761751Y-129629852D01*
X127522544Y-129629852D01*
X127517101Y-129595829D01*
X127510080Y-129527824D01*
X128669523Y-129527824D01*
X128670999Y-129529299D01*
X128672474Y-129527824D01*
X128670999Y-129526348D01*
X128669523Y-129527824D01*
X127510080Y-129527824D01*
X127506575Y-129493878D01*
X127505708Y-129479804D01*
X127504791Y-129457143D01*
X127504124Y-129430822D01*
X127503708Y-129402036D01*
X127503544Y-129371979D01*
X127503630Y-129341847D01*
X127503969Y-129312833D01*
X127504560Y-129286133D01*
X127505403Y-129262941D01*
X127506500Y-129244453D01*
X127513819Y-129169261D01*
X127528624Y-129067056D01*
X127548967Y-128966018D01*
X127555008Y-128942717D01*
X128489465Y-128942717D01*
X128489778Y-128969881D01*
X128494004Y-129045445D01*
X128503088Y-129119214D01*
X128516928Y-129190845D01*
X128535426Y-129259997D01*
X128558479Y-129326325D01*
X128585989Y-129389488D01*
X128617855Y-129449143D01*
X128653976Y-129504947D01*
X128655926Y-129507673D01*
X128662610Y-129516668D01*
X128666890Y-129521854D01*
X128668490Y-129522998D01*
X128667132Y-129519864D01*
X128662540Y-129512218D01*
X128660060Y-129508212D01*
X128643497Y-129477312D01*
X128628492Y-129442081D01*
X128615495Y-129403814D01*
X128604950Y-129363805D01*
X128597305Y-129323348D01*
X128596296Y-129316336D01*
X128591122Y-129258104D01*
X128591289Y-129197978D01*
X128596703Y-129136298D01*
X128607269Y-129073404D01*
X128622894Y-129009634D01*
X128643481Y-128945330D01*
X128668938Y-128880830D01*
X128699170Y-128816474D01*
X128734081Y-128752602D01*
X128773578Y-128689554D01*
X128816514Y-128628975D01*
X128869011Y-128563297D01*
X128925418Y-128500751D01*
X128985356Y-128441614D01*
X129048447Y-128386164D01*
X129114311Y-128334677D01*
X129182569Y-128287431D01*
X129252843Y-128244701D01*
X129324754Y-128206767D01*
X129397923Y-128173903D01*
X129471971Y-128146388D01*
X129546520Y-128124498D01*
X129588489Y-128114739D01*
X129654668Y-128103156D01*
X129719127Y-128096603D01*
X129781656Y-128095055D01*
X129842048Y-128098488D01*
X129900094Y-128106878D01*
X129955586Y-128120201D01*
X130008316Y-128138432D01*
X130058076Y-128161546D01*
X130104658Y-128189521D01*
X130108689Y-128192318D01*
X130128785Y-128207924D01*
X130150362Y-128226990D01*
X130172125Y-128248207D01*
X130192781Y-128270269D01*
X130211035Y-128291867D01*
X130225591Y-128311693D01*
X130235573Y-128327301D01*
X130260666Y-128373084D01*
X130280593Y-128420733D01*
X130295619Y-128470949D01*
X130306009Y-128524432D01*
X130307613Y-128536103D01*
X130312300Y-128595426D01*
X130311563Y-128656260D01*
X130305547Y-128718299D01*
X130294394Y-128781237D01*
X130278249Y-128844767D01*
X130257255Y-128908583D01*
X130231556Y-128972378D01*
X130201296Y-129035847D01*
X130166619Y-129098682D01*
X130127668Y-129160578D01*
X130084588Y-129221227D01*
X130037522Y-129280324D01*
X129986613Y-129337562D01*
X129932007Y-129392635D01*
X129873846Y-129445236D01*
X129831062Y-129480518D01*
X129767829Y-129527824D01*
X129763228Y-129531266D01*
X129693787Y-129577119D01*
X129623013Y-129617955D01*
X129587969Y-129635371D01*
X129551183Y-129653653D01*
X129478572Y-129684089D01*
X129405456Y-129709141D01*
X129332110Y-129728687D01*
X129258810Y-129742604D01*
X129185832Y-129750771D01*
X129161564Y-129752102D01*
X129105032Y-129751986D01*
X129049322Y-129747469D01*
X128995191Y-129738691D01*
X128943395Y-129725792D01*
X128894688Y-129708914D01*
X128849827Y-129688198D01*
X128832471Y-129678627D01*
X128812526Y-129666754D01*
X128794447Y-129655091D01*
X128779998Y-129644734D01*
X128779438Y-129644315D01*
X128779156Y-129644563D01*
X128782482Y-129648125D01*
X128788853Y-129654387D01*
X128790048Y-129655517D01*
X128798840Y-129663262D01*
X128810728Y-129673119D01*
X128824303Y-129683940D01*
X128838156Y-129694576D01*
X128882632Y-129725869D01*
X128943432Y-129762415D01*
X129007583Y-129794249D01*
X129075147Y-129821391D01*
X129146183Y-129843864D01*
X129220756Y-129861688D01*
X129298925Y-129874885D01*
X129380752Y-129883477D01*
X129387274Y-129883921D01*
X129409894Y-129884977D01*
X129436295Y-129885652D01*
X129464900Y-129885946D01*
X129494131Y-129885862D01*
X129522412Y-129885399D01*
X129548165Y-129884558D01*
X129569813Y-129883342D01*
X129582051Y-129882395D01*
X129679194Y-129871635D01*
X129776843Y-129855136D01*
X129874768Y-129833004D01*
X129972737Y-129805341D01*
X130070520Y-129772250D01*
X130167887Y-129733835D01*
X130264606Y-129690198D01*
X130360448Y-129641444D01*
X130455181Y-129587675D01*
X130548574Y-129528994D01*
X130640398Y-129465505D01*
X130730421Y-129397311D01*
X130818413Y-129324516D01*
X130847664Y-129298878D01*
X130935081Y-129217566D01*
X131018068Y-129133103D01*
X131096444Y-129045715D01*
X131170028Y-128955632D01*
X131238640Y-128863083D01*
X131302099Y-128768296D01*
X131360223Y-128671501D01*
X131412833Y-128572925D01*
X131429344Y-128539555D01*
X131447575Y-128501401D01*
X131463763Y-128465781D01*
X131478511Y-128431322D01*
X131492421Y-128396652D01*
X131506095Y-128360398D01*
X131529703Y-128291898D01*
X131554718Y-128207036D01*
X131574800Y-128123072D01*
X131589963Y-128040206D01*
X131600218Y-127958635D01*
X131605579Y-127878558D01*
X131606058Y-127800175D01*
X131601667Y-127723684D01*
X131592420Y-127649283D01*
X131578330Y-127577172D01*
X131559408Y-127507549D01*
X131535668Y-127440612D01*
X131507122Y-127376561D01*
X131473783Y-127315595D01*
X131435664Y-127257911D01*
X131408412Y-127222309D01*
X131362181Y-127169809D01*
X131311684Y-127121256D01*
X131257182Y-127076874D01*
X131198935Y-127036888D01*
X131137204Y-127001522D01*
X131123493Y-126994533D01*
X131056267Y-126964221D01*
X130986079Y-126938848D01*
X130913131Y-126918399D01*
X130837626Y-126902860D01*
X130759766Y-126892218D01*
X130679756Y-126886458D01*
X130597797Y-126885566D01*
X130514092Y-126889528D01*
X130428845Y-126898329D01*
X130342257Y-126911957D01*
X130254533Y-126930396D01*
X130165874Y-126953632D01*
X130076484Y-126981651D01*
X129986566Y-127014440D01*
X129896322Y-127051984D01*
X129805955Y-127094268D01*
X129714961Y-127141663D01*
X129619917Y-127196678D01*
X129526801Y-127256461D01*
X129435025Y-127321391D01*
X129344003Y-127391844D01*
X129302836Y-127425938D01*
X129241377Y-127479839D01*
X129179865Y-127537191D01*
X129119414Y-127596883D01*
X129061138Y-127657804D01*
X129006152Y-127718847D01*
X128955569Y-127778899D01*
X128937784Y-127801080D01*
X128873785Y-127885480D01*
X128814351Y-127971336D01*
X128759577Y-128058404D01*
X128709561Y-128146445D01*
X128664400Y-128235217D01*
X128624189Y-128324478D01*
X128589026Y-128413986D01*
X128559007Y-128503501D01*
X128534230Y-128592780D01*
X128514790Y-128681583D01*
X128500785Y-128769668D01*
X128492311Y-128856793D01*
X128489465Y-128942717D01*
X127555008Y-128942717D01*
X127574892Y-128866020D01*
X127606445Y-128766933D01*
X127643672Y-128668629D01*
X127686619Y-128570982D01*
X127735331Y-128473864D01*
X127789853Y-128377145D01*
X127850232Y-128280700D01*
X127858730Y-128267858D01*
X127924515Y-128173800D01*
X127996087Y-128080404D01*
X128073366Y-127987744D01*
X128156274Y-127895892D01*
X128244732Y-127804921D01*
X128338663Y-127714904D01*
X128437986Y-127625915D01*
X128542625Y-127538026D01*
X128652500Y-127451311D01*
X128767533Y-127365842D01*
X128887646Y-127281692D01*
X129012760Y-127198935D01*
X129015769Y-127196997D01*
X129030474Y-127187439D01*
X129043112Y-127179081D01*
X129052955Y-127172415D01*
X129059272Y-127167933D01*
X129061338Y-127166127D01*
X129059192Y-127165213D01*
X129052011Y-127163046D01*
X129040771Y-127160005D01*
X129026439Y-127156325D01*
X129009985Y-127152241D01*
X128992375Y-127147990D01*
X128974578Y-127143808D01*
X128957562Y-127139931D01*
X128942294Y-127136595D01*
X128929742Y-127134036D01*
X128913434Y-127131000D01*
X128824647Y-127118008D01*
X128735275Y-127110858D01*
X128645378Y-127109530D01*
X128555016Y-127114001D01*
X128464248Y-127124251D01*
X128373134Y-127140258D01*
X128281732Y-127162002D01*
X128190103Y-127189462D01*
X128098305Y-127222615D01*
X128006399Y-127261442D01*
X127914444Y-127305921D01*
X127822498Y-127356030D01*
X127730622Y-127411750D01*
X127638874Y-127473058D01*
X127547315Y-127539933D01*
X127456004Y-127612355D01*
X127365000Y-127690302D01*
X127359281Y-127695399D01*
X127309313Y-127741202D01*
X127258343Y-127790078D01*
X127207108Y-127841233D01*
X127156349Y-127893873D01*
X127106805Y-127947203D01*
X127059214Y-128000431D01*
X127014315Y-128052762D01*
X126972849Y-128103403D01*
X126935552Y-128151560D01*
X126930931Y-128157661D01*
X126924191Y-128166297D01*
X126919295Y-128172230D01*
X126917072Y-128174436D01*
X126917439Y-128172686D01*
X126920065Y-128167074D01*
X126924426Y-128158939D01*
X126926436Y-128155326D01*
X126932050Y-128145109D01*
X126939358Y-128131705D01*
X126947640Y-128116441D01*
X126956172Y-128100642D01*
X126956649Y-128099757D01*
X126969763Y-128075782D01*
X126985272Y-128047987D01*
X127002508Y-128017535D01*
X127020801Y-127985588D01*
X127039484Y-127953308D01*
X127057886Y-127921857D01*
X127075338Y-127892397D01*
X127091174Y-127866090D01*
X127111878Y-127832307D01*
X127204704Y-127687059D01*
X127300897Y-127546414D01*
X127400410Y-127410420D01*
X127503194Y-127279129D01*
X127609202Y-127152589D01*
X127718388Y-127030850D01*
X127830705Y-126913961D01*
X127946104Y-126801973D01*
X128064538Y-126694935D01*
X128185961Y-126592895D01*
X128310325Y-126495905D01*
X128437583Y-126404014D01*
X128567687Y-126317270D01*
X128630577Y-126277830D01*
X128759660Y-126201779D01*
X128890634Y-126131072D01*
X129023354Y-126065758D01*
X129157673Y-126005889D01*
X129293446Y-125951514D01*
X129430527Y-125902684D01*
X129568771Y-125859448D01*
X129708032Y-125821858D01*
X129848164Y-125789963D01*
X129989023Y-125763814D01*
X130130462Y-125743461D01*
X130272335Y-125728955D01*
X130288729Y-125727670D01*
X130379129Y-125722271D01*
X130472064Y-125719419D01*
X130565957Y-125719101D01*
X130659229Y-125721305D01*
X130750302Y-125726020D01*
X130837599Y-125733233D01*
X130899252Y-125740024D01*
X131015835Y-125756505D01*
X131129813Y-125777439D01*
X131241014Y-125802754D01*
X131349263Y-125832381D01*
X131454389Y-125866245D01*
X131556216Y-125904277D01*
X131654573Y-125946404D01*
X131749286Y-125992554D01*
X131840181Y-126042656D01*
X131927086Y-126096638D01*
X132009826Y-126154428D01*
X132088229Y-126215955D01*
X132162122Y-126281148D01*
X132191408Y-126309176D01*
X132223169Y-126341424D01*
X132251472Y-126372571D01*
X132277211Y-126403654D01*
X132301283Y-126435713D01*
X132324580Y-126469788D01*
X132340816Y-126495173D01*
X132385628Y-126572163D01*
X132426484Y-126653106D01*
X132463240Y-126737562D01*
X132495756Y-126825087D01*
X132523888Y-126915241D01*
X132547494Y-127007583D01*
X132566433Y-127101669D01*
X132580561Y-127197060D01*
X132589738Y-127293313D01*
X132590755Y-127312560D01*
X132591517Y-127338622D01*
X132591889Y-127368157D01*
X132591890Y-127399994D01*
X132591539Y-127432961D01*
X132590855Y-127465887D01*
X132589856Y-127497601D01*
X132588563Y-127526930D01*
X132586994Y-127552704D01*
X132585169Y-127573750D01*
X132577925Y-127633701D01*
X132561741Y-127733988D01*
X132547469Y-127800175D01*
X132540615Y-127831961D01*
G37*
%TD*%
M02*
