%TF.GenerationSoftware,KiCad,Pcbnew,9.0.1*%
%TF.CreationDate,2025-04-21T15:30:43-04:00*%
%TF.ProjectId,AliWSV3,416c6957-5356-4332-9e6b-696361645f70,rev?*%
%TF.SameCoordinates,Original*%
%TF.FileFunction,Paste,Top*%
%TF.FilePolarity,Positive*%
%FSLAX46Y46*%
G04 Gerber Fmt 4.6, Leading zero omitted, Abs format (unit mm)*
G04 Created by KiCad (PCBNEW 9.0.1) date 2025-04-21 15:30:43*
%MOMM*%
%LPD*%
G01*
G04 APERTURE LIST*
G04 Aperture macros list*
%AMRoundRect*
0 Rectangle with rounded corners*
0 $1 Rounding radius*
0 $2 $3 $4 $5 $6 $7 $8 $9 X,Y pos of 4 corners*
0 Add a 4 corners polygon primitive as box body*
4,1,4,$2,$3,$4,$5,$6,$7,$8,$9,$2,$3,0*
0 Add four circle primitives for the rounded corners*
1,1,$1+$1,$2,$3*
1,1,$1+$1,$4,$5*
1,1,$1+$1,$6,$7*
1,1,$1+$1,$8,$9*
0 Add four rect primitives between the rounded corners*
20,1,$1+$1,$2,$3,$4,$5,0*
20,1,$1+$1,$4,$5,$6,$7,0*
20,1,$1+$1,$6,$7,$8,$9,0*
20,1,$1+$1,$8,$9,$2,$3,0*%
G04 Aperture macros list end*
%ADD10R,0.800000X1.000000*%
%ADD11R,0.280000X2.000000*%
%ADD12RoundRect,0.075000X0.725000X0.075000X-0.725000X0.075000X-0.725000X-0.075000X0.725000X-0.075000X0*%
%ADD13RoundRect,0.075000X0.075000X0.725000X-0.075000X0.725000X-0.075000X-0.725000X0.075000X-0.725000X0*%
%ADD14R,1.000000X0.800000*%
%ADD15RoundRect,0.200000X-1.300000X-0.200000X1.300000X-0.200000X1.300000X0.200000X-1.300000X0.200000X0*%
%ADD16R,1.200000X6.450000*%
%ADD17R,0.800000X5.500000*%
%ADD18R,0.800000X5.250000*%
%ADD19R,0.800000X6.450000*%
G04 APERTURE END LIST*
D10*
%TO.C,C3*%
X151800000Y-117000000D03*
X153700000Y-117000000D03*
%TD*%
D11*
%TO.C,U2*%
X122050000Y-139115000D03*
X122550000Y-139115000D03*
X123050000Y-139115000D03*
X123550000Y-139115000D03*
X124050000Y-139115000D03*
X124550000Y-139115000D03*
X125050000Y-139115000D03*
X125550000Y-139115000D03*
X126050000Y-139115000D03*
X126550000Y-139115000D03*
X127050000Y-139115000D03*
X127550000Y-139115000D03*
X128050000Y-139115000D03*
X128550000Y-139115000D03*
X129050000Y-139115000D03*
X129550000Y-139115000D03*
X130050000Y-139115000D03*
X130550000Y-139115000D03*
X131050000Y-139115000D03*
X131550000Y-139115000D03*
X132050000Y-139115000D03*
X132550000Y-139115000D03*
X133050000Y-139115000D03*
X133550000Y-139115000D03*
X133550000Y-118865000D03*
X133050000Y-118865000D03*
X132550000Y-118865000D03*
X132050000Y-118865000D03*
X131550000Y-118865000D03*
X131050000Y-118865000D03*
X130550000Y-118865000D03*
X130050000Y-118865000D03*
X129550000Y-118865000D03*
X129050000Y-118865000D03*
X128550000Y-118865000D03*
X128050000Y-118865000D03*
X127550000Y-118865000D03*
X127050000Y-118865000D03*
X126550000Y-118865000D03*
X126050000Y-118865000D03*
X125550000Y-118865000D03*
X125050000Y-118865000D03*
X124550000Y-118865000D03*
X124050000Y-118865000D03*
X123550000Y-118865000D03*
X123050000Y-118865000D03*
X122550000Y-118865000D03*
X122050000Y-118865000D03*
%TD*%
D12*
%TO.C,U1*%
X153765000Y-133190000D03*
X153765000Y-132690000D03*
X153765000Y-132190000D03*
X153765000Y-131690000D03*
X153765000Y-131190000D03*
X153765000Y-130690000D03*
X153765000Y-130190000D03*
X153765000Y-129690000D03*
X153765000Y-129190000D03*
X153765000Y-128690000D03*
X153765000Y-128190000D03*
X153765000Y-127690000D03*
X153765000Y-127190000D03*
X153765000Y-126690000D03*
X153765000Y-126190000D03*
X153765000Y-125690000D03*
X153765000Y-125190000D03*
X153765000Y-124690000D03*
X153765000Y-124190000D03*
X153765000Y-123690000D03*
X153765000Y-123190000D03*
X153765000Y-122690000D03*
X153765000Y-122190000D03*
X153765000Y-121690000D03*
X153765000Y-121190000D03*
D13*
X152090000Y-119515000D03*
X151590000Y-119515000D03*
X151090000Y-119515000D03*
X150590000Y-119515000D03*
X150090000Y-119515000D03*
X149590000Y-119515000D03*
X149090000Y-119515000D03*
X148590000Y-119515000D03*
X148090000Y-119515000D03*
X147590000Y-119515000D03*
X147090000Y-119515000D03*
X146590000Y-119515000D03*
X146090000Y-119515000D03*
X145590000Y-119515000D03*
X145090000Y-119515000D03*
X144590000Y-119515000D03*
X144090000Y-119515000D03*
X143590000Y-119515000D03*
X143090000Y-119515000D03*
X142590000Y-119515000D03*
X142090000Y-119515000D03*
X141590000Y-119515000D03*
X141090000Y-119515000D03*
X140590000Y-119515000D03*
X140090000Y-119515000D03*
D12*
X138415000Y-121190000D03*
X138415000Y-121690000D03*
X138415000Y-122190000D03*
X138415000Y-122690000D03*
X138415000Y-123190000D03*
X138415000Y-123690000D03*
X138415000Y-124190000D03*
X138415000Y-124690000D03*
X138415000Y-125190000D03*
X138415000Y-125690000D03*
X138415000Y-126190000D03*
X138415000Y-126690000D03*
X138415000Y-127190000D03*
X138415000Y-127690000D03*
X138415000Y-128190000D03*
X138415000Y-128690000D03*
X138415000Y-129190000D03*
X138415000Y-129690000D03*
X138415000Y-130190000D03*
X138415000Y-130690000D03*
X138415000Y-131190000D03*
X138415000Y-131690000D03*
X138415000Y-132190000D03*
X138415000Y-132690000D03*
X138415000Y-133190000D03*
D13*
X140090000Y-134865000D03*
X140590000Y-134865000D03*
X141090000Y-134865000D03*
X141590000Y-134865000D03*
X142090000Y-134865000D03*
X142590000Y-134865000D03*
X143090000Y-134865000D03*
X143590000Y-134865000D03*
X144090000Y-134865000D03*
X144590000Y-134865000D03*
X145090000Y-134865000D03*
X145590000Y-134865000D03*
X146090000Y-134865000D03*
X146590000Y-134865000D03*
X147090000Y-134865000D03*
X147590000Y-134865000D03*
X148090000Y-134865000D03*
X148590000Y-134865000D03*
X149090000Y-134865000D03*
X149590000Y-134865000D03*
X150090000Y-134865000D03*
X150590000Y-134865000D03*
X151090000Y-134865000D03*
X151590000Y-134865000D03*
X152090000Y-134865000D03*
%TD*%
D14*
%TO.C,C4*%
X150190000Y-137940000D03*
X150190000Y-139840000D03*
%TD*%
%TO.C,C2*%
X158130000Y-130300000D03*
X158130000Y-128400000D03*
%TD*%
D15*
%TO.C,M1*%
X117900000Y-138370000D03*
X117900000Y-137100000D03*
X117900000Y-135830000D03*
X117900000Y-134560000D03*
X117900000Y-133290000D03*
X117900000Y-132020000D03*
X117900000Y-130750000D03*
X117900000Y-129480000D03*
X117900000Y-128210000D03*
X117900000Y-126940000D03*
X117900000Y-125670000D03*
X117900000Y-124400000D03*
X117900000Y-123130000D03*
X117900000Y-121860000D03*
X117900000Y-120590000D03*
X117900000Y-119320000D03*
X107740000Y-119320000D03*
X107740000Y-120590000D03*
X107740000Y-121860000D03*
X107740000Y-123130000D03*
X107740000Y-124400000D03*
X107740000Y-125670000D03*
X107740000Y-126940000D03*
X107740000Y-128210000D03*
X107740000Y-129480000D03*
X107740000Y-130750000D03*
X107740000Y-132020000D03*
X107740000Y-133290000D03*
X107740000Y-134560000D03*
X107740000Y-135830000D03*
X107740000Y-137100000D03*
X107740000Y-138370000D03*
%TD*%
D14*
%TO.C,C5*%
X136017000Y-130236000D03*
X136017000Y-128336000D03*
%TD*%
D16*
%TO.C,J1*%
X100045000Y-147750000D03*
D17*
X101515000Y-148200000D03*
X102765000Y-148200000D03*
D18*
X104015000Y-148320000D03*
X105265000Y-148320000D03*
X106515000Y-148320000D03*
X107765000Y-148320000D03*
X109015000Y-148320000D03*
D17*
X110265000Y-148200000D03*
X111515000Y-148200000D03*
D18*
X112765000Y-148320000D03*
X114015000Y-148320000D03*
X115265000Y-148320000D03*
X116515000Y-148320000D03*
X117765000Y-148320000D03*
D17*
X119015000Y-148200000D03*
X120265000Y-148200000D03*
X121515000Y-148200000D03*
X122765000Y-148200000D03*
X124015000Y-148200000D03*
D18*
X125285000Y-148330000D03*
D17*
X126515000Y-148200000D03*
X127765000Y-148200000D03*
D19*
X129025000Y-147750000D03*
X130275000Y-147750000D03*
D18*
X131515000Y-148320000D03*
D17*
X132765000Y-148200000D03*
X134015000Y-148200000D03*
X135265000Y-148200000D03*
D18*
X136515000Y-148320000D03*
D17*
X137765000Y-148200000D03*
X139015000Y-148200000D03*
X140265000Y-148200000D03*
D18*
X141515000Y-148320000D03*
D17*
X142765000Y-148200000D03*
X144015000Y-148200000D03*
X145265000Y-148200000D03*
X146515000Y-148200000D03*
X147765000Y-148200000D03*
X149015000Y-148200000D03*
X150265000Y-148200000D03*
X151515000Y-148200000D03*
X152765000Y-148200000D03*
X154015000Y-148200000D03*
D18*
X155265000Y-148320000D03*
D17*
X156515000Y-148200000D03*
D18*
X157765000Y-148320000D03*
D16*
X159245000Y-147750000D03*
%TD*%
D14*
%TO.C,C1*%
X102743000Y-131320000D03*
X102743000Y-129420000D03*
%TD*%
M02*
